G04 #@! TF.GenerationSoftware,KiCad,Pcbnew,(5.0.2)-1*
G04 #@! TF.CreationDate,2019-11-03T18:05:40-05:00*
G04 #@! TF.ProjectId,bin2hex,62696e32-6865-4782-9e6b-696361645f70,v01*
G04 #@! TF.SameCoordinates,Original*
G04 #@! TF.FileFunction,Soldermask,Top*
G04 #@! TF.FilePolarity,Negative*
%FSLAX46Y46*%
G04 Gerber Fmt 4.6, Leading zero omitted, Abs format (unit mm)*
G04 Created by KiCad (PCBNEW (5.0.2)-1) date 11/3/2019 6:05:40 PM*
%MOMM*%
%LPD*%
G01*
G04 APERTURE LIST*
%ADD10C,0.100000*%
G04 APERTURE END LIST*
D10*
G36*
X181475800Y-139374200D02*
X178524200Y-139374200D01*
X178524200Y-136422600D01*
X181475800Y-136422600D01*
X181475800Y-139374200D01*
X181475800Y-139374200D01*
G37*
G36*
X121475800Y-139374200D02*
X118524200Y-139374200D01*
X118524200Y-136422600D01*
X121475800Y-136422600D01*
X121475800Y-139374200D01*
X121475800Y-139374200D01*
G37*
G36*
X111475800Y-139374200D02*
X108524200Y-139374200D01*
X108524200Y-136422600D01*
X111475800Y-136422600D01*
X111475800Y-139374200D01*
X111475800Y-139374200D01*
G37*
G36*
X131475800Y-139374200D02*
X128524200Y-139374200D01*
X128524200Y-136422600D01*
X131475800Y-136422600D01*
X131475800Y-139374200D01*
X131475800Y-139374200D01*
G37*
G36*
X141475800Y-139374200D02*
X138524200Y-139374200D01*
X138524200Y-136422600D01*
X141475800Y-136422600D01*
X141475800Y-139374200D01*
X141475800Y-139374200D01*
G37*
G36*
X151475800Y-139374200D02*
X148524200Y-139374200D01*
X148524200Y-136422600D01*
X151475800Y-136422600D01*
X151475800Y-139374200D01*
X151475800Y-139374200D01*
G37*
G36*
X161475800Y-139374200D02*
X158524200Y-139374200D01*
X158524200Y-136422600D01*
X161475800Y-136422600D01*
X161475800Y-139374200D01*
X161475800Y-139374200D01*
G37*
G36*
X171475800Y-139374200D02*
X168524200Y-139374200D01*
X168524200Y-136422600D01*
X171475800Y-136422600D01*
X171475800Y-139374200D01*
X171475800Y-139374200D01*
G37*
G36*
X120430473Y-131779313D02*
X120699054Y-131890563D01*
X120940771Y-132052073D01*
X121146327Y-132257629D01*
X121307837Y-132499346D01*
X121419087Y-132767927D01*
X121475800Y-133053045D01*
X121475800Y-133343755D01*
X121419087Y-133628873D01*
X121307837Y-133897454D01*
X121146327Y-134139171D01*
X120940771Y-134344727D01*
X120699054Y-134506237D01*
X120430473Y-134617487D01*
X120145355Y-134674200D01*
X119854645Y-134674200D01*
X119569527Y-134617487D01*
X119300946Y-134506237D01*
X119059229Y-134344727D01*
X118853673Y-134139171D01*
X118692163Y-133897454D01*
X118580913Y-133628873D01*
X118524200Y-133343755D01*
X118524200Y-133053045D01*
X118580913Y-132767927D01*
X118692163Y-132499346D01*
X118853673Y-132257629D01*
X119059229Y-132052073D01*
X119300946Y-131890563D01*
X119569527Y-131779313D01*
X119854645Y-131722600D01*
X120145355Y-131722600D01*
X120430473Y-131779313D01*
X120430473Y-131779313D01*
G37*
G36*
X110430473Y-131779313D02*
X110699054Y-131890563D01*
X110940771Y-132052073D01*
X111146327Y-132257629D01*
X111307837Y-132499346D01*
X111419087Y-132767927D01*
X111475800Y-133053045D01*
X111475800Y-133343755D01*
X111419087Y-133628873D01*
X111307837Y-133897454D01*
X111146327Y-134139171D01*
X110940771Y-134344727D01*
X110699054Y-134506237D01*
X110430473Y-134617487D01*
X110145355Y-134674200D01*
X109854645Y-134674200D01*
X109569527Y-134617487D01*
X109300946Y-134506237D01*
X109059229Y-134344727D01*
X108853673Y-134139171D01*
X108692163Y-133897454D01*
X108580913Y-133628873D01*
X108524200Y-133343755D01*
X108524200Y-133053045D01*
X108580913Y-132767927D01*
X108692163Y-132499346D01*
X108853673Y-132257629D01*
X109059229Y-132052073D01*
X109300946Y-131890563D01*
X109569527Y-131779313D01*
X109854645Y-131722600D01*
X110145355Y-131722600D01*
X110430473Y-131779313D01*
X110430473Y-131779313D01*
G37*
G36*
X130430473Y-131779313D02*
X130699054Y-131890563D01*
X130940771Y-132052073D01*
X131146327Y-132257629D01*
X131307837Y-132499346D01*
X131419087Y-132767927D01*
X131475800Y-133053045D01*
X131475800Y-133343755D01*
X131419087Y-133628873D01*
X131307837Y-133897454D01*
X131146327Y-134139171D01*
X130940771Y-134344727D01*
X130699054Y-134506237D01*
X130430473Y-134617487D01*
X130145355Y-134674200D01*
X129854645Y-134674200D01*
X129569527Y-134617487D01*
X129300946Y-134506237D01*
X129059229Y-134344727D01*
X128853673Y-134139171D01*
X128692163Y-133897454D01*
X128580913Y-133628873D01*
X128524200Y-133343755D01*
X128524200Y-133053045D01*
X128580913Y-132767927D01*
X128692163Y-132499346D01*
X128853673Y-132257629D01*
X129059229Y-132052073D01*
X129300946Y-131890563D01*
X129569527Y-131779313D01*
X129854645Y-131722600D01*
X130145355Y-131722600D01*
X130430473Y-131779313D01*
X130430473Y-131779313D01*
G37*
G36*
X140430473Y-131779313D02*
X140699054Y-131890563D01*
X140940771Y-132052073D01*
X141146327Y-132257629D01*
X141307837Y-132499346D01*
X141419087Y-132767927D01*
X141475800Y-133053045D01*
X141475800Y-133343755D01*
X141419087Y-133628873D01*
X141307837Y-133897454D01*
X141146327Y-134139171D01*
X140940771Y-134344727D01*
X140699054Y-134506237D01*
X140430473Y-134617487D01*
X140145355Y-134674200D01*
X139854645Y-134674200D01*
X139569527Y-134617487D01*
X139300946Y-134506237D01*
X139059229Y-134344727D01*
X138853673Y-134139171D01*
X138692163Y-133897454D01*
X138580913Y-133628873D01*
X138524200Y-133343755D01*
X138524200Y-133053045D01*
X138580913Y-132767927D01*
X138692163Y-132499346D01*
X138853673Y-132257629D01*
X139059229Y-132052073D01*
X139300946Y-131890563D01*
X139569527Y-131779313D01*
X139854645Y-131722600D01*
X140145355Y-131722600D01*
X140430473Y-131779313D01*
X140430473Y-131779313D01*
G37*
G36*
X170430473Y-131779313D02*
X170699054Y-131890563D01*
X170940771Y-132052073D01*
X171146327Y-132257629D01*
X171307837Y-132499346D01*
X171419087Y-132767927D01*
X171475800Y-133053045D01*
X171475800Y-133343755D01*
X171419087Y-133628873D01*
X171307837Y-133897454D01*
X171146327Y-134139171D01*
X170940771Y-134344727D01*
X170699054Y-134506237D01*
X170430473Y-134617487D01*
X170145355Y-134674200D01*
X169854645Y-134674200D01*
X169569527Y-134617487D01*
X169300946Y-134506237D01*
X169059229Y-134344727D01*
X168853673Y-134139171D01*
X168692163Y-133897454D01*
X168580913Y-133628873D01*
X168524200Y-133343755D01*
X168524200Y-133053045D01*
X168580913Y-132767927D01*
X168692163Y-132499346D01*
X168853673Y-132257629D01*
X169059229Y-132052073D01*
X169300946Y-131890563D01*
X169569527Y-131779313D01*
X169854645Y-131722600D01*
X170145355Y-131722600D01*
X170430473Y-131779313D01*
X170430473Y-131779313D01*
G37*
G36*
X160430473Y-131779313D02*
X160699054Y-131890563D01*
X160940771Y-132052073D01*
X161146327Y-132257629D01*
X161307837Y-132499346D01*
X161419087Y-132767927D01*
X161475800Y-133053045D01*
X161475800Y-133343755D01*
X161419087Y-133628873D01*
X161307837Y-133897454D01*
X161146327Y-134139171D01*
X160940771Y-134344727D01*
X160699054Y-134506237D01*
X160430473Y-134617487D01*
X160145355Y-134674200D01*
X159854645Y-134674200D01*
X159569527Y-134617487D01*
X159300946Y-134506237D01*
X159059229Y-134344727D01*
X158853673Y-134139171D01*
X158692163Y-133897454D01*
X158580913Y-133628873D01*
X158524200Y-133343755D01*
X158524200Y-133053045D01*
X158580913Y-132767927D01*
X158692163Y-132499346D01*
X158853673Y-132257629D01*
X159059229Y-132052073D01*
X159300946Y-131890563D01*
X159569527Y-131779313D01*
X159854645Y-131722600D01*
X160145355Y-131722600D01*
X160430473Y-131779313D01*
X160430473Y-131779313D01*
G37*
G36*
X150430473Y-131779313D02*
X150699054Y-131890563D01*
X150940771Y-132052073D01*
X151146327Y-132257629D01*
X151307837Y-132499346D01*
X151419087Y-132767927D01*
X151475800Y-133053045D01*
X151475800Y-133343755D01*
X151419087Y-133628873D01*
X151307837Y-133897454D01*
X151146327Y-134139171D01*
X150940771Y-134344727D01*
X150699054Y-134506237D01*
X150430473Y-134617487D01*
X150145355Y-134674200D01*
X149854645Y-134674200D01*
X149569527Y-134617487D01*
X149300946Y-134506237D01*
X149059229Y-134344727D01*
X148853673Y-134139171D01*
X148692163Y-133897454D01*
X148580913Y-133628873D01*
X148524200Y-133343755D01*
X148524200Y-133053045D01*
X148580913Y-132767927D01*
X148692163Y-132499346D01*
X148853673Y-132257629D01*
X149059229Y-132052073D01*
X149300946Y-131890563D01*
X149569527Y-131779313D01*
X149854645Y-131722600D01*
X150145355Y-131722600D01*
X150430473Y-131779313D01*
X150430473Y-131779313D01*
G37*
G36*
X180430473Y-131779313D02*
X180699054Y-131890563D01*
X180940771Y-132052073D01*
X181146327Y-132257629D01*
X181307837Y-132499346D01*
X181419087Y-132767927D01*
X181475800Y-133053045D01*
X181475800Y-133343755D01*
X181419087Y-133628873D01*
X181307837Y-133897454D01*
X181146327Y-134139171D01*
X180940771Y-134344727D01*
X180699054Y-134506237D01*
X180430473Y-134617487D01*
X180145355Y-134674200D01*
X179854645Y-134674200D01*
X179569527Y-134617487D01*
X179300946Y-134506237D01*
X179059229Y-134344727D01*
X178853673Y-134139171D01*
X178692163Y-133897454D01*
X178580913Y-133628873D01*
X178524200Y-133343755D01*
X178524200Y-133053045D01*
X178580913Y-132767927D01*
X178692163Y-132499346D01*
X178853673Y-132257629D01*
X179059229Y-132052073D01*
X179300946Y-131890563D01*
X179569527Y-131779313D01*
X179854645Y-131722600D01*
X180145355Y-131722600D01*
X180430473Y-131779313D01*
X180430473Y-131779313D01*
G37*
G36*
X120430473Y-127079313D02*
X120699054Y-127190563D01*
X120940771Y-127352073D01*
X121146327Y-127557629D01*
X121307837Y-127799346D01*
X121419087Y-128067927D01*
X121475800Y-128353045D01*
X121475800Y-128643755D01*
X121419087Y-128928873D01*
X121307837Y-129197454D01*
X121146327Y-129439171D01*
X120940771Y-129644727D01*
X120699054Y-129806237D01*
X120430473Y-129917487D01*
X120145355Y-129974200D01*
X119854645Y-129974200D01*
X119569527Y-129917487D01*
X119300946Y-129806237D01*
X119059229Y-129644727D01*
X118853673Y-129439171D01*
X118692163Y-129197454D01*
X118580913Y-128928873D01*
X118524200Y-128643755D01*
X118524200Y-128353045D01*
X118580913Y-128067927D01*
X118692163Y-127799346D01*
X118853673Y-127557629D01*
X119059229Y-127352073D01*
X119300946Y-127190563D01*
X119569527Y-127079313D01*
X119854645Y-127022600D01*
X120145355Y-127022600D01*
X120430473Y-127079313D01*
X120430473Y-127079313D01*
G37*
G36*
X150430473Y-127079313D02*
X150699054Y-127190563D01*
X150940771Y-127352073D01*
X151146327Y-127557629D01*
X151307837Y-127799346D01*
X151419087Y-128067927D01*
X151475800Y-128353045D01*
X151475800Y-128643755D01*
X151419087Y-128928873D01*
X151307837Y-129197454D01*
X151146327Y-129439171D01*
X150940771Y-129644727D01*
X150699054Y-129806237D01*
X150430473Y-129917487D01*
X150145355Y-129974200D01*
X149854645Y-129974200D01*
X149569527Y-129917487D01*
X149300946Y-129806237D01*
X149059229Y-129644727D01*
X148853673Y-129439171D01*
X148692163Y-129197454D01*
X148580913Y-128928873D01*
X148524200Y-128643755D01*
X148524200Y-128353045D01*
X148580913Y-128067927D01*
X148692163Y-127799346D01*
X148853673Y-127557629D01*
X149059229Y-127352073D01*
X149300946Y-127190563D01*
X149569527Y-127079313D01*
X149854645Y-127022600D01*
X150145355Y-127022600D01*
X150430473Y-127079313D01*
X150430473Y-127079313D01*
G37*
G36*
X160430473Y-127079313D02*
X160699054Y-127190563D01*
X160940771Y-127352073D01*
X161146327Y-127557629D01*
X161307837Y-127799346D01*
X161419087Y-128067927D01*
X161475800Y-128353045D01*
X161475800Y-128643755D01*
X161419087Y-128928873D01*
X161307837Y-129197454D01*
X161146327Y-129439171D01*
X160940771Y-129644727D01*
X160699054Y-129806237D01*
X160430473Y-129917487D01*
X160145355Y-129974200D01*
X159854645Y-129974200D01*
X159569527Y-129917487D01*
X159300946Y-129806237D01*
X159059229Y-129644727D01*
X158853673Y-129439171D01*
X158692163Y-129197454D01*
X158580913Y-128928873D01*
X158524200Y-128643755D01*
X158524200Y-128353045D01*
X158580913Y-128067927D01*
X158692163Y-127799346D01*
X158853673Y-127557629D01*
X159059229Y-127352073D01*
X159300946Y-127190563D01*
X159569527Y-127079313D01*
X159854645Y-127022600D01*
X160145355Y-127022600D01*
X160430473Y-127079313D01*
X160430473Y-127079313D01*
G37*
G36*
X110430473Y-127079313D02*
X110699054Y-127190563D01*
X110940771Y-127352073D01*
X111146327Y-127557629D01*
X111307837Y-127799346D01*
X111419087Y-128067927D01*
X111475800Y-128353045D01*
X111475800Y-128643755D01*
X111419087Y-128928873D01*
X111307837Y-129197454D01*
X111146327Y-129439171D01*
X110940771Y-129644727D01*
X110699054Y-129806237D01*
X110430473Y-129917487D01*
X110145355Y-129974200D01*
X109854645Y-129974200D01*
X109569527Y-129917487D01*
X109300946Y-129806237D01*
X109059229Y-129644727D01*
X108853673Y-129439171D01*
X108692163Y-129197454D01*
X108580913Y-128928873D01*
X108524200Y-128643755D01*
X108524200Y-128353045D01*
X108580913Y-128067927D01*
X108692163Y-127799346D01*
X108853673Y-127557629D01*
X109059229Y-127352073D01*
X109300946Y-127190563D01*
X109569527Y-127079313D01*
X109854645Y-127022600D01*
X110145355Y-127022600D01*
X110430473Y-127079313D01*
X110430473Y-127079313D01*
G37*
G36*
X140430473Y-127079313D02*
X140699054Y-127190563D01*
X140940771Y-127352073D01*
X141146327Y-127557629D01*
X141307837Y-127799346D01*
X141419087Y-128067927D01*
X141475800Y-128353045D01*
X141475800Y-128643755D01*
X141419087Y-128928873D01*
X141307837Y-129197454D01*
X141146327Y-129439171D01*
X140940771Y-129644727D01*
X140699054Y-129806237D01*
X140430473Y-129917487D01*
X140145355Y-129974200D01*
X139854645Y-129974200D01*
X139569527Y-129917487D01*
X139300946Y-129806237D01*
X139059229Y-129644727D01*
X138853673Y-129439171D01*
X138692163Y-129197454D01*
X138580913Y-128928873D01*
X138524200Y-128643755D01*
X138524200Y-128353045D01*
X138580913Y-128067927D01*
X138692163Y-127799346D01*
X138853673Y-127557629D01*
X139059229Y-127352073D01*
X139300946Y-127190563D01*
X139569527Y-127079313D01*
X139854645Y-127022600D01*
X140145355Y-127022600D01*
X140430473Y-127079313D01*
X140430473Y-127079313D01*
G37*
G36*
X170430473Y-127079313D02*
X170699054Y-127190563D01*
X170940771Y-127352073D01*
X171146327Y-127557629D01*
X171307837Y-127799346D01*
X171419087Y-128067927D01*
X171475800Y-128353045D01*
X171475800Y-128643755D01*
X171419087Y-128928873D01*
X171307837Y-129197454D01*
X171146327Y-129439171D01*
X170940771Y-129644727D01*
X170699054Y-129806237D01*
X170430473Y-129917487D01*
X170145355Y-129974200D01*
X169854645Y-129974200D01*
X169569527Y-129917487D01*
X169300946Y-129806237D01*
X169059229Y-129644727D01*
X168853673Y-129439171D01*
X168692163Y-129197454D01*
X168580913Y-128928873D01*
X168524200Y-128643755D01*
X168524200Y-128353045D01*
X168580913Y-128067927D01*
X168692163Y-127799346D01*
X168853673Y-127557629D01*
X169059229Y-127352073D01*
X169300946Y-127190563D01*
X169569527Y-127079313D01*
X169854645Y-127022600D01*
X170145355Y-127022600D01*
X170430473Y-127079313D01*
X170430473Y-127079313D01*
G37*
G36*
X130430473Y-127079313D02*
X130699054Y-127190563D01*
X130940771Y-127352073D01*
X131146327Y-127557629D01*
X131307837Y-127799346D01*
X131419087Y-128067927D01*
X131475800Y-128353045D01*
X131475800Y-128643755D01*
X131419087Y-128928873D01*
X131307837Y-129197454D01*
X131146327Y-129439171D01*
X130940771Y-129644727D01*
X130699054Y-129806237D01*
X130430473Y-129917487D01*
X130145355Y-129974200D01*
X129854645Y-129974200D01*
X129569527Y-129917487D01*
X129300946Y-129806237D01*
X129059229Y-129644727D01*
X128853673Y-129439171D01*
X128692163Y-129197454D01*
X128580913Y-128928873D01*
X128524200Y-128643755D01*
X128524200Y-128353045D01*
X128580913Y-128067927D01*
X128692163Y-127799346D01*
X128853673Y-127557629D01*
X129059229Y-127352073D01*
X129300946Y-127190563D01*
X129569527Y-127079313D01*
X129854645Y-127022600D01*
X130145355Y-127022600D01*
X130430473Y-127079313D01*
X130430473Y-127079313D01*
G37*
G36*
X180430473Y-127079313D02*
X180699054Y-127190563D01*
X180940771Y-127352073D01*
X181146327Y-127557629D01*
X181307837Y-127799346D01*
X181419087Y-128067927D01*
X181475800Y-128353045D01*
X181475800Y-128643755D01*
X181419087Y-128928873D01*
X181307837Y-129197454D01*
X181146327Y-129439171D01*
X180940771Y-129644727D01*
X180699054Y-129806237D01*
X180430473Y-129917487D01*
X180145355Y-129974200D01*
X179854645Y-129974200D01*
X179569527Y-129917487D01*
X179300946Y-129806237D01*
X179059229Y-129644727D01*
X178853673Y-129439171D01*
X178692163Y-129197454D01*
X178580913Y-128928873D01*
X178524200Y-128643755D01*
X178524200Y-128353045D01*
X178580913Y-128067927D01*
X178692163Y-127799346D01*
X178853673Y-127557629D01*
X179059229Y-127352073D01*
X179300946Y-127190563D01*
X179569527Y-127079313D01*
X179854645Y-127022600D01*
X180145355Y-127022600D01*
X180430473Y-127079313D01*
X180430473Y-127079313D01*
G37*
G36*
X188202987Y-122173710D02*
X188363360Y-122222360D01*
X188363362Y-122222361D01*
X188511166Y-122301363D01*
X188640717Y-122407683D01*
X188747037Y-122537234D01*
X188819518Y-122672838D01*
X188826040Y-122685040D01*
X188874690Y-122845413D01*
X188891116Y-123012200D01*
X188874690Y-123178987D01*
X188826040Y-123339360D01*
X188826039Y-123339362D01*
X188747037Y-123487166D01*
X188640717Y-123616717D01*
X188511166Y-123723037D01*
X188363362Y-123802039D01*
X188363360Y-123802040D01*
X188202987Y-123850690D01*
X188077994Y-123863000D01*
X187994406Y-123863000D01*
X187869413Y-123850690D01*
X187709040Y-123802040D01*
X187709038Y-123802039D01*
X187561234Y-123723037D01*
X187431683Y-123616717D01*
X187325363Y-123487166D01*
X187246361Y-123339362D01*
X187246360Y-123339360D01*
X187197710Y-123178987D01*
X187181284Y-123012200D01*
X187197710Y-122845413D01*
X187246360Y-122685040D01*
X187252882Y-122672838D01*
X187325363Y-122537234D01*
X187431683Y-122407683D01*
X187561234Y-122301363D01*
X187709038Y-122222361D01*
X187709040Y-122222360D01*
X187869413Y-122173710D01*
X187994406Y-122161400D01*
X188077994Y-122161400D01*
X188202987Y-122173710D01*
X188202987Y-122173710D01*
G37*
G36*
X180664369Y-122194095D02*
X180819205Y-122258231D01*
X180958554Y-122351340D01*
X181077060Y-122469846D01*
X181170169Y-122609195D01*
X181234305Y-122764031D01*
X181267000Y-122928403D01*
X181267000Y-123095997D01*
X181234305Y-123260369D01*
X181170169Y-123415205D01*
X181077060Y-123554554D01*
X180958554Y-123673060D01*
X180819205Y-123766169D01*
X180664369Y-123830305D01*
X180499997Y-123863000D01*
X180332403Y-123863000D01*
X180168031Y-123830305D01*
X180013195Y-123766169D01*
X179873846Y-123673060D01*
X179755340Y-123554554D01*
X179662231Y-123415205D01*
X179598095Y-123260369D01*
X179565400Y-123095997D01*
X179565400Y-122928403D01*
X179598095Y-122764031D01*
X179662231Y-122609195D01*
X179755340Y-122469846D01*
X179873846Y-122351340D01*
X180013195Y-122258231D01*
X180168031Y-122194095D01*
X180332403Y-122161400D01*
X180499997Y-122161400D01*
X180664369Y-122194095D01*
X180664369Y-122194095D01*
G37*
G36*
X136498169Y-122181895D02*
X136653005Y-122246031D01*
X136792354Y-122339140D01*
X136910860Y-122457646D01*
X137003969Y-122596995D01*
X137068105Y-122751831D01*
X137100800Y-122916203D01*
X137100800Y-123083797D01*
X137068105Y-123248169D01*
X137003969Y-123403005D01*
X136910860Y-123542354D01*
X136792354Y-123660860D01*
X136653005Y-123753969D01*
X136498169Y-123818105D01*
X136333797Y-123850800D01*
X136166203Y-123850800D01*
X136001831Y-123818105D01*
X135846995Y-123753969D01*
X135707646Y-123660860D01*
X135589140Y-123542354D01*
X135496031Y-123403005D01*
X135431895Y-123248169D01*
X135399200Y-123083797D01*
X135399200Y-122916203D01*
X135431895Y-122751831D01*
X135496031Y-122596995D01*
X135589140Y-122457646D01*
X135707646Y-122339140D01*
X135846995Y-122246031D01*
X136001831Y-122181895D01*
X136166203Y-122149200D01*
X136333797Y-122149200D01*
X136498169Y-122181895D01*
X136498169Y-122181895D01*
G37*
G36*
X144036787Y-122161510D02*
X144197160Y-122210160D01*
X144197162Y-122210161D01*
X144344966Y-122289163D01*
X144474517Y-122395483D01*
X144580837Y-122525034D01*
X144659839Y-122672838D01*
X144659840Y-122672840D01*
X144708490Y-122833213D01*
X144724916Y-123000000D01*
X144708490Y-123166787D01*
X144659840Y-123327160D01*
X144659839Y-123327162D01*
X144580837Y-123474966D01*
X144474517Y-123604517D01*
X144344966Y-123710837D01*
X144197162Y-123789839D01*
X144197160Y-123789840D01*
X144036787Y-123838490D01*
X143911794Y-123850800D01*
X143828206Y-123850800D01*
X143703213Y-123838490D01*
X143542840Y-123789840D01*
X143542838Y-123789839D01*
X143395034Y-123710837D01*
X143265483Y-123604517D01*
X143159163Y-123474966D01*
X143080161Y-123327162D01*
X143080160Y-123327160D01*
X143031510Y-123166787D01*
X143015084Y-123000000D01*
X143031510Y-122833213D01*
X143080160Y-122672840D01*
X143080161Y-122672838D01*
X143159163Y-122525034D01*
X143265483Y-122395483D01*
X143395034Y-122289163D01*
X143542838Y-122210161D01*
X143542840Y-122210160D01*
X143703213Y-122161510D01*
X143828206Y-122149200D01*
X143911794Y-122149200D01*
X144036787Y-122161510D01*
X144036787Y-122161510D01*
G37*
G36*
X154928987Y-122161510D02*
X155089360Y-122210160D01*
X155089362Y-122210161D01*
X155237166Y-122289163D01*
X155366717Y-122395483D01*
X155473037Y-122525034D01*
X155552039Y-122672838D01*
X155552040Y-122672840D01*
X155600690Y-122833213D01*
X155617116Y-123000000D01*
X155600690Y-123166787D01*
X155552040Y-123327160D01*
X155552039Y-123327162D01*
X155473037Y-123474966D01*
X155366717Y-123604517D01*
X155237166Y-123710837D01*
X155089362Y-123789839D01*
X155089360Y-123789840D01*
X154928987Y-123838490D01*
X154803994Y-123850800D01*
X154720406Y-123850800D01*
X154595413Y-123838490D01*
X154435040Y-123789840D01*
X154435038Y-123789839D01*
X154287234Y-123710837D01*
X154157683Y-123604517D01*
X154051363Y-123474966D01*
X153972361Y-123327162D01*
X153972360Y-123327160D01*
X153923710Y-123166787D01*
X153907284Y-123000000D01*
X153923710Y-122833213D01*
X153972360Y-122672840D01*
X153972361Y-122672838D01*
X154051363Y-122525034D01*
X154157683Y-122395483D01*
X154287234Y-122289163D01*
X154435038Y-122210161D01*
X154435040Y-122210160D01*
X154595413Y-122161510D01*
X154720406Y-122149200D01*
X154803994Y-122149200D01*
X154928987Y-122161510D01*
X154928987Y-122161510D01*
G37*
G36*
X147390369Y-122181895D02*
X147545205Y-122246031D01*
X147684554Y-122339140D01*
X147803060Y-122457646D01*
X147896169Y-122596995D01*
X147960305Y-122751831D01*
X147993000Y-122916203D01*
X147993000Y-123083797D01*
X147960305Y-123248169D01*
X147896169Y-123403005D01*
X147803060Y-123542354D01*
X147684554Y-123660860D01*
X147545205Y-123753969D01*
X147390369Y-123818105D01*
X147225997Y-123850800D01*
X147058403Y-123850800D01*
X146894031Y-123818105D01*
X146739195Y-123753969D01*
X146599846Y-123660860D01*
X146481340Y-123542354D01*
X146388231Y-123403005D01*
X146324095Y-123248169D01*
X146291400Y-123083797D01*
X146291400Y-122916203D01*
X146324095Y-122751831D01*
X146388231Y-122596995D01*
X146481340Y-122457646D01*
X146599846Y-122339140D01*
X146739195Y-122246031D01*
X146894031Y-122181895D01*
X147058403Y-122149200D01*
X147225997Y-122149200D01*
X147390369Y-122181895D01*
X147390369Y-122181895D01*
G37*
G36*
X132602387Y-122148310D02*
X132762760Y-122196960D01*
X132762762Y-122196961D01*
X132910566Y-122275963D01*
X133040117Y-122382283D01*
X133146437Y-122511834D01*
X133225439Y-122659638D01*
X133225440Y-122659640D01*
X133274090Y-122820013D01*
X133290516Y-122986800D01*
X133274090Y-123153587D01*
X133225440Y-123313960D01*
X133225439Y-123313962D01*
X133146437Y-123461766D01*
X133040117Y-123591317D01*
X132910566Y-123697637D01*
X132762762Y-123776639D01*
X132762760Y-123776640D01*
X132602387Y-123825290D01*
X132477394Y-123837600D01*
X132393806Y-123837600D01*
X132268813Y-123825290D01*
X132108440Y-123776640D01*
X132108438Y-123776639D01*
X131960634Y-123697637D01*
X131831083Y-123591317D01*
X131724763Y-123461766D01*
X131645761Y-123313962D01*
X131645760Y-123313960D01*
X131597110Y-123153587D01*
X131580684Y-122986800D01*
X131597110Y-122820013D01*
X131645760Y-122659640D01*
X131645761Y-122659638D01*
X131724763Y-122511834D01*
X131831083Y-122382283D01*
X131960634Y-122275963D01*
X132108438Y-122196961D01*
X132108440Y-122196960D01*
X132268813Y-122148310D01*
X132393806Y-122136000D01*
X132477394Y-122136000D01*
X132602387Y-122148310D01*
X132602387Y-122148310D01*
G37*
G36*
X125063769Y-122168695D02*
X125218605Y-122232831D01*
X125357954Y-122325940D01*
X125476460Y-122444446D01*
X125569569Y-122583795D01*
X125633705Y-122738631D01*
X125666400Y-122903003D01*
X125666400Y-123070597D01*
X125633705Y-123234969D01*
X125569569Y-123389805D01*
X125476460Y-123529154D01*
X125357954Y-123647660D01*
X125218605Y-123740769D01*
X125063769Y-123804905D01*
X124899397Y-123837600D01*
X124731803Y-123837600D01*
X124567431Y-123804905D01*
X124412595Y-123740769D01*
X124273246Y-123647660D01*
X124154740Y-123529154D01*
X124061631Y-123389805D01*
X123997495Y-123234969D01*
X123964800Y-123070597D01*
X123964800Y-122903003D01*
X123997495Y-122738631D01*
X124061631Y-122583795D01*
X124154740Y-122444446D01*
X124273246Y-122325940D01*
X124412595Y-122232831D01*
X124567431Y-122168695D01*
X124731803Y-122136000D01*
X124899397Y-122136000D01*
X125063769Y-122168695D01*
X125063769Y-122168695D01*
G37*
G36*
X121202969Y-122168695D02*
X121357805Y-122232831D01*
X121497154Y-122325940D01*
X121615660Y-122444446D01*
X121708769Y-122583795D01*
X121772905Y-122738631D01*
X121805600Y-122903003D01*
X121805600Y-123070597D01*
X121772905Y-123234969D01*
X121708769Y-123389805D01*
X121615660Y-123529154D01*
X121497154Y-123647660D01*
X121357805Y-123740769D01*
X121202969Y-123804905D01*
X121038597Y-123837600D01*
X120871003Y-123837600D01*
X120706631Y-123804905D01*
X120551795Y-123740769D01*
X120412446Y-123647660D01*
X120293940Y-123529154D01*
X120200831Y-123389805D01*
X120136695Y-123234969D01*
X120104000Y-123070597D01*
X120104000Y-122903003D01*
X120136695Y-122738631D01*
X120200831Y-122583795D01*
X120293940Y-122444446D01*
X120412446Y-122325940D01*
X120551795Y-122232831D01*
X120706631Y-122168695D01*
X120871003Y-122136000D01*
X121038597Y-122136000D01*
X121202969Y-122168695D01*
X121202969Y-122168695D01*
G37*
G36*
X113501587Y-122148310D02*
X113661960Y-122196960D01*
X113661962Y-122196961D01*
X113809766Y-122275963D01*
X113939317Y-122382283D01*
X114045637Y-122511834D01*
X114124639Y-122659638D01*
X114124640Y-122659640D01*
X114173290Y-122820013D01*
X114189716Y-122986800D01*
X114173290Y-123153587D01*
X114124640Y-123313960D01*
X114124639Y-123313962D01*
X114045637Y-123461766D01*
X113939317Y-123591317D01*
X113809766Y-123697637D01*
X113661962Y-123776639D01*
X113661960Y-123776640D01*
X113501587Y-123825290D01*
X113376594Y-123837600D01*
X113293006Y-123837600D01*
X113168013Y-123825290D01*
X113007640Y-123776640D01*
X113007638Y-123776639D01*
X112859834Y-123697637D01*
X112730283Y-123591317D01*
X112623963Y-123461766D01*
X112544961Y-123313962D01*
X112544960Y-123313960D01*
X112496310Y-123153587D01*
X112479884Y-122986800D01*
X112496310Y-122820013D01*
X112544960Y-122659640D01*
X112544961Y-122659638D01*
X112623963Y-122511834D01*
X112730283Y-122382283D01*
X112859834Y-122275963D01*
X113007638Y-122196961D01*
X113007640Y-122196960D01*
X113168013Y-122148310D01*
X113293006Y-122136000D01*
X113376594Y-122136000D01*
X113501587Y-122148310D01*
X113501587Y-122148310D01*
G37*
G36*
X158363169Y-122143295D02*
X158518005Y-122207431D01*
X158657354Y-122300540D01*
X158775860Y-122419046D01*
X158868969Y-122558395D01*
X158933105Y-122713231D01*
X158965800Y-122877603D01*
X158965800Y-123045197D01*
X158933105Y-123209569D01*
X158868969Y-123364405D01*
X158775860Y-123503754D01*
X158657354Y-123622260D01*
X158518005Y-123715369D01*
X158363169Y-123779505D01*
X158198797Y-123812200D01*
X158031203Y-123812200D01*
X157866831Y-123779505D01*
X157711995Y-123715369D01*
X157572646Y-123622260D01*
X157454140Y-123503754D01*
X157361031Y-123364405D01*
X157296895Y-123209569D01*
X157264200Y-123045197D01*
X157264200Y-122877603D01*
X157296895Y-122713231D01*
X157361031Y-122558395D01*
X157454140Y-122419046D01*
X157572646Y-122300540D01*
X157711995Y-122207431D01*
X157866831Y-122143295D01*
X158031203Y-122110600D01*
X158198797Y-122110600D01*
X158363169Y-122143295D01*
X158363169Y-122143295D01*
G37*
G36*
X165901787Y-122122910D02*
X166062160Y-122171560D01*
X166062162Y-122171561D01*
X166209966Y-122250563D01*
X166339517Y-122356883D01*
X166445837Y-122486434D01*
X166511453Y-122609195D01*
X166524840Y-122634240D01*
X166573490Y-122794613D01*
X166589916Y-122961400D01*
X166573490Y-123128187D01*
X166524840Y-123288560D01*
X166524839Y-123288562D01*
X166445837Y-123436366D01*
X166339517Y-123565917D01*
X166209966Y-123672237D01*
X166081752Y-123740768D01*
X166062160Y-123751240D01*
X165901787Y-123799890D01*
X165776794Y-123812200D01*
X165693206Y-123812200D01*
X165568213Y-123799890D01*
X165407840Y-123751240D01*
X165388248Y-123740768D01*
X165260034Y-123672237D01*
X165130483Y-123565917D01*
X165024163Y-123436366D01*
X164945161Y-123288562D01*
X164945160Y-123288560D01*
X164896510Y-123128187D01*
X164880084Y-122961400D01*
X164896510Y-122794613D01*
X164945160Y-122634240D01*
X164958547Y-122609195D01*
X165024163Y-122486434D01*
X165130483Y-122356883D01*
X165260034Y-122250563D01*
X165407838Y-122171561D01*
X165407840Y-122171560D01*
X165568213Y-122122910D01*
X165693206Y-122110600D01*
X165776794Y-122110600D01*
X165901787Y-122122910D01*
X165901787Y-122122910D01*
G37*
G36*
X168904169Y-122117895D02*
X169059005Y-122182031D01*
X169198354Y-122275140D01*
X169316860Y-122393646D01*
X169409969Y-122532995D01*
X169474105Y-122687831D01*
X169506800Y-122852203D01*
X169506800Y-123019797D01*
X169474105Y-123184169D01*
X169409969Y-123339005D01*
X169316860Y-123478354D01*
X169198354Y-123596860D01*
X169059005Y-123689969D01*
X168904169Y-123754105D01*
X168739797Y-123786800D01*
X168572203Y-123786800D01*
X168407831Y-123754105D01*
X168252995Y-123689969D01*
X168113646Y-123596860D01*
X167995140Y-123478354D01*
X167902031Y-123339005D01*
X167837895Y-123184169D01*
X167805200Y-123019797D01*
X167805200Y-122852203D01*
X167837895Y-122687831D01*
X167902031Y-122532995D01*
X167995140Y-122393646D01*
X168113646Y-122275140D01*
X168252995Y-122182031D01*
X168407831Y-122117895D01*
X168572203Y-122085200D01*
X168739797Y-122085200D01*
X168904169Y-122117895D01*
X168904169Y-122117895D01*
G37*
G36*
X110738169Y-122117895D02*
X110893005Y-122182031D01*
X111032354Y-122275140D01*
X111150860Y-122393646D01*
X111243969Y-122532995D01*
X111308105Y-122687831D01*
X111340800Y-122852203D01*
X111340800Y-123019797D01*
X111308105Y-123184169D01*
X111243969Y-123339005D01*
X111150860Y-123478354D01*
X111032354Y-123596860D01*
X110893005Y-123689969D01*
X110738169Y-123754105D01*
X110573797Y-123786800D01*
X110406203Y-123786800D01*
X110241831Y-123754105D01*
X110086995Y-123689969D01*
X109947646Y-123596860D01*
X109829140Y-123478354D01*
X109736031Y-123339005D01*
X109671895Y-123184169D01*
X109639200Y-123019797D01*
X109639200Y-122852203D01*
X109671895Y-122687831D01*
X109736031Y-122532995D01*
X109829140Y-122393646D01*
X109947646Y-122275140D01*
X110086995Y-122182031D01*
X110241831Y-122117895D01*
X110406203Y-122085200D01*
X110573797Y-122085200D01*
X110738169Y-122117895D01*
X110738169Y-122117895D01*
G37*
G36*
X103036787Y-122097510D02*
X103197160Y-122146160D01*
X103197162Y-122146161D01*
X103344966Y-122225163D01*
X103474517Y-122331483D01*
X103580837Y-122461034D01*
X103621565Y-122537232D01*
X103659840Y-122608840D01*
X103708490Y-122769213D01*
X103724916Y-122936000D01*
X103708490Y-123102787D01*
X103659840Y-123263160D01*
X103659839Y-123263162D01*
X103580837Y-123410966D01*
X103474517Y-123540517D01*
X103344966Y-123646837D01*
X103225229Y-123710837D01*
X103197160Y-123725840D01*
X103036787Y-123774490D01*
X102911794Y-123786800D01*
X102828206Y-123786800D01*
X102703213Y-123774490D01*
X102542840Y-123725840D01*
X102514771Y-123710837D01*
X102395034Y-123646837D01*
X102265483Y-123540517D01*
X102159163Y-123410966D01*
X102080161Y-123263162D01*
X102080160Y-123263160D01*
X102031510Y-123102787D01*
X102015084Y-122936000D01*
X102031510Y-122769213D01*
X102080160Y-122608840D01*
X102118435Y-122537232D01*
X102159163Y-122461034D01*
X102265483Y-122331483D01*
X102395034Y-122225163D01*
X102542838Y-122146161D01*
X102542840Y-122146160D01*
X102703213Y-122097510D01*
X102828206Y-122085200D01*
X102911794Y-122085200D01*
X103036787Y-122097510D01*
X103036787Y-122097510D01*
G37*
G36*
X176442787Y-122097510D02*
X176603160Y-122146160D01*
X176603162Y-122146161D01*
X176750966Y-122225163D01*
X176880517Y-122331483D01*
X176986837Y-122461034D01*
X177027565Y-122537232D01*
X177065840Y-122608840D01*
X177114490Y-122769213D01*
X177130916Y-122936000D01*
X177114490Y-123102787D01*
X177065840Y-123263160D01*
X177065839Y-123263162D01*
X176986837Y-123410966D01*
X176880517Y-123540517D01*
X176750966Y-123646837D01*
X176631229Y-123710837D01*
X176603160Y-123725840D01*
X176442787Y-123774490D01*
X176317794Y-123786800D01*
X176234206Y-123786800D01*
X176109213Y-123774490D01*
X175948840Y-123725840D01*
X175920771Y-123710837D01*
X175801034Y-123646837D01*
X175671483Y-123540517D01*
X175565163Y-123410966D01*
X175486161Y-123263162D01*
X175486160Y-123263160D01*
X175437510Y-123102787D01*
X175421084Y-122936000D01*
X175437510Y-122769213D01*
X175486160Y-122608840D01*
X175524435Y-122537232D01*
X175565163Y-122461034D01*
X175671483Y-122331483D01*
X175801034Y-122225163D01*
X175948838Y-122146161D01*
X175948840Y-122146160D01*
X176109213Y-122097510D01*
X176234206Y-122085200D01*
X176317794Y-122085200D01*
X176442787Y-122097510D01*
X176442787Y-122097510D01*
G37*
G36*
X170277338Y-116855738D02*
X170450373Y-116927412D01*
X170606100Y-117031465D01*
X170738535Y-117163900D01*
X170842588Y-117319627D01*
X170914262Y-117492662D01*
X170950800Y-117676354D01*
X170950800Y-117863646D01*
X170914262Y-118047338D01*
X170842588Y-118220373D01*
X170738535Y-118376100D01*
X170606100Y-118508535D01*
X170450373Y-118612588D01*
X170277338Y-118684262D01*
X170093646Y-118720800D01*
X169906354Y-118720800D01*
X169722662Y-118684262D01*
X169549627Y-118612588D01*
X169393900Y-118508535D01*
X169261465Y-118376100D01*
X169157412Y-118220373D01*
X169085738Y-118047338D01*
X169049200Y-117863646D01*
X169049200Y-117676354D01*
X169085738Y-117492662D01*
X169157412Y-117319627D01*
X169261465Y-117163900D01*
X169393900Y-117031465D01*
X169549627Y-116927412D01*
X169722662Y-116855738D01*
X169906354Y-116819200D01*
X170093646Y-116819200D01*
X170277338Y-116855738D01*
X170277338Y-116855738D01*
G37*
G36*
X180277338Y-116855738D02*
X180450373Y-116927412D01*
X180606100Y-117031465D01*
X180738535Y-117163900D01*
X180842588Y-117319627D01*
X180914262Y-117492662D01*
X180950800Y-117676354D01*
X180950800Y-117863646D01*
X180914262Y-118047338D01*
X180842588Y-118220373D01*
X180738535Y-118376100D01*
X180606100Y-118508535D01*
X180450373Y-118612588D01*
X180277338Y-118684262D01*
X180093646Y-118720800D01*
X179906354Y-118720800D01*
X179722662Y-118684262D01*
X179549627Y-118612588D01*
X179393900Y-118508535D01*
X179261465Y-118376100D01*
X179157412Y-118220373D01*
X179085738Y-118047338D01*
X179049200Y-117863646D01*
X179049200Y-117676354D01*
X179085738Y-117492662D01*
X179157412Y-117319627D01*
X179261465Y-117163900D01*
X179393900Y-117031465D01*
X179549627Y-116927412D01*
X179722662Y-116855738D01*
X179906354Y-116819200D01*
X180093646Y-116819200D01*
X180277338Y-116855738D01*
X180277338Y-116855738D01*
G37*
G36*
X160277338Y-116855738D02*
X160450373Y-116927412D01*
X160606100Y-117031465D01*
X160738535Y-117163900D01*
X160842588Y-117319627D01*
X160914262Y-117492662D01*
X160950800Y-117676354D01*
X160950800Y-117863646D01*
X160914262Y-118047338D01*
X160842588Y-118220373D01*
X160738535Y-118376100D01*
X160606100Y-118508535D01*
X160450373Y-118612588D01*
X160277338Y-118684262D01*
X160093646Y-118720800D01*
X159906354Y-118720800D01*
X159722662Y-118684262D01*
X159549627Y-118612588D01*
X159393900Y-118508535D01*
X159261465Y-118376100D01*
X159157412Y-118220373D01*
X159085738Y-118047338D01*
X159049200Y-117863646D01*
X159049200Y-117676354D01*
X159085738Y-117492662D01*
X159157412Y-117319627D01*
X159261465Y-117163900D01*
X159393900Y-117031465D01*
X159549627Y-116927412D01*
X159722662Y-116855738D01*
X159906354Y-116819200D01*
X160093646Y-116819200D01*
X160277338Y-116855738D01*
X160277338Y-116855738D01*
G37*
G36*
X150277338Y-116855738D02*
X150450373Y-116927412D01*
X150606100Y-117031465D01*
X150738535Y-117163900D01*
X150842588Y-117319627D01*
X150914262Y-117492662D01*
X150950800Y-117676354D01*
X150950800Y-117863646D01*
X150914262Y-118047338D01*
X150842588Y-118220373D01*
X150738535Y-118376100D01*
X150606100Y-118508535D01*
X150450373Y-118612588D01*
X150277338Y-118684262D01*
X150093646Y-118720800D01*
X149906354Y-118720800D01*
X149722662Y-118684262D01*
X149549627Y-118612588D01*
X149393900Y-118508535D01*
X149261465Y-118376100D01*
X149157412Y-118220373D01*
X149085738Y-118047338D01*
X149049200Y-117863646D01*
X149049200Y-117676354D01*
X149085738Y-117492662D01*
X149157412Y-117319627D01*
X149261465Y-117163900D01*
X149393900Y-117031465D01*
X149549627Y-116927412D01*
X149722662Y-116855738D01*
X149906354Y-116819200D01*
X150093646Y-116819200D01*
X150277338Y-116855738D01*
X150277338Y-116855738D01*
G37*
G36*
X140277338Y-116855738D02*
X140450373Y-116927412D01*
X140606100Y-117031465D01*
X140738535Y-117163900D01*
X140842588Y-117319627D01*
X140914262Y-117492662D01*
X140950800Y-117676354D01*
X140950800Y-117863646D01*
X140914262Y-118047338D01*
X140842588Y-118220373D01*
X140738535Y-118376100D01*
X140606100Y-118508535D01*
X140450373Y-118612588D01*
X140277338Y-118684262D01*
X140093646Y-118720800D01*
X139906354Y-118720800D01*
X139722662Y-118684262D01*
X139549627Y-118612588D01*
X139393900Y-118508535D01*
X139261465Y-118376100D01*
X139157412Y-118220373D01*
X139085738Y-118047338D01*
X139049200Y-117863646D01*
X139049200Y-117676354D01*
X139085738Y-117492662D01*
X139157412Y-117319627D01*
X139261465Y-117163900D01*
X139393900Y-117031465D01*
X139549627Y-116927412D01*
X139722662Y-116855738D01*
X139906354Y-116819200D01*
X140093646Y-116819200D01*
X140277338Y-116855738D01*
X140277338Y-116855738D01*
G37*
G36*
X130277338Y-116855738D02*
X130450373Y-116927412D01*
X130606100Y-117031465D01*
X130738535Y-117163900D01*
X130842588Y-117319627D01*
X130914262Y-117492662D01*
X130950800Y-117676354D01*
X130950800Y-117863646D01*
X130914262Y-118047338D01*
X130842588Y-118220373D01*
X130738535Y-118376100D01*
X130606100Y-118508535D01*
X130450373Y-118612588D01*
X130277338Y-118684262D01*
X130093646Y-118720800D01*
X129906354Y-118720800D01*
X129722662Y-118684262D01*
X129549627Y-118612588D01*
X129393900Y-118508535D01*
X129261465Y-118376100D01*
X129157412Y-118220373D01*
X129085738Y-118047338D01*
X129049200Y-117863646D01*
X129049200Y-117676354D01*
X129085738Y-117492662D01*
X129157412Y-117319627D01*
X129261465Y-117163900D01*
X129393900Y-117031465D01*
X129549627Y-116927412D01*
X129722662Y-116855738D01*
X129906354Y-116819200D01*
X130093646Y-116819200D01*
X130277338Y-116855738D01*
X130277338Y-116855738D01*
G37*
G36*
X120277338Y-116855738D02*
X120450373Y-116927412D01*
X120606100Y-117031465D01*
X120738535Y-117163900D01*
X120842588Y-117319627D01*
X120914262Y-117492662D01*
X120950800Y-117676354D01*
X120950800Y-117863646D01*
X120914262Y-118047338D01*
X120842588Y-118220373D01*
X120738535Y-118376100D01*
X120606100Y-118508535D01*
X120450373Y-118612588D01*
X120277338Y-118684262D01*
X120093646Y-118720800D01*
X119906354Y-118720800D01*
X119722662Y-118684262D01*
X119549627Y-118612588D01*
X119393900Y-118508535D01*
X119261465Y-118376100D01*
X119157412Y-118220373D01*
X119085738Y-118047338D01*
X119049200Y-117863646D01*
X119049200Y-117676354D01*
X119085738Y-117492662D01*
X119157412Y-117319627D01*
X119261465Y-117163900D01*
X119393900Y-117031465D01*
X119549627Y-116927412D01*
X119722662Y-116855738D01*
X119906354Y-116819200D01*
X120093646Y-116819200D01*
X120277338Y-116855738D01*
X120277338Y-116855738D01*
G37*
G36*
X110277338Y-116855738D02*
X110450373Y-116927412D01*
X110606100Y-117031465D01*
X110738535Y-117163900D01*
X110842588Y-117319627D01*
X110914262Y-117492662D01*
X110950800Y-117676354D01*
X110950800Y-117863646D01*
X110914262Y-118047338D01*
X110842588Y-118220373D01*
X110738535Y-118376100D01*
X110606100Y-118508535D01*
X110450373Y-118612588D01*
X110277338Y-118684262D01*
X110093646Y-118720800D01*
X109906354Y-118720800D01*
X109722662Y-118684262D01*
X109549627Y-118612588D01*
X109393900Y-118508535D01*
X109261465Y-118376100D01*
X109157412Y-118220373D01*
X109085738Y-118047338D01*
X109049200Y-117863646D01*
X109049200Y-117676354D01*
X109085738Y-117492662D01*
X109157412Y-117319627D01*
X109261465Y-117163900D01*
X109393900Y-117031465D01*
X109549627Y-116927412D01*
X109722662Y-116855738D01*
X109906354Y-116819200D01*
X110093646Y-116819200D01*
X110277338Y-116855738D01*
X110277338Y-116855738D01*
G37*
G36*
X170277338Y-114315738D02*
X170450373Y-114387412D01*
X170606100Y-114491465D01*
X170738535Y-114623900D01*
X170842588Y-114779627D01*
X170914262Y-114952662D01*
X170950800Y-115136354D01*
X170950800Y-115323646D01*
X170914262Y-115507338D01*
X170842588Y-115680373D01*
X170738535Y-115836100D01*
X170606100Y-115968535D01*
X170450373Y-116072588D01*
X170277338Y-116144262D01*
X170093646Y-116180800D01*
X169906354Y-116180800D01*
X169722662Y-116144262D01*
X169549627Y-116072588D01*
X169393900Y-115968535D01*
X169261465Y-115836100D01*
X169157412Y-115680373D01*
X169085738Y-115507338D01*
X169049200Y-115323646D01*
X169049200Y-115136354D01*
X169085738Y-114952662D01*
X169157412Y-114779627D01*
X169261465Y-114623900D01*
X169393900Y-114491465D01*
X169549627Y-114387412D01*
X169722662Y-114315738D01*
X169906354Y-114279200D01*
X170093646Y-114279200D01*
X170277338Y-114315738D01*
X170277338Y-114315738D01*
G37*
G36*
X120277338Y-114315738D02*
X120450373Y-114387412D01*
X120606100Y-114491465D01*
X120738535Y-114623900D01*
X120842588Y-114779627D01*
X120914262Y-114952662D01*
X120950800Y-115136354D01*
X120950800Y-115323646D01*
X120914262Y-115507338D01*
X120842588Y-115680373D01*
X120738535Y-115836100D01*
X120606100Y-115968535D01*
X120450373Y-116072588D01*
X120277338Y-116144262D01*
X120093646Y-116180800D01*
X119906354Y-116180800D01*
X119722662Y-116144262D01*
X119549627Y-116072588D01*
X119393900Y-115968535D01*
X119261465Y-115836100D01*
X119157412Y-115680373D01*
X119085738Y-115507338D01*
X119049200Y-115323646D01*
X119049200Y-115136354D01*
X119085738Y-114952662D01*
X119157412Y-114779627D01*
X119261465Y-114623900D01*
X119393900Y-114491465D01*
X119549627Y-114387412D01*
X119722662Y-114315738D01*
X119906354Y-114279200D01*
X120093646Y-114279200D01*
X120277338Y-114315738D01*
X120277338Y-114315738D01*
G37*
G36*
X110277338Y-114315738D02*
X110450373Y-114387412D01*
X110606100Y-114491465D01*
X110738535Y-114623900D01*
X110842588Y-114779627D01*
X110914262Y-114952662D01*
X110950800Y-115136354D01*
X110950800Y-115323646D01*
X110914262Y-115507338D01*
X110842588Y-115680373D01*
X110738535Y-115836100D01*
X110606100Y-115968535D01*
X110450373Y-116072588D01*
X110277338Y-116144262D01*
X110093646Y-116180800D01*
X109906354Y-116180800D01*
X109722662Y-116144262D01*
X109549627Y-116072588D01*
X109393900Y-115968535D01*
X109261465Y-115836100D01*
X109157412Y-115680373D01*
X109085738Y-115507338D01*
X109049200Y-115323646D01*
X109049200Y-115136354D01*
X109085738Y-114952662D01*
X109157412Y-114779627D01*
X109261465Y-114623900D01*
X109393900Y-114491465D01*
X109549627Y-114387412D01*
X109722662Y-114315738D01*
X109906354Y-114279200D01*
X110093646Y-114279200D01*
X110277338Y-114315738D01*
X110277338Y-114315738D01*
G37*
G36*
X130277338Y-114315738D02*
X130450373Y-114387412D01*
X130606100Y-114491465D01*
X130738535Y-114623900D01*
X130842588Y-114779627D01*
X130914262Y-114952662D01*
X130950800Y-115136354D01*
X130950800Y-115323646D01*
X130914262Y-115507338D01*
X130842588Y-115680373D01*
X130738535Y-115836100D01*
X130606100Y-115968535D01*
X130450373Y-116072588D01*
X130277338Y-116144262D01*
X130093646Y-116180800D01*
X129906354Y-116180800D01*
X129722662Y-116144262D01*
X129549627Y-116072588D01*
X129393900Y-115968535D01*
X129261465Y-115836100D01*
X129157412Y-115680373D01*
X129085738Y-115507338D01*
X129049200Y-115323646D01*
X129049200Y-115136354D01*
X129085738Y-114952662D01*
X129157412Y-114779627D01*
X129261465Y-114623900D01*
X129393900Y-114491465D01*
X129549627Y-114387412D01*
X129722662Y-114315738D01*
X129906354Y-114279200D01*
X130093646Y-114279200D01*
X130277338Y-114315738D01*
X130277338Y-114315738D01*
G37*
G36*
X140277338Y-114315738D02*
X140450373Y-114387412D01*
X140606100Y-114491465D01*
X140738535Y-114623900D01*
X140842588Y-114779627D01*
X140914262Y-114952662D01*
X140950800Y-115136354D01*
X140950800Y-115323646D01*
X140914262Y-115507338D01*
X140842588Y-115680373D01*
X140738535Y-115836100D01*
X140606100Y-115968535D01*
X140450373Y-116072588D01*
X140277338Y-116144262D01*
X140093646Y-116180800D01*
X139906354Y-116180800D01*
X139722662Y-116144262D01*
X139549627Y-116072588D01*
X139393900Y-115968535D01*
X139261465Y-115836100D01*
X139157412Y-115680373D01*
X139085738Y-115507338D01*
X139049200Y-115323646D01*
X139049200Y-115136354D01*
X139085738Y-114952662D01*
X139157412Y-114779627D01*
X139261465Y-114623900D01*
X139393900Y-114491465D01*
X139549627Y-114387412D01*
X139722662Y-114315738D01*
X139906354Y-114279200D01*
X140093646Y-114279200D01*
X140277338Y-114315738D01*
X140277338Y-114315738D01*
G37*
G36*
X150277338Y-114315738D02*
X150450373Y-114387412D01*
X150606100Y-114491465D01*
X150738535Y-114623900D01*
X150842588Y-114779627D01*
X150914262Y-114952662D01*
X150950800Y-115136354D01*
X150950800Y-115323646D01*
X150914262Y-115507338D01*
X150842588Y-115680373D01*
X150738535Y-115836100D01*
X150606100Y-115968535D01*
X150450373Y-116072588D01*
X150277338Y-116144262D01*
X150093646Y-116180800D01*
X149906354Y-116180800D01*
X149722662Y-116144262D01*
X149549627Y-116072588D01*
X149393900Y-115968535D01*
X149261465Y-115836100D01*
X149157412Y-115680373D01*
X149085738Y-115507338D01*
X149049200Y-115323646D01*
X149049200Y-115136354D01*
X149085738Y-114952662D01*
X149157412Y-114779627D01*
X149261465Y-114623900D01*
X149393900Y-114491465D01*
X149549627Y-114387412D01*
X149722662Y-114315738D01*
X149906354Y-114279200D01*
X150093646Y-114279200D01*
X150277338Y-114315738D01*
X150277338Y-114315738D01*
G37*
G36*
X160277338Y-114315738D02*
X160450373Y-114387412D01*
X160606100Y-114491465D01*
X160738535Y-114623900D01*
X160842588Y-114779627D01*
X160914262Y-114952662D01*
X160950800Y-115136354D01*
X160950800Y-115323646D01*
X160914262Y-115507338D01*
X160842588Y-115680373D01*
X160738535Y-115836100D01*
X160606100Y-115968535D01*
X160450373Y-116072588D01*
X160277338Y-116144262D01*
X160093646Y-116180800D01*
X159906354Y-116180800D01*
X159722662Y-116144262D01*
X159549627Y-116072588D01*
X159393900Y-115968535D01*
X159261465Y-115836100D01*
X159157412Y-115680373D01*
X159085738Y-115507338D01*
X159049200Y-115323646D01*
X159049200Y-115136354D01*
X159085738Y-114952662D01*
X159157412Y-114779627D01*
X159261465Y-114623900D01*
X159393900Y-114491465D01*
X159549627Y-114387412D01*
X159722662Y-114315738D01*
X159906354Y-114279200D01*
X160093646Y-114279200D01*
X160277338Y-114315738D01*
X160277338Y-114315738D01*
G37*
G36*
X180277338Y-114315738D02*
X180450373Y-114387412D01*
X180606100Y-114491465D01*
X180738535Y-114623900D01*
X180842588Y-114779627D01*
X180914262Y-114952662D01*
X180950800Y-115136354D01*
X180950800Y-115323646D01*
X180914262Y-115507338D01*
X180842588Y-115680373D01*
X180738535Y-115836100D01*
X180606100Y-115968535D01*
X180450373Y-116072588D01*
X180277338Y-116144262D01*
X180093646Y-116180800D01*
X179906354Y-116180800D01*
X179722662Y-116144262D01*
X179549627Y-116072588D01*
X179393900Y-115968535D01*
X179261465Y-115836100D01*
X179157412Y-115680373D01*
X179085738Y-115507338D01*
X179049200Y-115323646D01*
X179049200Y-115136354D01*
X179085738Y-114952662D01*
X179157412Y-114779627D01*
X179261465Y-114623900D01*
X179393900Y-114491465D01*
X179549627Y-114387412D01*
X179722662Y-114315738D01*
X179906354Y-114279200D01*
X180093646Y-114279200D01*
X180277338Y-114315738D01*
X180277338Y-114315738D01*
G37*
G36*
X187540722Y-109320660D02*
X187722855Y-109396102D01*
X187722856Y-109396103D01*
X187886773Y-109505628D01*
X188026172Y-109645027D01*
X188052950Y-109685104D01*
X188135698Y-109808945D01*
X188211140Y-109991078D01*
X188249600Y-110184428D01*
X188249600Y-110381572D01*
X188211140Y-110574922D01*
X188135698Y-110757055D01*
X188135697Y-110757056D01*
X188026172Y-110920973D01*
X187886773Y-111060372D01*
X187777495Y-111133389D01*
X187722855Y-111169898D01*
X187540722Y-111245340D01*
X187347372Y-111283800D01*
X187150228Y-111283800D01*
X186956878Y-111245340D01*
X186774745Y-111169898D01*
X186720105Y-111133389D01*
X186610827Y-111060372D01*
X186471428Y-110920973D01*
X186361903Y-110757056D01*
X186361902Y-110757055D01*
X186286460Y-110574922D01*
X186248000Y-110381572D01*
X186248000Y-110184428D01*
X186286460Y-109991078D01*
X186361902Y-109808945D01*
X186444650Y-109685104D01*
X186471428Y-109645027D01*
X186610827Y-109505628D01*
X186774744Y-109396103D01*
X186774745Y-109396102D01*
X186956878Y-109320660D01*
X187150228Y-109282200D01*
X187347372Y-109282200D01*
X187540722Y-109320660D01*
X187540722Y-109320660D01*
G37*
G36*
X120426712Y-108263564D02*
X120588498Y-108330578D01*
X120734107Y-108427871D01*
X120857929Y-108551693D01*
X120955222Y-108697302D01*
X121022236Y-108859088D01*
X121056400Y-109030841D01*
X121056400Y-109205959D01*
X121022236Y-109377712D01*
X120955222Y-109539498D01*
X120857929Y-109685107D01*
X120734107Y-109808929D01*
X120588498Y-109906222D01*
X120438387Y-109968400D01*
X120426712Y-109973236D01*
X120254959Y-110007400D01*
X120079841Y-110007400D01*
X119908088Y-109973236D01*
X119896413Y-109968400D01*
X119746302Y-109906222D01*
X119600693Y-109808929D01*
X119476871Y-109685107D01*
X119379578Y-109539498D01*
X119312564Y-109377712D01*
X119278400Y-109205959D01*
X119278400Y-109030841D01*
X119312564Y-108859088D01*
X119379578Y-108697302D01*
X119476871Y-108551693D01*
X119600693Y-108427871D01*
X119746302Y-108330578D01*
X119908088Y-108263564D01*
X120079841Y-108229400D01*
X120254959Y-108229400D01*
X120426712Y-108263564D01*
X120426712Y-108263564D01*
G37*
G36*
X122966712Y-108263564D02*
X123128498Y-108330578D01*
X123274107Y-108427871D01*
X123397929Y-108551693D01*
X123495222Y-108697302D01*
X123562236Y-108859088D01*
X123596400Y-109030841D01*
X123596400Y-109205959D01*
X123562236Y-109377712D01*
X123495222Y-109539498D01*
X123397929Y-109685107D01*
X123274107Y-109808929D01*
X123128498Y-109906222D01*
X122966712Y-109973236D01*
X122794959Y-110007400D01*
X122619841Y-110007400D01*
X122448088Y-109973236D01*
X122286302Y-109906222D01*
X122140693Y-109808929D01*
X122016871Y-109685107D01*
X121919578Y-109539498D01*
X121852564Y-109377712D01*
X121818400Y-109205959D01*
X121818400Y-109030841D01*
X121852564Y-108859088D01*
X121919578Y-108697302D01*
X122016871Y-108551693D01*
X122140693Y-108427871D01*
X122286302Y-108330578D01*
X122448088Y-108263564D01*
X122619841Y-108229400D01*
X122794959Y-108229400D01*
X122966712Y-108263564D01*
X122966712Y-108263564D01*
G37*
G36*
X117886712Y-108263564D02*
X118048498Y-108330578D01*
X118194107Y-108427871D01*
X118317929Y-108551693D01*
X118415222Y-108697302D01*
X118482236Y-108859088D01*
X118516400Y-109030841D01*
X118516400Y-109205959D01*
X118482236Y-109377712D01*
X118415222Y-109539498D01*
X118317929Y-109685107D01*
X118194107Y-109808929D01*
X118048498Y-109906222D01*
X117886712Y-109973236D01*
X117714959Y-110007400D01*
X117539841Y-110007400D01*
X117368088Y-109973236D01*
X117206302Y-109906222D01*
X117060693Y-109808929D01*
X116936871Y-109685107D01*
X116839578Y-109539498D01*
X116772564Y-109377712D01*
X116738400Y-109205959D01*
X116738400Y-109030841D01*
X116772564Y-108859088D01*
X116839578Y-108697302D01*
X116936871Y-108551693D01*
X117060693Y-108427871D01*
X117206302Y-108330578D01*
X117368088Y-108263564D01*
X117539841Y-108229400D01*
X117714959Y-108229400D01*
X117886712Y-108263564D01*
X117886712Y-108263564D01*
G37*
G36*
X115346712Y-108263564D02*
X115508498Y-108330578D01*
X115654107Y-108427871D01*
X115777929Y-108551693D01*
X115875222Y-108697302D01*
X115942236Y-108859088D01*
X115976400Y-109030841D01*
X115976400Y-109205959D01*
X115942236Y-109377712D01*
X115875222Y-109539498D01*
X115777929Y-109685107D01*
X115654107Y-109808929D01*
X115508498Y-109906222D01*
X115346712Y-109973236D01*
X115174959Y-110007400D01*
X114999841Y-110007400D01*
X114828088Y-109973236D01*
X114666302Y-109906222D01*
X114520693Y-109808929D01*
X114396871Y-109685107D01*
X114299578Y-109539498D01*
X114232564Y-109377712D01*
X114198400Y-109205959D01*
X114198400Y-109030841D01*
X114232564Y-108859088D01*
X114299578Y-108697302D01*
X114396871Y-108551693D01*
X114520693Y-108427871D01*
X114666302Y-108330578D01*
X114828088Y-108263564D01*
X114999841Y-108229400D01*
X115174959Y-108229400D01*
X115346712Y-108263564D01*
X115346712Y-108263564D01*
G37*
G36*
X105816400Y-110007400D02*
X104038400Y-110007400D01*
X104038400Y-108229400D01*
X105816400Y-108229400D01*
X105816400Y-110007400D01*
X105816400Y-110007400D01*
G37*
G36*
X107726712Y-108263564D02*
X107888498Y-108330578D01*
X108034107Y-108427871D01*
X108157929Y-108551693D01*
X108255222Y-108697302D01*
X108322236Y-108859088D01*
X108356400Y-109030841D01*
X108356400Y-109205959D01*
X108322236Y-109377712D01*
X108255222Y-109539498D01*
X108157929Y-109685107D01*
X108034107Y-109808929D01*
X107888498Y-109906222D01*
X107726712Y-109973236D01*
X107554959Y-110007400D01*
X107379841Y-110007400D01*
X107208088Y-109973236D01*
X107046302Y-109906222D01*
X106900693Y-109808929D01*
X106776871Y-109685107D01*
X106679578Y-109539498D01*
X106612564Y-109377712D01*
X106578400Y-109205959D01*
X106578400Y-109030841D01*
X106612564Y-108859088D01*
X106679578Y-108697302D01*
X106776871Y-108551693D01*
X106900693Y-108427871D01*
X107046302Y-108330578D01*
X107208088Y-108263564D01*
X107379841Y-108229400D01*
X107554959Y-108229400D01*
X107726712Y-108263564D01*
X107726712Y-108263564D01*
G37*
G36*
X110266712Y-108263564D02*
X110428498Y-108330578D01*
X110574107Y-108427871D01*
X110697929Y-108551693D01*
X110795222Y-108697302D01*
X110862236Y-108859088D01*
X110896400Y-109030841D01*
X110896400Y-109205959D01*
X110862236Y-109377712D01*
X110795222Y-109539498D01*
X110697929Y-109685107D01*
X110574107Y-109808929D01*
X110428498Y-109906222D01*
X110266712Y-109973236D01*
X110094959Y-110007400D01*
X109919841Y-110007400D01*
X109748088Y-109973236D01*
X109586302Y-109906222D01*
X109440693Y-109808929D01*
X109316871Y-109685107D01*
X109219578Y-109539498D01*
X109152564Y-109377712D01*
X109118400Y-109205959D01*
X109118400Y-109030841D01*
X109152564Y-108859088D01*
X109219578Y-108697302D01*
X109316871Y-108551693D01*
X109440693Y-108427871D01*
X109586302Y-108330578D01*
X109748088Y-108263564D01*
X109919841Y-108229400D01*
X110094959Y-108229400D01*
X110266712Y-108263564D01*
X110266712Y-108263564D01*
G37*
G36*
X112806712Y-108263564D02*
X112968498Y-108330578D01*
X113114107Y-108427871D01*
X113237929Y-108551693D01*
X113335222Y-108697302D01*
X113402236Y-108859088D01*
X113436400Y-109030841D01*
X113436400Y-109205959D01*
X113402236Y-109377712D01*
X113335222Y-109539498D01*
X113237929Y-109685107D01*
X113114107Y-109808929D01*
X112968498Y-109906222D01*
X112806712Y-109973236D01*
X112634959Y-110007400D01*
X112459841Y-110007400D01*
X112288088Y-109973236D01*
X112126302Y-109906222D01*
X111980693Y-109808929D01*
X111856871Y-109685107D01*
X111759578Y-109539498D01*
X111692564Y-109377712D01*
X111658400Y-109205959D01*
X111658400Y-109030841D01*
X111692564Y-108859088D01*
X111759578Y-108697302D01*
X111856871Y-108551693D01*
X111980693Y-108427871D01*
X112126302Y-108330578D01*
X112288088Y-108263564D01*
X112459841Y-108229400D01*
X112634959Y-108229400D01*
X112806712Y-108263564D01*
X112806712Y-108263564D01*
G37*
G36*
X182460000Y-109968400D02*
X180658400Y-109968400D01*
X180658400Y-108166800D01*
X182460000Y-108166800D01*
X182460000Y-109968400D01*
X182460000Y-109968400D01*
G37*
G36*
X187540722Y-106820660D02*
X187722855Y-106896102D01*
X187722856Y-106896103D01*
X187886773Y-107005628D01*
X188026172Y-107145027D01*
X188041283Y-107167643D01*
X188135698Y-107308945D01*
X188211140Y-107491078D01*
X188249600Y-107684428D01*
X188249600Y-107881572D01*
X188211140Y-108074922D01*
X188135698Y-108257055D01*
X188135697Y-108257056D01*
X188026172Y-108420973D01*
X187886773Y-108560372D01*
X187777495Y-108633389D01*
X187722855Y-108669898D01*
X187540722Y-108745340D01*
X187347372Y-108783800D01*
X187150228Y-108783800D01*
X186956878Y-108745340D01*
X186774745Y-108669898D01*
X186720105Y-108633389D01*
X186610827Y-108560372D01*
X186471428Y-108420973D01*
X186361903Y-108257056D01*
X186361902Y-108257055D01*
X186286460Y-108074922D01*
X186248000Y-107881572D01*
X186248000Y-107684428D01*
X186286460Y-107491078D01*
X186361902Y-107308945D01*
X186456317Y-107167643D01*
X186471428Y-107145027D01*
X186610827Y-107005628D01*
X186774744Y-106896103D01*
X186774745Y-106896102D01*
X186956878Y-106820660D01*
X187150228Y-106782200D01*
X187347372Y-106782200D01*
X187540722Y-106820660D01*
X187540722Y-106820660D01*
G37*
G36*
X181647562Y-105631145D02*
X181735788Y-105639834D01*
X181848989Y-105674173D01*
X181905590Y-105691343D01*
X182044180Y-105765422D01*
X182062079Y-105774989D01*
X182097809Y-105804312D01*
X182199244Y-105887556D01*
X182253936Y-105954200D01*
X182311811Y-106024721D01*
X182311812Y-106024723D01*
X182395457Y-106181210D01*
X182406413Y-106217329D01*
X182446966Y-106351012D01*
X182464358Y-106527600D01*
X182446966Y-106704188D01*
X182432618Y-106751485D01*
X182395457Y-106873990D01*
X182383637Y-106896103D01*
X182311811Y-107030479D01*
X182282488Y-107066209D01*
X182199244Y-107167644D01*
X182106490Y-107243764D01*
X182062079Y-107280211D01*
X182062077Y-107280212D01*
X181905590Y-107363857D01*
X181859266Y-107377909D01*
X181735788Y-107415366D01*
X181647562Y-107424055D01*
X181603450Y-107428400D01*
X181514950Y-107428400D01*
X181470838Y-107424055D01*
X181382612Y-107415366D01*
X181259134Y-107377909D01*
X181212810Y-107363857D01*
X181056323Y-107280212D01*
X181056321Y-107280211D01*
X181011910Y-107243764D01*
X180919156Y-107167644D01*
X180835912Y-107066209D01*
X180806589Y-107030479D01*
X180734763Y-106896103D01*
X180722943Y-106873990D01*
X180685782Y-106751485D01*
X180671434Y-106704188D01*
X180654042Y-106527600D01*
X180671434Y-106351012D01*
X180711987Y-106217329D01*
X180722943Y-106181210D01*
X180806588Y-106024723D01*
X180806589Y-106024721D01*
X180864464Y-105954200D01*
X180919156Y-105887556D01*
X181020591Y-105804312D01*
X181056321Y-105774989D01*
X181074220Y-105765422D01*
X181212810Y-105691343D01*
X181269411Y-105674173D01*
X181382612Y-105639834D01*
X181470838Y-105631145D01*
X181514950Y-105626800D01*
X181603450Y-105626800D01*
X181647562Y-105631145D01*
X181647562Y-105631145D01*
G37*
G36*
X155786705Y-105982091D02*
X155786707Y-105982092D01*
X155786708Y-105982092D01*
X155918795Y-106036804D01*
X155918796Y-106036805D01*
X156037674Y-106116236D01*
X156138764Y-106217326D01*
X156138766Y-106217329D01*
X156218196Y-106336205D01*
X156224329Y-106351012D01*
X156272909Y-106468295D01*
X156300800Y-106608513D01*
X156300800Y-106751487D01*
X156276433Y-106873990D01*
X156272908Y-106891708D01*
X156218196Y-107023795D01*
X156218195Y-107023796D01*
X156138764Y-107142674D01*
X156037674Y-107243764D01*
X156037671Y-107243766D01*
X155918795Y-107323196D01*
X155786708Y-107377908D01*
X155786707Y-107377908D01*
X155786705Y-107377909D01*
X155646487Y-107405800D01*
X155503513Y-107405800D01*
X155363295Y-107377909D01*
X155363293Y-107377908D01*
X155363292Y-107377908D01*
X155231205Y-107323196D01*
X155112329Y-107243766D01*
X155112326Y-107243764D01*
X155011236Y-107142674D01*
X154931805Y-107023796D01*
X154931804Y-107023795D01*
X154877092Y-106891708D01*
X154873568Y-106873990D01*
X154849200Y-106751487D01*
X154849200Y-106608513D01*
X154877091Y-106468295D01*
X154925671Y-106351012D01*
X154931804Y-106336205D01*
X155011234Y-106217329D01*
X155011236Y-106217326D01*
X155112326Y-106116236D01*
X155231204Y-106036805D01*
X155231205Y-106036804D01*
X155363292Y-105982092D01*
X155363293Y-105982092D01*
X155363295Y-105982091D01*
X155503513Y-105954200D01*
X155646487Y-105954200D01*
X155786705Y-105982091D01*
X155786705Y-105982091D01*
G37*
G36*
X148166705Y-105982091D02*
X148166707Y-105982092D01*
X148166708Y-105982092D01*
X148298795Y-106036804D01*
X148298796Y-106036805D01*
X148417674Y-106116236D01*
X148518764Y-106217326D01*
X148518766Y-106217329D01*
X148598196Y-106336205D01*
X148604329Y-106351012D01*
X148652909Y-106468295D01*
X148680800Y-106608513D01*
X148680800Y-106751487D01*
X148656433Y-106873990D01*
X148652908Y-106891708D01*
X148598196Y-107023795D01*
X148598195Y-107023796D01*
X148518764Y-107142674D01*
X148417674Y-107243764D01*
X148417671Y-107243766D01*
X148298795Y-107323196D01*
X148166708Y-107377908D01*
X148166707Y-107377908D01*
X148166705Y-107377909D01*
X148026487Y-107405800D01*
X147883513Y-107405800D01*
X147743295Y-107377909D01*
X147743293Y-107377908D01*
X147743292Y-107377908D01*
X147611205Y-107323196D01*
X147492329Y-107243766D01*
X147492326Y-107243764D01*
X147391236Y-107142674D01*
X147311805Y-107023796D01*
X147311804Y-107023795D01*
X147257092Y-106891708D01*
X147253568Y-106873990D01*
X147229200Y-106751487D01*
X147229200Y-106608513D01*
X147257091Y-106468295D01*
X147305671Y-106351012D01*
X147311804Y-106336205D01*
X147391234Y-106217329D01*
X147391236Y-106217326D01*
X147492326Y-106116236D01*
X147611204Y-106036805D01*
X147611205Y-106036804D01*
X147743292Y-105982092D01*
X147743293Y-105982092D01*
X147743295Y-105982091D01*
X147883513Y-105954200D01*
X148026487Y-105954200D01*
X148166705Y-105982091D01*
X148166705Y-105982091D01*
G37*
G36*
X188249600Y-106283800D02*
X186248000Y-106283800D01*
X186248000Y-104282200D01*
X188249600Y-104282200D01*
X188249600Y-106283800D01*
X188249600Y-106283800D01*
G37*
G36*
X181647562Y-103091145D02*
X181735788Y-103099834D01*
X181848989Y-103134173D01*
X181905590Y-103151343D01*
X182044180Y-103225422D01*
X182062079Y-103234989D01*
X182097809Y-103264312D01*
X182199244Y-103347556D01*
X182253936Y-103414200D01*
X182311811Y-103484721D01*
X182311812Y-103484723D01*
X182395457Y-103641210D01*
X182406413Y-103677329D01*
X182446966Y-103811012D01*
X182464358Y-103987600D01*
X182446966Y-104164188D01*
X182432618Y-104211485D01*
X182395457Y-104333990D01*
X182385988Y-104351705D01*
X182311811Y-104490479D01*
X182282488Y-104526209D01*
X182199244Y-104627644D01*
X182106490Y-104703764D01*
X182062079Y-104740211D01*
X182062077Y-104740212D01*
X181905590Y-104823857D01*
X181859266Y-104837909D01*
X181735788Y-104875366D01*
X181647562Y-104884055D01*
X181603450Y-104888400D01*
X181514950Y-104888400D01*
X181470838Y-104884055D01*
X181382612Y-104875366D01*
X181259134Y-104837909D01*
X181212810Y-104823857D01*
X181056323Y-104740212D01*
X181056321Y-104740211D01*
X181011910Y-104703764D01*
X180919156Y-104627644D01*
X180835912Y-104526209D01*
X180806589Y-104490479D01*
X180732412Y-104351705D01*
X180722943Y-104333990D01*
X180685782Y-104211485D01*
X180671434Y-104164188D01*
X180654042Y-103987600D01*
X180671434Y-103811012D01*
X180711987Y-103677329D01*
X180722943Y-103641210D01*
X180806588Y-103484723D01*
X180806589Y-103484721D01*
X180864464Y-103414200D01*
X180919156Y-103347556D01*
X181020591Y-103264312D01*
X181056321Y-103234989D01*
X181074220Y-103225422D01*
X181212810Y-103151343D01*
X181269411Y-103134173D01*
X181382612Y-103099834D01*
X181470838Y-103091145D01*
X181514950Y-103086800D01*
X181603450Y-103086800D01*
X181647562Y-103091145D01*
X181647562Y-103091145D01*
G37*
G36*
X148166705Y-103442091D02*
X148166707Y-103442092D01*
X148166708Y-103442092D01*
X148298795Y-103496804D01*
X148298796Y-103496805D01*
X148417674Y-103576236D01*
X148518764Y-103677326D01*
X148518766Y-103677329D01*
X148598196Y-103796205D01*
X148604329Y-103811012D01*
X148652909Y-103928295D01*
X148680800Y-104068513D01*
X148680800Y-104211487D01*
X148656433Y-104333990D01*
X148652908Y-104351708D01*
X148598196Y-104483795D01*
X148598195Y-104483796D01*
X148518764Y-104602674D01*
X148417674Y-104703764D01*
X148417671Y-104703766D01*
X148298795Y-104783196D01*
X148166708Y-104837908D01*
X148166707Y-104837908D01*
X148166705Y-104837909D01*
X148026487Y-104865800D01*
X147883513Y-104865800D01*
X147743295Y-104837909D01*
X147743293Y-104837908D01*
X147743292Y-104837908D01*
X147611205Y-104783196D01*
X147492329Y-104703766D01*
X147492326Y-104703764D01*
X147391236Y-104602674D01*
X147311805Y-104483796D01*
X147311804Y-104483795D01*
X147257092Y-104351708D01*
X147253568Y-104333990D01*
X147229200Y-104211487D01*
X147229200Y-104068513D01*
X147257091Y-103928295D01*
X147305671Y-103811012D01*
X147311804Y-103796205D01*
X147391234Y-103677329D01*
X147391236Y-103677326D01*
X147492326Y-103576236D01*
X147611204Y-103496805D01*
X147611205Y-103496804D01*
X147743292Y-103442092D01*
X147743293Y-103442092D01*
X147743295Y-103442091D01*
X147883513Y-103414200D01*
X148026487Y-103414200D01*
X148166705Y-103442091D01*
X148166705Y-103442091D01*
G37*
G36*
X155786705Y-103442091D02*
X155786707Y-103442092D01*
X155786708Y-103442092D01*
X155918795Y-103496804D01*
X155918796Y-103496805D01*
X156037674Y-103576236D01*
X156138764Y-103677326D01*
X156138766Y-103677329D01*
X156218196Y-103796205D01*
X156224329Y-103811012D01*
X156272909Y-103928295D01*
X156300800Y-104068513D01*
X156300800Y-104211487D01*
X156276433Y-104333990D01*
X156272908Y-104351708D01*
X156218196Y-104483795D01*
X156218195Y-104483796D01*
X156138764Y-104602674D01*
X156037674Y-104703764D01*
X156037671Y-104703766D01*
X155918795Y-104783196D01*
X155786708Y-104837908D01*
X155786707Y-104837908D01*
X155786705Y-104837909D01*
X155646487Y-104865800D01*
X155503513Y-104865800D01*
X155363295Y-104837909D01*
X155363293Y-104837908D01*
X155363292Y-104837908D01*
X155231205Y-104783196D01*
X155112329Y-104703766D01*
X155112326Y-104703764D01*
X155011236Y-104602674D01*
X154931805Y-104483796D01*
X154931804Y-104483795D01*
X154877092Y-104351708D01*
X154873568Y-104333990D01*
X154849200Y-104211487D01*
X154849200Y-104068513D01*
X154877091Y-103928295D01*
X154925671Y-103811012D01*
X154931804Y-103796205D01*
X155011234Y-103677329D01*
X155011236Y-103677326D01*
X155112326Y-103576236D01*
X155231204Y-103496805D01*
X155231205Y-103496804D01*
X155363292Y-103442092D01*
X155363293Y-103442092D01*
X155363295Y-103442091D01*
X155503513Y-103414200D01*
X155646487Y-103414200D01*
X155786705Y-103442091D01*
X155786705Y-103442091D01*
G37*
G36*
X162223400Y-102772800D02*
X160813800Y-102772800D01*
X160813800Y-101363200D01*
X162223400Y-101363200D01*
X162223400Y-102772800D01*
X162223400Y-102772800D01*
G37*
G36*
X115346712Y-100643564D02*
X115508498Y-100710578D01*
X115654107Y-100807871D01*
X115777929Y-100931693D01*
X115875222Y-101077302D01*
X115942236Y-101239088D01*
X115976400Y-101410841D01*
X115976400Y-101585959D01*
X115942236Y-101757712D01*
X115875222Y-101919498D01*
X115777929Y-102065107D01*
X115654107Y-102188929D01*
X115508498Y-102286222D01*
X115346712Y-102353236D01*
X115174959Y-102387400D01*
X114999841Y-102387400D01*
X114828088Y-102353236D01*
X114666302Y-102286222D01*
X114520693Y-102188929D01*
X114396871Y-102065107D01*
X114299578Y-101919498D01*
X114232564Y-101757712D01*
X114198400Y-101585959D01*
X114198400Y-101410841D01*
X114232564Y-101239088D01*
X114299578Y-101077302D01*
X114396871Y-100931693D01*
X114520693Y-100807871D01*
X114666302Y-100710578D01*
X114828088Y-100643564D01*
X114999841Y-100609400D01*
X115174959Y-100609400D01*
X115346712Y-100643564D01*
X115346712Y-100643564D01*
G37*
G36*
X120426712Y-100643564D02*
X120588498Y-100710578D01*
X120734107Y-100807871D01*
X120857929Y-100931693D01*
X120955222Y-101077302D01*
X121022236Y-101239088D01*
X121056400Y-101410841D01*
X121056400Y-101585959D01*
X121022236Y-101757712D01*
X120955222Y-101919498D01*
X120857929Y-102065107D01*
X120734107Y-102188929D01*
X120588498Y-102286222D01*
X120492948Y-102325800D01*
X120426712Y-102353236D01*
X120254959Y-102387400D01*
X120079841Y-102387400D01*
X119908088Y-102353236D01*
X119841852Y-102325800D01*
X119746302Y-102286222D01*
X119600693Y-102188929D01*
X119476871Y-102065107D01*
X119379578Y-101919498D01*
X119312564Y-101757712D01*
X119278400Y-101585959D01*
X119278400Y-101410841D01*
X119312564Y-101239088D01*
X119379578Y-101077302D01*
X119476871Y-100931693D01*
X119600693Y-100807871D01*
X119746302Y-100710578D01*
X119908088Y-100643564D01*
X120079841Y-100609400D01*
X120254959Y-100609400D01*
X120426712Y-100643564D01*
X120426712Y-100643564D01*
G37*
G36*
X122966712Y-100643564D02*
X123128498Y-100710578D01*
X123274107Y-100807871D01*
X123397929Y-100931693D01*
X123495222Y-101077302D01*
X123562236Y-101239088D01*
X123596400Y-101410841D01*
X123596400Y-101585959D01*
X123562236Y-101757712D01*
X123495222Y-101919498D01*
X123397929Y-102065107D01*
X123274107Y-102188929D01*
X123128498Y-102286222D01*
X123032948Y-102325800D01*
X122966712Y-102353236D01*
X122794959Y-102387400D01*
X122619841Y-102387400D01*
X122448088Y-102353236D01*
X122381852Y-102325800D01*
X122286302Y-102286222D01*
X122140693Y-102188929D01*
X122016871Y-102065107D01*
X121919578Y-101919498D01*
X121852564Y-101757712D01*
X121818400Y-101585959D01*
X121818400Y-101410841D01*
X121852564Y-101239088D01*
X121919578Y-101077302D01*
X122016871Y-100931693D01*
X122140693Y-100807871D01*
X122286302Y-100710578D01*
X122448088Y-100643564D01*
X122619841Y-100609400D01*
X122794959Y-100609400D01*
X122966712Y-100643564D01*
X122966712Y-100643564D01*
G37*
G36*
X107726712Y-100643564D02*
X107888498Y-100710578D01*
X108034107Y-100807871D01*
X108157929Y-100931693D01*
X108255222Y-101077302D01*
X108322236Y-101239088D01*
X108356400Y-101410841D01*
X108356400Y-101585959D01*
X108322236Y-101757712D01*
X108255222Y-101919498D01*
X108157929Y-102065107D01*
X108034107Y-102188929D01*
X107888498Y-102286222D01*
X107726712Y-102353236D01*
X107554959Y-102387400D01*
X107379841Y-102387400D01*
X107208088Y-102353236D01*
X107046302Y-102286222D01*
X106900693Y-102188929D01*
X106776871Y-102065107D01*
X106679578Y-101919498D01*
X106612564Y-101757712D01*
X106578400Y-101585959D01*
X106578400Y-101410841D01*
X106612564Y-101239088D01*
X106679578Y-101077302D01*
X106776871Y-100931693D01*
X106900693Y-100807871D01*
X107046302Y-100710578D01*
X107208088Y-100643564D01*
X107379841Y-100609400D01*
X107554959Y-100609400D01*
X107726712Y-100643564D01*
X107726712Y-100643564D01*
G37*
G36*
X105186712Y-100643564D02*
X105348498Y-100710578D01*
X105494107Y-100807871D01*
X105617929Y-100931693D01*
X105715222Y-101077302D01*
X105782236Y-101239088D01*
X105816400Y-101410841D01*
X105816400Y-101585959D01*
X105782236Y-101757712D01*
X105715222Y-101919498D01*
X105617929Y-102065107D01*
X105494107Y-102188929D01*
X105348498Y-102286222D01*
X105186712Y-102353236D01*
X105014959Y-102387400D01*
X104839841Y-102387400D01*
X104668088Y-102353236D01*
X104506302Y-102286222D01*
X104360693Y-102188929D01*
X104236871Y-102065107D01*
X104139578Y-101919498D01*
X104072564Y-101757712D01*
X104038400Y-101585959D01*
X104038400Y-101410841D01*
X104072564Y-101239088D01*
X104139578Y-101077302D01*
X104236871Y-100931693D01*
X104360693Y-100807871D01*
X104506302Y-100710578D01*
X104668088Y-100643564D01*
X104839841Y-100609400D01*
X105014959Y-100609400D01*
X105186712Y-100643564D01*
X105186712Y-100643564D01*
G37*
G36*
X110266712Y-100643564D02*
X110428498Y-100710578D01*
X110574107Y-100807871D01*
X110697929Y-100931693D01*
X110795222Y-101077302D01*
X110862236Y-101239088D01*
X110896400Y-101410841D01*
X110896400Y-101585959D01*
X110862236Y-101757712D01*
X110795222Y-101919498D01*
X110697929Y-102065107D01*
X110574107Y-102188929D01*
X110428498Y-102286222D01*
X110332948Y-102325800D01*
X110266712Y-102353236D01*
X110094959Y-102387400D01*
X109919841Y-102387400D01*
X109748088Y-102353236D01*
X109681852Y-102325800D01*
X109586302Y-102286222D01*
X109440693Y-102188929D01*
X109316871Y-102065107D01*
X109219578Y-101919498D01*
X109152564Y-101757712D01*
X109118400Y-101585959D01*
X109118400Y-101410841D01*
X109152564Y-101239088D01*
X109219578Y-101077302D01*
X109316871Y-100931693D01*
X109440693Y-100807871D01*
X109586302Y-100710578D01*
X109748088Y-100643564D01*
X109919841Y-100609400D01*
X110094959Y-100609400D01*
X110266712Y-100643564D01*
X110266712Y-100643564D01*
G37*
G36*
X112806712Y-100643564D02*
X112968498Y-100710578D01*
X113114107Y-100807871D01*
X113237929Y-100931693D01*
X113335222Y-101077302D01*
X113402236Y-101239088D01*
X113436400Y-101410841D01*
X113436400Y-101585959D01*
X113402236Y-101757712D01*
X113335222Y-101919498D01*
X113237929Y-102065107D01*
X113114107Y-102188929D01*
X112968498Y-102286222D01*
X112872948Y-102325800D01*
X112806712Y-102353236D01*
X112634959Y-102387400D01*
X112459841Y-102387400D01*
X112288088Y-102353236D01*
X112221852Y-102325800D01*
X112126302Y-102286222D01*
X111980693Y-102188929D01*
X111856871Y-102065107D01*
X111759578Y-101919498D01*
X111692564Y-101757712D01*
X111658400Y-101585959D01*
X111658400Y-101410841D01*
X111692564Y-101239088D01*
X111759578Y-101077302D01*
X111856871Y-100931693D01*
X111980693Y-100807871D01*
X112126302Y-100710578D01*
X112288088Y-100643564D01*
X112459841Y-100609400D01*
X112634959Y-100609400D01*
X112806712Y-100643564D01*
X112806712Y-100643564D01*
G37*
G36*
X117886712Y-100643564D02*
X118048498Y-100710578D01*
X118194107Y-100807871D01*
X118317929Y-100931693D01*
X118415222Y-101077302D01*
X118482236Y-101239088D01*
X118516400Y-101410841D01*
X118516400Y-101585959D01*
X118482236Y-101757712D01*
X118415222Y-101919498D01*
X118317929Y-102065107D01*
X118194107Y-102188929D01*
X118048498Y-102286222D01*
X117886712Y-102353236D01*
X117714959Y-102387400D01*
X117539841Y-102387400D01*
X117368088Y-102353236D01*
X117206302Y-102286222D01*
X117060693Y-102188929D01*
X116936871Y-102065107D01*
X116839578Y-101919498D01*
X116772564Y-101757712D01*
X116738400Y-101585959D01*
X116738400Y-101410841D01*
X116772564Y-101239088D01*
X116839578Y-101077302D01*
X116936871Y-100931693D01*
X117060693Y-100807871D01*
X117206302Y-100710578D01*
X117368088Y-100643564D01*
X117539841Y-100609400D01*
X117714959Y-100609400D01*
X117886712Y-100643564D01*
X117886712Y-100643564D01*
G37*
G36*
X181647562Y-100551145D02*
X181735788Y-100559834D01*
X181848989Y-100594173D01*
X181905590Y-100611343D01*
X182044180Y-100685422D01*
X182062079Y-100694989D01*
X182081074Y-100710578D01*
X182199244Y-100807556D01*
X182253936Y-100874200D01*
X182311811Y-100944721D01*
X182311812Y-100944723D01*
X182395457Y-101101210D01*
X182406413Y-101137329D01*
X182446966Y-101271012D01*
X182464358Y-101447600D01*
X182446966Y-101624188D01*
X182432618Y-101671485D01*
X182395457Y-101793990D01*
X182385988Y-101811705D01*
X182311811Y-101950479D01*
X182282488Y-101986209D01*
X182199244Y-102087644D01*
X182106490Y-102163764D01*
X182062079Y-102200211D01*
X182062077Y-102200212D01*
X181905590Y-102283857D01*
X181859266Y-102297909D01*
X181735788Y-102335366D01*
X181647562Y-102344055D01*
X181603450Y-102348400D01*
X181514950Y-102348400D01*
X181470838Y-102344055D01*
X181382612Y-102335366D01*
X181259134Y-102297909D01*
X181212810Y-102283857D01*
X181056323Y-102200212D01*
X181056321Y-102200211D01*
X181011910Y-102163764D01*
X180919156Y-102087644D01*
X180835912Y-101986209D01*
X180806589Y-101950479D01*
X180732412Y-101811705D01*
X180722943Y-101793990D01*
X180685782Y-101671485D01*
X180671434Y-101624188D01*
X180654042Y-101447600D01*
X180671434Y-101271012D01*
X180711987Y-101137329D01*
X180722943Y-101101210D01*
X180806588Y-100944723D01*
X180806589Y-100944721D01*
X180864464Y-100874200D01*
X180919156Y-100807556D01*
X181037326Y-100710578D01*
X181056321Y-100694989D01*
X181074220Y-100685422D01*
X181212810Y-100611343D01*
X181269411Y-100594173D01*
X181382612Y-100559834D01*
X181470838Y-100551145D01*
X181514950Y-100546800D01*
X181603450Y-100546800D01*
X181647562Y-100551145D01*
X181647562Y-100551145D01*
G37*
G36*
X148166705Y-100902091D02*
X148166707Y-100902092D01*
X148166708Y-100902092D01*
X148298795Y-100956804D01*
X148298796Y-100956805D01*
X148417674Y-101036236D01*
X148518764Y-101137326D01*
X148518766Y-101137329D01*
X148598196Y-101256205D01*
X148652908Y-101388292D01*
X148652909Y-101388295D01*
X148680800Y-101528513D01*
X148680800Y-101671487D01*
X148656433Y-101793990D01*
X148652908Y-101811708D01*
X148598196Y-101943795D01*
X148598195Y-101943796D01*
X148518764Y-102062674D01*
X148417674Y-102163764D01*
X148417671Y-102163766D01*
X148298795Y-102243196D01*
X148166708Y-102297908D01*
X148166707Y-102297908D01*
X148166705Y-102297909D01*
X148026487Y-102325800D01*
X147883513Y-102325800D01*
X147743295Y-102297909D01*
X147743293Y-102297908D01*
X147743292Y-102297908D01*
X147611205Y-102243196D01*
X147492329Y-102163766D01*
X147492326Y-102163764D01*
X147391236Y-102062674D01*
X147311805Y-101943796D01*
X147311804Y-101943795D01*
X147257092Y-101811708D01*
X147253568Y-101793990D01*
X147229200Y-101671487D01*
X147229200Y-101528513D01*
X147257091Y-101388295D01*
X147257092Y-101388292D01*
X147311804Y-101256205D01*
X147391234Y-101137329D01*
X147391236Y-101137326D01*
X147492326Y-101036236D01*
X147611204Y-100956805D01*
X147611205Y-100956804D01*
X147743292Y-100902092D01*
X147743293Y-100902092D01*
X147743295Y-100902091D01*
X147883513Y-100874200D01*
X148026487Y-100874200D01*
X148166705Y-100902091D01*
X148166705Y-100902091D01*
G37*
G36*
X155786705Y-100902091D02*
X155786707Y-100902092D01*
X155786708Y-100902092D01*
X155918795Y-100956804D01*
X155918796Y-100956805D01*
X156037674Y-101036236D01*
X156138764Y-101137326D01*
X156138766Y-101137329D01*
X156218196Y-101256205D01*
X156272908Y-101388292D01*
X156272909Y-101388295D01*
X156300800Y-101528513D01*
X156300800Y-101671487D01*
X156276433Y-101793990D01*
X156272908Y-101811708D01*
X156218196Y-101943795D01*
X156218195Y-101943796D01*
X156138764Y-102062674D01*
X156037674Y-102163764D01*
X156037671Y-102163766D01*
X155918795Y-102243196D01*
X155786708Y-102297908D01*
X155786707Y-102297908D01*
X155786705Y-102297909D01*
X155646487Y-102325800D01*
X155503513Y-102325800D01*
X155363295Y-102297909D01*
X155363293Y-102297908D01*
X155363292Y-102297908D01*
X155231205Y-102243196D01*
X155112329Y-102163766D01*
X155112326Y-102163764D01*
X155011236Y-102062674D01*
X154931805Y-101943796D01*
X154931804Y-101943795D01*
X154877092Y-101811708D01*
X154873568Y-101793990D01*
X154849200Y-101671487D01*
X154849200Y-101528513D01*
X154877091Y-101388295D01*
X154877092Y-101388292D01*
X154931804Y-101256205D01*
X155011234Y-101137329D01*
X155011236Y-101137326D01*
X155112326Y-101036236D01*
X155231204Y-100956805D01*
X155231205Y-100956804D01*
X155363292Y-100902092D01*
X155363293Y-100902092D01*
X155363295Y-100902091D01*
X155503513Y-100874200D01*
X155646487Y-100874200D01*
X155786705Y-100902091D01*
X155786705Y-100902091D01*
G37*
G36*
X161656100Y-98876743D02*
X161724183Y-98890285D01*
X161761751Y-98905846D01*
X161852448Y-98943414D01*
X161967887Y-99020548D01*
X162066052Y-99118713D01*
X162143186Y-99234152D01*
X162180754Y-99324849D01*
X162196315Y-99362417D01*
X162204546Y-99403796D01*
X162223400Y-99498582D01*
X162223400Y-99637418D01*
X162196315Y-99773582D01*
X162143186Y-99901848D01*
X162066052Y-100017287D01*
X161967887Y-100115452D01*
X161852448Y-100192586D01*
X161761751Y-100230154D01*
X161724183Y-100245715D01*
X161656100Y-100259257D01*
X161588018Y-100272800D01*
X161449182Y-100272800D01*
X161381100Y-100259257D01*
X161313017Y-100245715D01*
X161275449Y-100230154D01*
X161184752Y-100192586D01*
X161069313Y-100115452D01*
X160971148Y-100017287D01*
X160894014Y-99901848D01*
X160840885Y-99773582D01*
X160813800Y-99637418D01*
X160813800Y-99498582D01*
X160832654Y-99403796D01*
X160840885Y-99362417D01*
X160856446Y-99324849D01*
X160894014Y-99234152D01*
X160971148Y-99118713D01*
X161069313Y-99020548D01*
X161184752Y-98943414D01*
X161275449Y-98905846D01*
X161313017Y-98890285D01*
X161381100Y-98876743D01*
X161449182Y-98863200D01*
X161588018Y-98863200D01*
X161656100Y-98876743D01*
X161656100Y-98876743D01*
G37*
G36*
X181647562Y-98011145D02*
X181735788Y-98019834D01*
X181848989Y-98054173D01*
X181905590Y-98071343D01*
X182028117Y-98136836D01*
X182062079Y-98154989D01*
X182081588Y-98171000D01*
X182199244Y-98267556D01*
X182253936Y-98334200D01*
X182311811Y-98404721D01*
X182311812Y-98404723D01*
X182395457Y-98561210D01*
X182406413Y-98597329D01*
X182446966Y-98731012D01*
X182464358Y-98907600D01*
X182446966Y-99084188D01*
X182436492Y-99118716D01*
X182395457Y-99253990D01*
X182385988Y-99271705D01*
X182311811Y-99410479D01*
X182282488Y-99446209D01*
X182199244Y-99547644D01*
X182106490Y-99623764D01*
X182062079Y-99660211D01*
X182062077Y-99660212D01*
X181905590Y-99743857D01*
X181859266Y-99757909D01*
X181735788Y-99795366D01*
X181647562Y-99804055D01*
X181603450Y-99808400D01*
X181514950Y-99808400D01*
X181470838Y-99804055D01*
X181382612Y-99795366D01*
X181259134Y-99757909D01*
X181212810Y-99743857D01*
X181056323Y-99660212D01*
X181056321Y-99660211D01*
X181011910Y-99623764D01*
X180919156Y-99547644D01*
X180835912Y-99446209D01*
X180806589Y-99410479D01*
X180732412Y-99271705D01*
X180722943Y-99253990D01*
X180681908Y-99118716D01*
X180671434Y-99084188D01*
X180654042Y-98907600D01*
X180671434Y-98731012D01*
X180711987Y-98597329D01*
X180722943Y-98561210D01*
X180806588Y-98404723D01*
X180806589Y-98404721D01*
X180864464Y-98334200D01*
X180919156Y-98267556D01*
X181036812Y-98171000D01*
X181056321Y-98154989D01*
X181090283Y-98136836D01*
X181212810Y-98071343D01*
X181269411Y-98054173D01*
X181382612Y-98019834D01*
X181470838Y-98011145D01*
X181514950Y-98006800D01*
X181603450Y-98006800D01*
X181647562Y-98011145D01*
X181647562Y-98011145D01*
G37*
G36*
X155786705Y-98362091D02*
X155786707Y-98362092D01*
X155786708Y-98362092D01*
X155918795Y-98416804D01*
X155918796Y-98416805D01*
X156037674Y-98496236D01*
X156138764Y-98597326D01*
X156138766Y-98597329D01*
X156218196Y-98716205D01*
X156224329Y-98731012D01*
X156272909Y-98848295D01*
X156300800Y-98988513D01*
X156300800Y-99131487D01*
X156276433Y-99253990D01*
X156272908Y-99271708D01*
X156218196Y-99403795D01*
X156218195Y-99403796D01*
X156138764Y-99522674D01*
X156037674Y-99623764D01*
X156037671Y-99623766D01*
X155918795Y-99703196D01*
X155786708Y-99757908D01*
X155786707Y-99757908D01*
X155786705Y-99757909D01*
X155646487Y-99785800D01*
X155503513Y-99785800D01*
X155363295Y-99757909D01*
X155363293Y-99757908D01*
X155363292Y-99757908D01*
X155231205Y-99703196D01*
X155112329Y-99623766D01*
X155112326Y-99623764D01*
X155011236Y-99522674D01*
X154931805Y-99403796D01*
X154931804Y-99403795D01*
X154877092Y-99271708D01*
X154873568Y-99253990D01*
X154849200Y-99131487D01*
X154849200Y-98988513D01*
X154877091Y-98848295D01*
X154925671Y-98731012D01*
X154931804Y-98716205D01*
X155011234Y-98597329D01*
X155011236Y-98597326D01*
X155112326Y-98496236D01*
X155231204Y-98416805D01*
X155231205Y-98416804D01*
X155363292Y-98362092D01*
X155363293Y-98362092D01*
X155363295Y-98362091D01*
X155503513Y-98334200D01*
X155646487Y-98334200D01*
X155786705Y-98362091D01*
X155786705Y-98362091D01*
G37*
G36*
X148166705Y-98362091D02*
X148166707Y-98362092D01*
X148166708Y-98362092D01*
X148298795Y-98416804D01*
X148298796Y-98416805D01*
X148417674Y-98496236D01*
X148518764Y-98597326D01*
X148518766Y-98597329D01*
X148598196Y-98716205D01*
X148604329Y-98731012D01*
X148652909Y-98848295D01*
X148680800Y-98988513D01*
X148680800Y-99131487D01*
X148656433Y-99253990D01*
X148652908Y-99271708D01*
X148598196Y-99403795D01*
X148598195Y-99403796D01*
X148518764Y-99522674D01*
X148417674Y-99623764D01*
X148417671Y-99623766D01*
X148298795Y-99703196D01*
X148166708Y-99757908D01*
X148166707Y-99757908D01*
X148166705Y-99757909D01*
X148026487Y-99785800D01*
X147883513Y-99785800D01*
X147743295Y-99757909D01*
X147743293Y-99757908D01*
X147743292Y-99757908D01*
X147611205Y-99703196D01*
X147492329Y-99623766D01*
X147492326Y-99623764D01*
X147391236Y-99522674D01*
X147311805Y-99403796D01*
X147311804Y-99403795D01*
X147257092Y-99271708D01*
X147253568Y-99253990D01*
X147229200Y-99131487D01*
X147229200Y-98988513D01*
X147257091Y-98848295D01*
X147305671Y-98731012D01*
X147311804Y-98716205D01*
X147391234Y-98597329D01*
X147391236Y-98597326D01*
X147492326Y-98496236D01*
X147611204Y-98416805D01*
X147611205Y-98416804D01*
X147743292Y-98362092D01*
X147743293Y-98362092D01*
X147743295Y-98362091D01*
X147883513Y-98334200D01*
X148026487Y-98334200D01*
X148166705Y-98362091D01*
X148166705Y-98362091D01*
G37*
G36*
X110266712Y-96427164D02*
X110428498Y-96494178D01*
X110574107Y-96591471D01*
X110697929Y-96715293D01*
X110795222Y-96860902D01*
X110862236Y-97022688D01*
X110896400Y-97194441D01*
X110896400Y-97369559D01*
X110862236Y-97541312D01*
X110795222Y-97703098D01*
X110697929Y-97848707D01*
X110574107Y-97972529D01*
X110428498Y-98069822D01*
X110266712Y-98136836D01*
X110094959Y-98171000D01*
X109919841Y-98171000D01*
X109748088Y-98136836D01*
X109586302Y-98069822D01*
X109440693Y-97972529D01*
X109316871Y-97848707D01*
X109219578Y-97703098D01*
X109152564Y-97541312D01*
X109118400Y-97369559D01*
X109118400Y-97194441D01*
X109152564Y-97022688D01*
X109219578Y-96860902D01*
X109316871Y-96715293D01*
X109440693Y-96591471D01*
X109586302Y-96494178D01*
X109748088Y-96427164D01*
X109919841Y-96393000D01*
X110094959Y-96393000D01*
X110266712Y-96427164D01*
X110266712Y-96427164D01*
G37*
G36*
X105186712Y-96427164D02*
X105348498Y-96494178D01*
X105494107Y-96591471D01*
X105617929Y-96715293D01*
X105715222Y-96860902D01*
X105782236Y-97022688D01*
X105816400Y-97194441D01*
X105816400Y-97369559D01*
X105782236Y-97541312D01*
X105715222Y-97703098D01*
X105617929Y-97848707D01*
X105494107Y-97972529D01*
X105348498Y-98069822D01*
X105186712Y-98136836D01*
X105014959Y-98171000D01*
X104839841Y-98171000D01*
X104668088Y-98136836D01*
X104506302Y-98069822D01*
X104360693Y-97972529D01*
X104236871Y-97848707D01*
X104139578Y-97703098D01*
X104072564Y-97541312D01*
X104038400Y-97369559D01*
X104038400Y-97194441D01*
X104072564Y-97022688D01*
X104139578Y-96860902D01*
X104236871Y-96715293D01*
X104360693Y-96591471D01*
X104506302Y-96494178D01*
X104668088Y-96427164D01*
X104839841Y-96393000D01*
X105014959Y-96393000D01*
X105186712Y-96427164D01*
X105186712Y-96427164D01*
G37*
G36*
X107726712Y-96427164D02*
X107888498Y-96494178D01*
X108034107Y-96591471D01*
X108157929Y-96715293D01*
X108255222Y-96860902D01*
X108322236Y-97022688D01*
X108356400Y-97194441D01*
X108356400Y-97369559D01*
X108322236Y-97541312D01*
X108255222Y-97703098D01*
X108157929Y-97848707D01*
X108034107Y-97972529D01*
X107888498Y-98069822D01*
X107726712Y-98136836D01*
X107554959Y-98171000D01*
X107379841Y-98171000D01*
X107208088Y-98136836D01*
X107046302Y-98069822D01*
X106900693Y-97972529D01*
X106776871Y-97848707D01*
X106679578Y-97703098D01*
X106612564Y-97541312D01*
X106578400Y-97369559D01*
X106578400Y-97194441D01*
X106612564Y-97022688D01*
X106679578Y-96860902D01*
X106776871Y-96715293D01*
X106900693Y-96591471D01*
X107046302Y-96494178D01*
X107208088Y-96427164D01*
X107379841Y-96393000D01*
X107554959Y-96393000D01*
X107726712Y-96427164D01*
X107726712Y-96427164D01*
G37*
G36*
X112806712Y-96427164D02*
X112968498Y-96494178D01*
X113114107Y-96591471D01*
X113237929Y-96715293D01*
X113335222Y-96860902D01*
X113402236Y-97022688D01*
X113436400Y-97194441D01*
X113436400Y-97369559D01*
X113402236Y-97541312D01*
X113335222Y-97703098D01*
X113237929Y-97848707D01*
X113114107Y-97972529D01*
X112968498Y-98069822D01*
X112806712Y-98136836D01*
X112634959Y-98171000D01*
X112459841Y-98171000D01*
X112288088Y-98136836D01*
X112126302Y-98069822D01*
X111980693Y-97972529D01*
X111856871Y-97848707D01*
X111759578Y-97703098D01*
X111692564Y-97541312D01*
X111658400Y-97369559D01*
X111658400Y-97194441D01*
X111692564Y-97022688D01*
X111759578Y-96860902D01*
X111856871Y-96715293D01*
X111980693Y-96591471D01*
X112126302Y-96494178D01*
X112288088Y-96427164D01*
X112459841Y-96393000D01*
X112634959Y-96393000D01*
X112806712Y-96427164D01*
X112806712Y-96427164D01*
G37*
G36*
X115346712Y-96427164D02*
X115508498Y-96494178D01*
X115654107Y-96591471D01*
X115777929Y-96715293D01*
X115875222Y-96860902D01*
X115942236Y-97022688D01*
X115976400Y-97194441D01*
X115976400Y-97369559D01*
X115942236Y-97541312D01*
X115875222Y-97703098D01*
X115777929Y-97848707D01*
X115654107Y-97972529D01*
X115508498Y-98069822D01*
X115346712Y-98136836D01*
X115174959Y-98171000D01*
X114999841Y-98171000D01*
X114828088Y-98136836D01*
X114666302Y-98069822D01*
X114520693Y-97972529D01*
X114396871Y-97848707D01*
X114299578Y-97703098D01*
X114232564Y-97541312D01*
X114198400Y-97369559D01*
X114198400Y-97194441D01*
X114232564Y-97022688D01*
X114299578Y-96860902D01*
X114396871Y-96715293D01*
X114520693Y-96591471D01*
X114666302Y-96494178D01*
X114828088Y-96427164D01*
X114999841Y-96393000D01*
X115174959Y-96393000D01*
X115346712Y-96427164D01*
X115346712Y-96427164D01*
G37*
G36*
X117886712Y-96427164D02*
X118048498Y-96494178D01*
X118194107Y-96591471D01*
X118317929Y-96715293D01*
X118415222Y-96860902D01*
X118482236Y-97022688D01*
X118516400Y-97194441D01*
X118516400Y-97369559D01*
X118482236Y-97541312D01*
X118415222Y-97703098D01*
X118317929Y-97848707D01*
X118194107Y-97972529D01*
X118048498Y-98069822D01*
X117886712Y-98136836D01*
X117714959Y-98171000D01*
X117539841Y-98171000D01*
X117368088Y-98136836D01*
X117206302Y-98069822D01*
X117060693Y-97972529D01*
X116936871Y-97848707D01*
X116839578Y-97703098D01*
X116772564Y-97541312D01*
X116738400Y-97369559D01*
X116738400Y-97194441D01*
X116772564Y-97022688D01*
X116839578Y-96860902D01*
X116936871Y-96715293D01*
X117060693Y-96591471D01*
X117206302Y-96494178D01*
X117368088Y-96427164D01*
X117539841Y-96393000D01*
X117714959Y-96393000D01*
X117886712Y-96427164D01*
X117886712Y-96427164D01*
G37*
G36*
X122966712Y-96427164D02*
X123128498Y-96494178D01*
X123274107Y-96591471D01*
X123397929Y-96715293D01*
X123495222Y-96860902D01*
X123562236Y-97022688D01*
X123596400Y-97194441D01*
X123596400Y-97369559D01*
X123562236Y-97541312D01*
X123495222Y-97703098D01*
X123397929Y-97848707D01*
X123274107Y-97972529D01*
X123128498Y-98069822D01*
X122966712Y-98136836D01*
X122794959Y-98171000D01*
X122619841Y-98171000D01*
X122448088Y-98136836D01*
X122286302Y-98069822D01*
X122140693Y-97972529D01*
X122016871Y-97848707D01*
X121919578Y-97703098D01*
X121852564Y-97541312D01*
X121818400Y-97369559D01*
X121818400Y-97194441D01*
X121852564Y-97022688D01*
X121919578Y-96860902D01*
X122016871Y-96715293D01*
X122140693Y-96591471D01*
X122286302Y-96494178D01*
X122448088Y-96427164D01*
X122619841Y-96393000D01*
X122794959Y-96393000D01*
X122966712Y-96427164D01*
X122966712Y-96427164D01*
G37*
G36*
X120426712Y-96427164D02*
X120588498Y-96494178D01*
X120734107Y-96591471D01*
X120857929Y-96715293D01*
X120955222Y-96860902D01*
X121022236Y-97022688D01*
X121056400Y-97194441D01*
X121056400Y-97369559D01*
X121022236Y-97541312D01*
X120955222Y-97703098D01*
X120857929Y-97848707D01*
X120734107Y-97972529D01*
X120588498Y-98069822D01*
X120426712Y-98136836D01*
X120254959Y-98171000D01*
X120079841Y-98171000D01*
X119908088Y-98136836D01*
X119746302Y-98069822D01*
X119600693Y-97972529D01*
X119476871Y-97848707D01*
X119379578Y-97703098D01*
X119312564Y-97541312D01*
X119278400Y-97369559D01*
X119278400Y-97194441D01*
X119312564Y-97022688D01*
X119379578Y-96860902D01*
X119476871Y-96715293D01*
X119600693Y-96591471D01*
X119746302Y-96494178D01*
X119908088Y-96427164D01*
X120079841Y-96393000D01*
X120254959Y-96393000D01*
X120426712Y-96427164D01*
X120426712Y-96427164D01*
G37*
G36*
X161656100Y-96376742D02*
X161724183Y-96390285D01*
X161730737Y-96393000D01*
X161852448Y-96443414D01*
X161967887Y-96520548D01*
X162066052Y-96618713D01*
X162143186Y-96734152D01*
X162180754Y-96824849D01*
X162196315Y-96862417D01*
X162209857Y-96930500D01*
X162223400Y-96998582D01*
X162223400Y-97137418D01*
X162218272Y-97163196D01*
X162199939Y-97255366D01*
X162196315Y-97273582D01*
X162143186Y-97401848D01*
X162066052Y-97517287D01*
X161967887Y-97615452D01*
X161852448Y-97692586D01*
X161761751Y-97730154D01*
X161724183Y-97745715D01*
X161656100Y-97759257D01*
X161588018Y-97772800D01*
X161449182Y-97772800D01*
X161381100Y-97759257D01*
X161313017Y-97745715D01*
X161275449Y-97730154D01*
X161184752Y-97692586D01*
X161069313Y-97615452D01*
X160971148Y-97517287D01*
X160894014Y-97401848D01*
X160840885Y-97273582D01*
X160837262Y-97255366D01*
X160818928Y-97163196D01*
X160813800Y-97137418D01*
X160813800Y-96998582D01*
X160827343Y-96930500D01*
X160840885Y-96862417D01*
X160856446Y-96824849D01*
X160894014Y-96734152D01*
X160971148Y-96618713D01*
X161069313Y-96520548D01*
X161184752Y-96443414D01*
X161306463Y-96393000D01*
X161313017Y-96390285D01*
X161381100Y-96376743D01*
X161449182Y-96363200D01*
X161588018Y-96363200D01*
X161656100Y-96376742D01*
X161656100Y-96376742D01*
G37*
G36*
X181647562Y-95471145D02*
X181735788Y-95479834D01*
X181848989Y-95514173D01*
X181905590Y-95531343D01*
X182044180Y-95605422D01*
X182062079Y-95614989D01*
X182097809Y-95644312D01*
X182199244Y-95727556D01*
X182253936Y-95794200D01*
X182311811Y-95864721D01*
X182311812Y-95864723D01*
X182395457Y-96021210D01*
X182406413Y-96057329D01*
X182446966Y-96191012D01*
X182464358Y-96367600D01*
X182446966Y-96544188D01*
X182432618Y-96591485D01*
X182395457Y-96713990D01*
X182385988Y-96731705D01*
X182311811Y-96870479D01*
X182282488Y-96906209D01*
X182199244Y-97007644D01*
X182106490Y-97083764D01*
X182062079Y-97120211D01*
X182062077Y-97120212D01*
X181905590Y-97203857D01*
X181859266Y-97217909D01*
X181735788Y-97255366D01*
X181647562Y-97264055D01*
X181603450Y-97268400D01*
X181514950Y-97268400D01*
X181470838Y-97264055D01*
X181382612Y-97255366D01*
X181259134Y-97217909D01*
X181212810Y-97203857D01*
X181056323Y-97120212D01*
X181056321Y-97120211D01*
X181011910Y-97083764D01*
X180919156Y-97007644D01*
X180835912Y-96906209D01*
X180806589Y-96870479D01*
X180732412Y-96731705D01*
X180722943Y-96713990D01*
X180685782Y-96591485D01*
X180671434Y-96544188D01*
X180654042Y-96367600D01*
X180671434Y-96191012D01*
X180711987Y-96057329D01*
X180722943Y-96021210D01*
X180806588Y-95864723D01*
X180806589Y-95864721D01*
X180864464Y-95794200D01*
X180919156Y-95727556D01*
X181020591Y-95644312D01*
X181056321Y-95614989D01*
X181074220Y-95605422D01*
X181212810Y-95531343D01*
X181269411Y-95514173D01*
X181382612Y-95479834D01*
X181470838Y-95471145D01*
X181514950Y-95466800D01*
X181603450Y-95466800D01*
X181647562Y-95471145D01*
X181647562Y-95471145D01*
G37*
G36*
X148166705Y-95822091D02*
X148166707Y-95822092D01*
X148166708Y-95822092D01*
X148298795Y-95876804D01*
X148298796Y-95876805D01*
X148417674Y-95956236D01*
X148518764Y-96057326D01*
X148518766Y-96057329D01*
X148598196Y-96176205D01*
X148604329Y-96191012D01*
X148652909Y-96308295D01*
X148680800Y-96448513D01*
X148680800Y-96591487D01*
X148656174Y-96715293D01*
X148652908Y-96731708D01*
X148598196Y-96863795D01*
X148598195Y-96863796D01*
X148518764Y-96982674D01*
X148417674Y-97083764D01*
X148417671Y-97083766D01*
X148298795Y-97163196D01*
X148166708Y-97217908D01*
X148166707Y-97217908D01*
X148166705Y-97217909D01*
X148026487Y-97245800D01*
X147883513Y-97245800D01*
X147743295Y-97217909D01*
X147743293Y-97217908D01*
X147743292Y-97217908D01*
X147611205Y-97163196D01*
X147492329Y-97083766D01*
X147492326Y-97083764D01*
X147391236Y-96982674D01*
X147311805Y-96863796D01*
X147311804Y-96863795D01*
X147257092Y-96731708D01*
X147253827Y-96715293D01*
X147229200Y-96591487D01*
X147229200Y-96448513D01*
X147257091Y-96308295D01*
X147305671Y-96191012D01*
X147311804Y-96176205D01*
X147391234Y-96057329D01*
X147391236Y-96057326D01*
X147492326Y-95956236D01*
X147611204Y-95876805D01*
X147611205Y-95876804D01*
X147743292Y-95822092D01*
X147743293Y-95822092D01*
X147743295Y-95822091D01*
X147883513Y-95794200D01*
X148026487Y-95794200D01*
X148166705Y-95822091D01*
X148166705Y-95822091D01*
G37*
G36*
X155786705Y-95822091D02*
X155786707Y-95822092D01*
X155786708Y-95822092D01*
X155918795Y-95876804D01*
X155918796Y-95876805D01*
X156037674Y-95956236D01*
X156138764Y-96057326D01*
X156138766Y-96057329D01*
X156218196Y-96176205D01*
X156224329Y-96191012D01*
X156272909Y-96308295D01*
X156300800Y-96448513D01*
X156300800Y-96591487D01*
X156276174Y-96715293D01*
X156272908Y-96731708D01*
X156218196Y-96863795D01*
X156218195Y-96863796D01*
X156138764Y-96982674D01*
X156037674Y-97083764D01*
X156037671Y-97083766D01*
X155918795Y-97163196D01*
X155786708Y-97217908D01*
X155786707Y-97217908D01*
X155786705Y-97217909D01*
X155646487Y-97245800D01*
X155503513Y-97245800D01*
X155363295Y-97217909D01*
X155363293Y-97217908D01*
X155363292Y-97217908D01*
X155231205Y-97163196D01*
X155112329Y-97083766D01*
X155112326Y-97083764D01*
X155011236Y-96982674D01*
X154931805Y-96863796D01*
X154931804Y-96863795D01*
X154877092Y-96731708D01*
X154873827Y-96715293D01*
X154849200Y-96591487D01*
X154849200Y-96448513D01*
X154877091Y-96308295D01*
X154925671Y-96191012D01*
X154931804Y-96176205D01*
X155011234Y-96057329D01*
X155011236Y-96057326D01*
X155112326Y-95956236D01*
X155231204Y-95876805D01*
X155231205Y-95876804D01*
X155363292Y-95822092D01*
X155363293Y-95822092D01*
X155363295Y-95822091D01*
X155503513Y-95794200D01*
X155646487Y-95794200D01*
X155786705Y-95822091D01*
X155786705Y-95822091D01*
G37*
G36*
X181647562Y-92931145D02*
X181735788Y-92939834D01*
X181848989Y-92974173D01*
X181905590Y-92991343D01*
X182044180Y-93065422D01*
X182062079Y-93074989D01*
X182097809Y-93104312D01*
X182199244Y-93187556D01*
X182253936Y-93254200D01*
X182311811Y-93324721D01*
X182311812Y-93324723D01*
X182395457Y-93481210D01*
X182406413Y-93517329D01*
X182446966Y-93651012D01*
X182464358Y-93827600D01*
X182446966Y-94004188D01*
X182432618Y-94051485D01*
X182395457Y-94173990D01*
X182385988Y-94191705D01*
X182311811Y-94330479D01*
X182282488Y-94366209D01*
X182199244Y-94467644D01*
X182106490Y-94543764D01*
X182062079Y-94580211D01*
X182062077Y-94580212D01*
X181905590Y-94663857D01*
X181859266Y-94677909D01*
X181735788Y-94715366D01*
X181647562Y-94724055D01*
X181603450Y-94728400D01*
X181514950Y-94728400D01*
X181470838Y-94724055D01*
X181382612Y-94715366D01*
X181259134Y-94677909D01*
X181212810Y-94663857D01*
X181056323Y-94580212D01*
X181056321Y-94580211D01*
X181011910Y-94543764D01*
X180919156Y-94467644D01*
X180835912Y-94366209D01*
X180806589Y-94330479D01*
X180732412Y-94191705D01*
X180722943Y-94173990D01*
X180685782Y-94051485D01*
X180671434Y-94004188D01*
X180654042Y-93827600D01*
X180671434Y-93651012D01*
X180711987Y-93517329D01*
X180722943Y-93481210D01*
X180806588Y-93324723D01*
X180806589Y-93324721D01*
X180864464Y-93254200D01*
X180919156Y-93187556D01*
X181020591Y-93104312D01*
X181056321Y-93074989D01*
X181074220Y-93065422D01*
X181212810Y-92991343D01*
X181269411Y-92974173D01*
X181382612Y-92939834D01*
X181470838Y-92931145D01*
X181514950Y-92926800D01*
X181603450Y-92926800D01*
X181647562Y-92931145D01*
X181647562Y-92931145D01*
G37*
G36*
X148166705Y-93282091D02*
X148166707Y-93282092D01*
X148166708Y-93282092D01*
X148298795Y-93336804D01*
X148298796Y-93336805D01*
X148417674Y-93416236D01*
X148518764Y-93517326D01*
X148518766Y-93517329D01*
X148598196Y-93636205D01*
X148604329Y-93651012D01*
X148652909Y-93768295D01*
X148680800Y-93908513D01*
X148680800Y-94051487D01*
X148656433Y-94173990D01*
X148652908Y-94191708D01*
X148598196Y-94323795D01*
X148598195Y-94323796D01*
X148518764Y-94442674D01*
X148417674Y-94543764D01*
X148417671Y-94543766D01*
X148298795Y-94623196D01*
X148166708Y-94677908D01*
X148166707Y-94677908D01*
X148166705Y-94677909D01*
X148026487Y-94705800D01*
X147883513Y-94705800D01*
X147743295Y-94677909D01*
X147743293Y-94677908D01*
X147743292Y-94677908D01*
X147611205Y-94623196D01*
X147492329Y-94543766D01*
X147492326Y-94543764D01*
X147391236Y-94442674D01*
X147311805Y-94323796D01*
X147311804Y-94323795D01*
X147257092Y-94191708D01*
X147253568Y-94173990D01*
X147229200Y-94051487D01*
X147229200Y-93908513D01*
X147257091Y-93768295D01*
X147305671Y-93651012D01*
X147311804Y-93636205D01*
X147391234Y-93517329D01*
X147391236Y-93517326D01*
X147492326Y-93416236D01*
X147611204Y-93336805D01*
X147611205Y-93336804D01*
X147743292Y-93282092D01*
X147743293Y-93282092D01*
X147743295Y-93282091D01*
X147883513Y-93254200D01*
X148026487Y-93254200D01*
X148166705Y-93282091D01*
X148166705Y-93282091D01*
G37*
G36*
X155786705Y-93282091D02*
X155786707Y-93282092D01*
X155786708Y-93282092D01*
X155918795Y-93336804D01*
X155918796Y-93336805D01*
X156037674Y-93416236D01*
X156138764Y-93517326D01*
X156138766Y-93517329D01*
X156218196Y-93636205D01*
X156224329Y-93651012D01*
X156272909Y-93768295D01*
X156300800Y-93908513D01*
X156300800Y-94051487D01*
X156276433Y-94173990D01*
X156272908Y-94191708D01*
X156218196Y-94323795D01*
X156218195Y-94323796D01*
X156138764Y-94442674D01*
X156037674Y-94543764D01*
X156037671Y-94543766D01*
X155918795Y-94623196D01*
X155786708Y-94677908D01*
X155786707Y-94677908D01*
X155786705Y-94677909D01*
X155646487Y-94705800D01*
X155503513Y-94705800D01*
X155363295Y-94677909D01*
X155363293Y-94677908D01*
X155363292Y-94677908D01*
X155231205Y-94623196D01*
X155112329Y-94543766D01*
X155112326Y-94543764D01*
X155011236Y-94442674D01*
X154931805Y-94323796D01*
X154931804Y-94323795D01*
X154877092Y-94191708D01*
X154873568Y-94173990D01*
X154849200Y-94051487D01*
X154849200Y-93908513D01*
X154877091Y-93768295D01*
X154925671Y-93651012D01*
X154931804Y-93636205D01*
X155011234Y-93517329D01*
X155011236Y-93517326D01*
X155112326Y-93416236D01*
X155231204Y-93336805D01*
X155231205Y-93336804D01*
X155363292Y-93282092D01*
X155363293Y-93282092D01*
X155363295Y-93282091D01*
X155503513Y-93254200D01*
X155646487Y-93254200D01*
X155786705Y-93282091D01*
X155786705Y-93282091D01*
G37*
G36*
X181647562Y-90391145D02*
X181735788Y-90399834D01*
X181848989Y-90434173D01*
X181905590Y-90451343D01*
X182028117Y-90516836D01*
X182062079Y-90534989D01*
X182081588Y-90551000D01*
X182199244Y-90647556D01*
X182253936Y-90714200D01*
X182311811Y-90784721D01*
X182311812Y-90784723D01*
X182395457Y-90941210D01*
X182406413Y-90977329D01*
X182446966Y-91111012D01*
X182464358Y-91287600D01*
X182446966Y-91464188D01*
X182432618Y-91511485D01*
X182395457Y-91633990D01*
X182385988Y-91651705D01*
X182311811Y-91790479D01*
X182282488Y-91826209D01*
X182199244Y-91927644D01*
X182106490Y-92003764D01*
X182062079Y-92040211D01*
X182062077Y-92040212D01*
X181905590Y-92123857D01*
X181859266Y-92137909D01*
X181735788Y-92175366D01*
X181647562Y-92184055D01*
X181603450Y-92188400D01*
X181514950Y-92188400D01*
X181470838Y-92184055D01*
X181382612Y-92175366D01*
X181259134Y-92137909D01*
X181212810Y-92123857D01*
X181056323Y-92040212D01*
X181056321Y-92040211D01*
X181011910Y-92003764D01*
X180919156Y-91927644D01*
X180835912Y-91826209D01*
X180806589Y-91790479D01*
X180732412Y-91651705D01*
X180722943Y-91633990D01*
X180685782Y-91511485D01*
X180671434Y-91464188D01*
X180654042Y-91287600D01*
X180671434Y-91111012D01*
X180711987Y-90977329D01*
X180722943Y-90941210D01*
X180806588Y-90784723D01*
X180806589Y-90784721D01*
X180864464Y-90714200D01*
X180919156Y-90647556D01*
X181036812Y-90551000D01*
X181056321Y-90534989D01*
X181090283Y-90516836D01*
X181212810Y-90451343D01*
X181269411Y-90434173D01*
X181382612Y-90399834D01*
X181470838Y-90391145D01*
X181514950Y-90386800D01*
X181603450Y-90386800D01*
X181647562Y-90391145D01*
X181647562Y-90391145D01*
G37*
G36*
X155786705Y-90742091D02*
X155786707Y-90742092D01*
X155786708Y-90742092D01*
X155918795Y-90796804D01*
X155918796Y-90796805D01*
X156037674Y-90876236D01*
X156138764Y-90977326D01*
X156138766Y-90977329D01*
X156218196Y-91096205D01*
X156224329Y-91111012D01*
X156272909Y-91228295D01*
X156300800Y-91368513D01*
X156300800Y-91511487D01*
X156276433Y-91633990D01*
X156272908Y-91651708D01*
X156218196Y-91783795D01*
X156218195Y-91783796D01*
X156138764Y-91902674D01*
X156037674Y-92003764D01*
X156037671Y-92003766D01*
X155918795Y-92083196D01*
X155786708Y-92137908D01*
X155786707Y-92137908D01*
X155786705Y-92137909D01*
X155646487Y-92165800D01*
X155503513Y-92165800D01*
X155363295Y-92137909D01*
X155363293Y-92137908D01*
X155363292Y-92137908D01*
X155231205Y-92083196D01*
X155112329Y-92003766D01*
X155112326Y-92003764D01*
X155011236Y-91902674D01*
X154931805Y-91783796D01*
X154931804Y-91783795D01*
X154877092Y-91651708D01*
X154873568Y-91633990D01*
X154849200Y-91511487D01*
X154849200Y-91368513D01*
X154877091Y-91228295D01*
X154925671Y-91111012D01*
X154931804Y-91096205D01*
X155011234Y-90977329D01*
X155011236Y-90977326D01*
X155112326Y-90876236D01*
X155231204Y-90796805D01*
X155231205Y-90796804D01*
X155363292Y-90742092D01*
X155363293Y-90742092D01*
X155363295Y-90742091D01*
X155503513Y-90714200D01*
X155646487Y-90714200D01*
X155786705Y-90742091D01*
X155786705Y-90742091D01*
G37*
G36*
X148166705Y-90742091D02*
X148166707Y-90742092D01*
X148166708Y-90742092D01*
X148298795Y-90796804D01*
X148298796Y-90796805D01*
X148417674Y-90876236D01*
X148518764Y-90977326D01*
X148518766Y-90977329D01*
X148598196Y-91096205D01*
X148604329Y-91111012D01*
X148652909Y-91228295D01*
X148680800Y-91368513D01*
X148680800Y-91511487D01*
X148656433Y-91633990D01*
X148652908Y-91651708D01*
X148598196Y-91783795D01*
X148598195Y-91783796D01*
X148518764Y-91902674D01*
X148417674Y-92003764D01*
X148417671Y-92003766D01*
X148298795Y-92083196D01*
X148166708Y-92137908D01*
X148166707Y-92137908D01*
X148166705Y-92137909D01*
X148026487Y-92165800D01*
X147883513Y-92165800D01*
X147743295Y-92137909D01*
X147743293Y-92137908D01*
X147743292Y-92137908D01*
X147611205Y-92083196D01*
X147492329Y-92003766D01*
X147492326Y-92003764D01*
X147391236Y-91902674D01*
X147311805Y-91783796D01*
X147311804Y-91783795D01*
X147257092Y-91651708D01*
X147253568Y-91633990D01*
X147229200Y-91511487D01*
X147229200Y-91368513D01*
X147257091Y-91228295D01*
X147305671Y-91111012D01*
X147311804Y-91096205D01*
X147391234Y-90977329D01*
X147391236Y-90977326D01*
X147492326Y-90876236D01*
X147611204Y-90796805D01*
X147611205Y-90796804D01*
X147743292Y-90742092D01*
X147743293Y-90742092D01*
X147743295Y-90742091D01*
X147883513Y-90714200D01*
X148026487Y-90714200D01*
X148166705Y-90742091D01*
X148166705Y-90742091D01*
G37*
G36*
X115346712Y-88807164D02*
X115508498Y-88874178D01*
X115654107Y-88971471D01*
X115777929Y-89095293D01*
X115875222Y-89240902D01*
X115942236Y-89402688D01*
X115976400Y-89574441D01*
X115976400Y-89749559D01*
X115942236Y-89921312D01*
X115875222Y-90083098D01*
X115777929Y-90228707D01*
X115654107Y-90352529D01*
X115508498Y-90449822D01*
X115346712Y-90516836D01*
X115174959Y-90551000D01*
X114999841Y-90551000D01*
X114828088Y-90516836D01*
X114666302Y-90449822D01*
X114520693Y-90352529D01*
X114396871Y-90228707D01*
X114299578Y-90083098D01*
X114232564Y-89921312D01*
X114198400Y-89749559D01*
X114198400Y-89574441D01*
X114232564Y-89402688D01*
X114299578Y-89240902D01*
X114396871Y-89095293D01*
X114520693Y-88971471D01*
X114666302Y-88874178D01*
X114828088Y-88807164D01*
X114999841Y-88773000D01*
X115174959Y-88773000D01*
X115346712Y-88807164D01*
X115346712Y-88807164D01*
G37*
G36*
X112806712Y-88807164D02*
X112968498Y-88874178D01*
X113114107Y-88971471D01*
X113237929Y-89095293D01*
X113335222Y-89240902D01*
X113402236Y-89402688D01*
X113436400Y-89574441D01*
X113436400Y-89749559D01*
X113402236Y-89921312D01*
X113335222Y-90083098D01*
X113237929Y-90228707D01*
X113114107Y-90352529D01*
X112968498Y-90449822D01*
X112806712Y-90516836D01*
X112634959Y-90551000D01*
X112459841Y-90551000D01*
X112288088Y-90516836D01*
X112126302Y-90449822D01*
X111980693Y-90352529D01*
X111856871Y-90228707D01*
X111759578Y-90083098D01*
X111692564Y-89921312D01*
X111658400Y-89749559D01*
X111658400Y-89574441D01*
X111692564Y-89402688D01*
X111759578Y-89240902D01*
X111856871Y-89095293D01*
X111980693Y-88971471D01*
X112126302Y-88874178D01*
X112288088Y-88807164D01*
X112459841Y-88773000D01*
X112634959Y-88773000D01*
X112806712Y-88807164D01*
X112806712Y-88807164D01*
G37*
G36*
X107726712Y-88807164D02*
X107888498Y-88874178D01*
X108034107Y-88971471D01*
X108157929Y-89095293D01*
X108255222Y-89240902D01*
X108322236Y-89402688D01*
X108356400Y-89574441D01*
X108356400Y-89749559D01*
X108322236Y-89921312D01*
X108255222Y-90083098D01*
X108157929Y-90228707D01*
X108034107Y-90352529D01*
X107888498Y-90449822D01*
X107726712Y-90516836D01*
X107554959Y-90551000D01*
X107379841Y-90551000D01*
X107208088Y-90516836D01*
X107046302Y-90449822D01*
X106900693Y-90352529D01*
X106776871Y-90228707D01*
X106679578Y-90083098D01*
X106612564Y-89921312D01*
X106578400Y-89749559D01*
X106578400Y-89574441D01*
X106612564Y-89402688D01*
X106679578Y-89240902D01*
X106776871Y-89095293D01*
X106900693Y-88971471D01*
X107046302Y-88874178D01*
X107208088Y-88807164D01*
X107379841Y-88773000D01*
X107554959Y-88773000D01*
X107726712Y-88807164D01*
X107726712Y-88807164D01*
G37*
G36*
X105186712Y-88807164D02*
X105348498Y-88874178D01*
X105494107Y-88971471D01*
X105617929Y-89095293D01*
X105715222Y-89240902D01*
X105782236Y-89402688D01*
X105816400Y-89574441D01*
X105816400Y-89749559D01*
X105782236Y-89921312D01*
X105715222Y-90083098D01*
X105617929Y-90228707D01*
X105494107Y-90352529D01*
X105348498Y-90449822D01*
X105186712Y-90516836D01*
X105014959Y-90551000D01*
X104839841Y-90551000D01*
X104668088Y-90516836D01*
X104506302Y-90449822D01*
X104360693Y-90352529D01*
X104236871Y-90228707D01*
X104139578Y-90083098D01*
X104072564Y-89921312D01*
X104038400Y-89749559D01*
X104038400Y-89574441D01*
X104072564Y-89402688D01*
X104139578Y-89240902D01*
X104236871Y-89095293D01*
X104360693Y-88971471D01*
X104506302Y-88874178D01*
X104668088Y-88807164D01*
X104839841Y-88773000D01*
X105014959Y-88773000D01*
X105186712Y-88807164D01*
X105186712Y-88807164D01*
G37*
G36*
X123596400Y-90551000D02*
X121818400Y-90551000D01*
X121818400Y-88773000D01*
X123596400Y-88773000D01*
X123596400Y-90551000D01*
X123596400Y-90551000D01*
G37*
G36*
X117886712Y-88807164D02*
X118048498Y-88874178D01*
X118194107Y-88971471D01*
X118317929Y-89095293D01*
X118415222Y-89240902D01*
X118482236Y-89402688D01*
X118516400Y-89574441D01*
X118516400Y-89749559D01*
X118482236Y-89921312D01*
X118415222Y-90083098D01*
X118317929Y-90228707D01*
X118194107Y-90352529D01*
X118048498Y-90449822D01*
X117886712Y-90516836D01*
X117714959Y-90551000D01*
X117539841Y-90551000D01*
X117368088Y-90516836D01*
X117206302Y-90449822D01*
X117060693Y-90352529D01*
X116936871Y-90228707D01*
X116839578Y-90083098D01*
X116772564Y-89921312D01*
X116738400Y-89749559D01*
X116738400Y-89574441D01*
X116772564Y-89402688D01*
X116839578Y-89240902D01*
X116936871Y-89095293D01*
X117060693Y-88971471D01*
X117206302Y-88874178D01*
X117368088Y-88807164D01*
X117539841Y-88773000D01*
X117714959Y-88773000D01*
X117886712Y-88807164D01*
X117886712Y-88807164D01*
G37*
G36*
X110266712Y-88807164D02*
X110428498Y-88874178D01*
X110574107Y-88971471D01*
X110697929Y-89095293D01*
X110795222Y-89240902D01*
X110862236Y-89402688D01*
X110896400Y-89574441D01*
X110896400Y-89749559D01*
X110862236Y-89921312D01*
X110795222Y-90083098D01*
X110697929Y-90228707D01*
X110574107Y-90352529D01*
X110428498Y-90449822D01*
X110266712Y-90516836D01*
X110094959Y-90551000D01*
X109919841Y-90551000D01*
X109748088Y-90516836D01*
X109586302Y-90449822D01*
X109440693Y-90352529D01*
X109316871Y-90228707D01*
X109219578Y-90083098D01*
X109152564Y-89921312D01*
X109118400Y-89749559D01*
X109118400Y-89574441D01*
X109152564Y-89402688D01*
X109219578Y-89240902D01*
X109316871Y-89095293D01*
X109440693Y-88971471D01*
X109586302Y-88874178D01*
X109748088Y-88807164D01*
X109919841Y-88773000D01*
X110094959Y-88773000D01*
X110266712Y-88807164D01*
X110266712Y-88807164D01*
G37*
G36*
X120426712Y-88807164D02*
X120588498Y-88874178D01*
X120734107Y-88971471D01*
X120857929Y-89095293D01*
X120955222Y-89240902D01*
X121022236Y-89402688D01*
X121056400Y-89574441D01*
X121056400Y-89749559D01*
X121022236Y-89921312D01*
X120955222Y-90083098D01*
X120857929Y-90228707D01*
X120734107Y-90352529D01*
X120588498Y-90449822D01*
X120426712Y-90516836D01*
X120254959Y-90551000D01*
X120079841Y-90551000D01*
X119908088Y-90516836D01*
X119746302Y-90449822D01*
X119600693Y-90352529D01*
X119476871Y-90228707D01*
X119379578Y-90083098D01*
X119312564Y-89921312D01*
X119278400Y-89749559D01*
X119278400Y-89574441D01*
X119312564Y-89402688D01*
X119379578Y-89240902D01*
X119476871Y-89095293D01*
X119600693Y-88971471D01*
X119746302Y-88874178D01*
X119908088Y-88807164D01*
X120079841Y-88773000D01*
X120254959Y-88773000D01*
X120426712Y-88807164D01*
X120426712Y-88807164D01*
G37*
G36*
X148166705Y-88202091D02*
X148166707Y-88202092D01*
X148166708Y-88202092D01*
X148298795Y-88256804D01*
X148298796Y-88256805D01*
X148417674Y-88336236D01*
X148518764Y-88437326D01*
X148518766Y-88437329D01*
X148598196Y-88556205D01*
X148652908Y-88688292D01*
X148652909Y-88688295D01*
X148680800Y-88828513D01*
X148680800Y-88971487D01*
X148656174Y-89095293D01*
X148652908Y-89111708D01*
X148598196Y-89243795D01*
X148598195Y-89243796D01*
X148518764Y-89362674D01*
X148417674Y-89463764D01*
X148417671Y-89463766D01*
X148298795Y-89543196D01*
X148166708Y-89597908D01*
X148166707Y-89597908D01*
X148166705Y-89597909D01*
X148026487Y-89625800D01*
X147883513Y-89625800D01*
X147743295Y-89597909D01*
X147743293Y-89597908D01*
X147743292Y-89597908D01*
X147611205Y-89543196D01*
X147492329Y-89463766D01*
X147492326Y-89463764D01*
X147391236Y-89362674D01*
X147311805Y-89243796D01*
X147311804Y-89243795D01*
X147257092Y-89111708D01*
X147253827Y-89095293D01*
X147229200Y-88971487D01*
X147229200Y-88828513D01*
X147257091Y-88688295D01*
X147257092Y-88688292D01*
X147311804Y-88556205D01*
X147391234Y-88437329D01*
X147391236Y-88437326D01*
X147492326Y-88336236D01*
X147611204Y-88256805D01*
X147611205Y-88256804D01*
X147743292Y-88202092D01*
X147743293Y-88202092D01*
X147743295Y-88202091D01*
X147883513Y-88174200D01*
X148026487Y-88174200D01*
X148166705Y-88202091D01*
X148166705Y-88202091D01*
G37*
G36*
X155786705Y-88202091D02*
X155786707Y-88202092D01*
X155786708Y-88202092D01*
X155918795Y-88256804D01*
X155918796Y-88256805D01*
X156037674Y-88336236D01*
X156138764Y-88437326D01*
X156138766Y-88437329D01*
X156218196Y-88556205D01*
X156272908Y-88688292D01*
X156272909Y-88688295D01*
X156300800Y-88828513D01*
X156300800Y-88971487D01*
X156276174Y-89095293D01*
X156272908Y-89111708D01*
X156218196Y-89243795D01*
X156218195Y-89243796D01*
X156138764Y-89362674D01*
X156037674Y-89463764D01*
X156037671Y-89463766D01*
X155918795Y-89543196D01*
X155786708Y-89597908D01*
X155786707Y-89597908D01*
X155786705Y-89597909D01*
X155646487Y-89625800D01*
X155503513Y-89625800D01*
X155363295Y-89597909D01*
X155363293Y-89597908D01*
X155363292Y-89597908D01*
X155231205Y-89543196D01*
X155112329Y-89463766D01*
X155112326Y-89463764D01*
X155011236Y-89362674D01*
X154931805Y-89243796D01*
X154931804Y-89243795D01*
X154877092Y-89111708D01*
X154873827Y-89095293D01*
X154849200Y-88971487D01*
X154849200Y-88828513D01*
X154877091Y-88688295D01*
X154877092Y-88688292D01*
X154931804Y-88556205D01*
X155011234Y-88437329D01*
X155011236Y-88437326D01*
X155112326Y-88336236D01*
X155231204Y-88256805D01*
X155231205Y-88256804D01*
X155363292Y-88202092D01*
X155363293Y-88202092D01*
X155363295Y-88202091D01*
X155503513Y-88174200D01*
X155646487Y-88174200D01*
X155786705Y-88202091D01*
X155786705Y-88202091D01*
G37*
G36*
X148166705Y-85662091D02*
X148166707Y-85662092D01*
X148166708Y-85662092D01*
X148298795Y-85716804D01*
X148298796Y-85716805D01*
X148417674Y-85796236D01*
X148518764Y-85897326D01*
X148518766Y-85897329D01*
X148598196Y-86016205D01*
X148652908Y-86148292D01*
X148680800Y-86288515D01*
X148680800Y-86431485D01*
X148652908Y-86571708D01*
X148598196Y-86703795D01*
X148598195Y-86703796D01*
X148518764Y-86822674D01*
X148417674Y-86923764D01*
X148417671Y-86923766D01*
X148298795Y-87003196D01*
X148166708Y-87057908D01*
X148166707Y-87057908D01*
X148166705Y-87057909D01*
X148026487Y-87085800D01*
X147883513Y-87085800D01*
X147743295Y-87057909D01*
X147743293Y-87057908D01*
X147743292Y-87057908D01*
X147611205Y-87003196D01*
X147492329Y-86923766D01*
X147492326Y-86923764D01*
X147391236Y-86822674D01*
X147311805Y-86703796D01*
X147311804Y-86703795D01*
X147257092Y-86571708D01*
X147229200Y-86431485D01*
X147229200Y-86288515D01*
X147257092Y-86148292D01*
X147311804Y-86016205D01*
X147391234Y-85897329D01*
X147391236Y-85897326D01*
X147492326Y-85796236D01*
X147611204Y-85716805D01*
X147611205Y-85716804D01*
X147743292Y-85662092D01*
X147743293Y-85662092D01*
X147743295Y-85662091D01*
X147883513Y-85634200D01*
X148026487Y-85634200D01*
X148166705Y-85662091D01*
X148166705Y-85662091D01*
G37*
G36*
X155786705Y-85662091D02*
X155786707Y-85662092D01*
X155786708Y-85662092D01*
X155918795Y-85716804D01*
X155918796Y-85716805D01*
X156037674Y-85796236D01*
X156138764Y-85897326D01*
X156138766Y-85897329D01*
X156218196Y-86016205D01*
X156272908Y-86148292D01*
X156300800Y-86288515D01*
X156300800Y-86431485D01*
X156272908Y-86571708D01*
X156218196Y-86703795D01*
X156218195Y-86703796D01*
X156138764Y-86822674D01*
X156037674Y-86923764D01*
X156037671Y-86923766D01*
X155918795Y-87003196D01*
X155786708Y-87057908D01*
X155786707Y-87057908D01*
X155786705Y-87057909D01*
X155646487Y-87085800D01*
X155503513Y-87085800D01*
X155363295Y-87057909D01*
X155363293Y-87057908D01*
X155363292Y-87057908D01*
X155231205Y-87003196D01*
X155112329Y-86923766D01*
X155112326Y-86923764D01*
X155011236Y-86822674D01*
X154931805Y-86703796D01*
X154931804Y-86703795D01*
X154877092Y-86571708D01*
X154849200Y-86431485D01*
X154849200Y-86288515D01*
X154877092Y-86148292D01*
X154931804Y-86016205D01*
X155011234Y-85897329D01*
X155011236Y-85897326D01*
X155112326Y-85796236D01*
X155231204Y-85716805D01*
X155231205Y-85716804D01*
X155363292Y-85662092D01*
X155363293Y-85662092D01*
X155363295Y-85662091D01*
X155503513Y-85634200D01*
X155646487Y-85634200D01*
X155786705Y-85662091D01*
X155786705Y-85662091D01*
G37*
G36*
X122795629Y-83397409D02*
X122795632Y-83397410D01*
X122795631Y-83397410D01*
X122914069Y-83446468D01*
X122958573Y-83476205D01*
X123020664Y-83517693D01*
X123111307Y-83608336D01*
X123111309Y-83608339D01*
X123182532Y-83714931D01*
X123220476Y-83806538D01*
X123231591Y-83833371D01*
X123256600Y-83959100D01*
X123256600Y-84087300D01*
X123231591Y-84213029D01*
X123231590Y-84213031D01*
X123182532Y-84331469D01*
X123182531Y-84331470D01*
X123111307Y-84438064D01*
X123020664Y-84528707D01*
X123020661Y-84528709D01*
X122914069Y-84599932D01*
X122822462Y-84637876D01*
X122795629Y-84648991D01*
X122669900Y-84674000D01*
X122541700Y-84674000D01*
X122415971Y-84648991D01*
X122389138Y-84637876D01*
X122297531Y-84599932D01*
X122190939Y-84528709D01*
X122190936Y-84528707D01*
X122100293Y-84438064D01*
X122029069Y-84331470D01*
X122029068Y-84331469D01*
X121980010Y-84213031D01*
X121980009Y-84213029D01*
X121955000Y-84087300D01*
X121955000Y-83959100D01*
X121980009Y-83833371D01*
X121991124Y-83806538D01*
X122029068Y-83714931D01*
X122100291Y-83608339D01*
X122100293Y-83608336D01*
X122190936Y-83517693D01*
X122253027Y-83476205D01*
X122297531Y-83446468D01*
X122415969Y-83397410D01*
X122415968Y-83397410D01*
X122415971Y-83397409D01*
X122541700Y-83372400D01*
X122669900Y-83372400D01*
X122795629Y-83397409D01*
X122795629Y-83397409D01*
G37*
G36*
X125335629Y-83397409D02*
X125335632Y-83397410D01*
X125335631Y-83397410D01*
X125454069Y-83446468D01*
X125498573Y-83476205D01*
X125560664Y-83517693D01*
X125651307Y-83608336D01*
X125651309Y-83608339D01*
X125722532Y-83714931D01*
X125760476Y-83806538D01*
X125771591Y-83833371D01*
X125796600Y-83959100D01*
X125796600Y-84087300D01*
X125771591Y-84213029D01*
X125771590Y-84213031D01*
X125722532Y-84331469D01*
X125722531Y-84331470D01*
X125651307Y-84438064D01*
X125560664Y-84528707D01*
X125560661Y-84528709D01*
X125454069Y-84599932D01*
X125362462Y-84637876D01*
X125335629Y-84648991D01*
X125209900Y-84674000D01*
X125081700Y-84674000D01*
X124955971Y-84648991D01*
X124929138Y-84637876D01*
X124837531Y-84599932D01*
X124730939Y-84528709D01*
X124730936Y-84528707D01*
X124640293Y-84438064D01*
X124569069Y-84331470D01*
X124569068Y-84331469D01*
X124520010Y-84213031D01*
X124520009Y-84213029D01*
X124495000Y-84087300D01*
X124495000Y-83959100D01*
X124520009Y-83833371D01*
X124531124Y-83806538D01*
X124569068Y-83714931D01*
X124640291Y-83608339D01*
X124640293Y-83608336D01*
X124730936Y-83517693D01*
X124793027Y-83476205D01*
X124837531Y-83446468D01*
X124955969Y-83397410D01*
X124955968Y-83397410D01*
X124955971Y-83397409D01*
X125081700Y-83372400D01*
X125209900Y-83372400D01*
X125335629Y-83397409D01*
X125335629Y-83397409D01*
G37*
G36*
X130415629Y-83397409D02*
X130415632Y-83397410D01*
X130415631Y-83397410D01*
X130534069Y-83446468D01*
X130578573Y-83476205D01*
X130640664Y-83517693D01*
X130731307Y-83608336D01*
X130731309Y-83608339D01*
X130802532Y-83714931D01*
X130840476Y-83806538D01*
X130851591Y-83833371D01*
X130876600Y-83959100D01*
X130876600Y-84087300D01*
X130851591Y-84213029D01*
X130851590Y-84213031D01*
X130802532Y-84331469D01*
X130802531Y-84331470D01*
X130731307Y-84438064D01*
X130640664Y-84528707D01*
X130640661Y-84528709D01*
X130534069Y-84599932D01*
X130442462Y-84637876D01*
X130415629Y-84648991D01*
X130289900Y-84674000D01*
X130161700Y-84674000D01*
X130035971Y-84648991D01*
X130009138Y-84637876D01*
X129917531Y-84599932D01*
X129810939Y-84528709D01*
X129810936Y-84528707D01*
X129720293Y-84438064D01*
X129649069Y-84331470D01*
X129649068Y-84331469D01*
X129600010Y-84213031D01*
X129600009Y-84213029D01*
X129575000Y-84087300D01*
X129575000Y-83959100D01*
X129600009Y-83833371D01*
X129611124Y-83806538D01*
X129649068Y-83714931D01*
X129720291Y-83608339D01*
X129720293Y-83608336D01*
X129810936Y-83517693D01*
X129873027Y-83476205D01*
X129917531Y-83446468D01*
X130035969Y-83397410D01*
X130035968Y-83397410D01*
X130035971Y-83397409D01*
X130161700Y-83372400D01*
X130289900Y-83372400D01*
X130415629Y-83397409D01*
X130415629Y-83397409D01*
G37*
G36*
X120255629Y-83397409D02*
X120255632Y-83397410D01*
X120255631Y-83397410D01*
X120374069Y-83446468D01*
X120418573Y-83476205D01*
X120480664Y-83517693D01*
X120571307Y-83608336D01*
X120571309Y-83608339D01*
X120642532Y-83714931D01*
X120680476Y-83806538D01*
X120691591Y-83833371D01*
X120716600Y-83959100D01*
X120716600Y-84087300D01*
X120691591Y-84213029D01*
X120691590Y-84213031D01*
X120642532Y-84331469D01*
X120642531Y-84331470D01*
X120571307Y-84438064D01*
X120480664Y-84528707D01*
X120480661Y-84528709D01*
X120374069Y-84599932D01*
X120282462Y-84637876D01*
X120255629Y-84648991D01*
X120129900Y-84674000D01*
X120001700Y-84674000D01*
X119875971Y-84648991D01*
X119849138Y-84637876D01*
X119757531Y-84599932D01*
X119650939Y-84528709D01*
X119650936Y-84528707D01*
X119560293Y-84438064D01*
X119489069Y-84331470D01*
X119489068Y-84331469D01*
X119440010Y-84213031D01*
X119440009Y-84213029D01*
X119415000Y-84087300D01*
X119415000Y-83959100D01*
X119440009Y-83833371D01*
X119451124Y-83806538D01*
X119489068Y-83714931D01*
X119560291Y-83608339D01*
X119560293Y-83608336D01*
X119650936Y-83517693D01*
X119713027Y-83476205D01*
X119757531Y-83446468D01*
X119875969Y-83397410D01*
X119875968Y-83397410D01*
X119875971Y-83397409D01*
X120001700Y-83372400D01*
X120129900Y-83372400D01*
X120255629Y-83397409D01*
X120255629Y-83397409D01*
G37*
G36*
X117715629Y-83397409D02*
X117715632Y-83397410D01*
X117715631Y-83397410D01*
X117834069Y-83446468D01*
X117878573Y-83476205D01*
X117940664Y-83517693D01*
X118031307Y-83608336D01*
X118031309Y-83608339D01*
X118102532Y-83714931D01*
X118140476Y-83806538D01*
X118151591Y-83833371D01*
X118176600Y-83959100D01*
X118176600Y-84087300D01*
X118151591Y-84213029D01*
X118151590Y-84213031D01*
X118102532Y-84331469D01*
X118102531Y-84331470D01*
X118031307Y-84438064D01*
X117940664Y-84528707D01*
X117940661Y-84528709D01*
X117834069Y-84599932D01*
X117742462Y-84637876D01*
X117715629Y-84648991D01*
X117589900Y-84674000D01*
X117461700Y-84674000D01*
X117335971Y-84648991D01*
X117309138Y-84637876D01*
X117217531Y-84599932D01*
X117110939Y-84528709D01*
X117110936Y-84528707D01*
X117020293Y-84438064D01*
X116949069Y-84331470D01*
X116949068Y-84331469D01*
X116900010Y-84213031D01*
X116900009Y-84213029D01*
X116875000Y-84087300D01*
X116875000Y-83959100D01*
X116900009Y-83833371D01*
X116911124Y-83806538D01*
X116949068Y-83714931D01*
X117020291Y-83608339D01*
X117020293Y-83608336D01*
X117110936Y-83517693D01*
X117173027Y-83476205D01*
X117217531Y-83446468D01*
X117335969Y-83397410D01*
X117335968Y-83397410D01*
X117335971Y-83397409D01*
X117461700Y-83372400D01*
X117589900Y-83372400D01*
X117715629Y-83397409D01*
X117715629Y-83397409D01*
G37*
G36*
X115175629Y-83397409D02*
X115175632Y-83397410D01*
X115175631Y-83397410D01*
X115294069Y-83446468D01*
X115338573Y-83476205D01*
X115400664Y-83517693D01*
X115491307Y-83608336D01*
X115491309Y-83608339D01*
X115562532Y-83714931D01*
X115600476Y-83806538D01*
X115611591Y-83833371D01*
X115636600Y-83959100D01*
X115636600Y-84087300D01*
X115611591Y-84213029D01*
X115611590Y-84213031D01*
X115562532Y-84331469D01*
X115562531Y-84331470D01*
X115491307Y-84438064D01*
X115400664Y-84528707D01*
X115400661Y-84528709D01*
X115294069Y-84599932D01*
X115202462Y-84637876D01*
X115175629Y-84648991D01*
X115049900Y-84674000D01*
X114921700Y-84674000D01*
X114795971Y-84648991D01*
X114769138Y-84637876D01*
X114677531Y-84599932D01*
X114570939Y-84528709D01*
X114570936Y-84528707D01*
X114480293Y-84438064D01*
X114409069Y-84331470D01*
X114409068Y-84331469D01*
X114360010Y-84213031D01*
X114360009Y-84213029D01*
X114335000Y-84087300D01*
X114335000Y-83959100D01*
X114360009Y-83833371D01*
X114371124Y-83806538D01*
X114409068Y-83714931D01*
X114480291Y-83608339D01*
X114480293Y-83608336D01*
X114570936Y-83517693D01*
X114633027Y-83476205D01*
X114677531Y-83446468D01*
X114795969Y-83397410D01*
X114795968Y-83397410D01*
X114795971Y-83397409D01*
X114921700Y-83372400D01*
X115049900Y-83372400D01*
X115175629Y-83397409D01*
X115175629Y-83397409D01*
G37*
G36*
X113096600Y-84674000D02*
X111795000Y-84674000D01*
X111795000Y-83372400D01*
X113096600Y-83372400D01*
X113096600Y-84674000D01*
X113096600Y-84674000D01*
G37*
G36*
X127875629Y-83397409D02*
X127875632Y-83397410D01*
X127875631Y-83397410D01*
X127994069Y-83446468D01*
X128038573Y-83476205D01*
X128100664Y-83517693D01*
X128191307Y-83608336D01*
X128191309Y-83608339D01*
X128262532Y-83714931D01*
X128300476Y-83806538D01*
X128311591Y-83833371D01*
X128336600Y-83959100D01*
X128336600Y-84087300D01*
X128311591Y-84213029D01*
X128311590Y-84213031D01*
X128262532Y-84331469D01*
X128262531Y-84331470D01*
X128191307Y-84438064D01*
X128100664Y-84528707D01*
X128100661Y-84528709D01*
X127994069Y-84599932D01*
X127902462Y-84637876D01*
X127875629Y-84648991D01*
X127749900Y-84674000D01*
X127621700Y-84674000D01*
X127495971Y-84648991D01*
X127469138Y-84637876D01*
X127377531Y-84599932D01*
X127270939Y-84528709D01*
X127270936Y-84528707D01*
X127180293Y-84438064D01*
X127109069Y-84331470D01*
X127109068Y-84331469D01*
X127060010Y-84213031D01*
X127060009Y-84213029D01*
X127035000Y-84087300D01*
X127035000Y-83959100D01*
X127060009Y-83833371D01*
X127071124Y-83806538D01*
X127109068Y-83714931D01*
X127180291Y-83608339D01*
X127180293Y-83608336D01*
X127270936Y-83517693D01*
X127333027Y-83476205D01*
X127377531Y-83446468D01*
X127495969Y-83397410D01*
X127495968Y-83397410D01*
X127495971Y-83397409D01*
X127621700Y-83372400D01*
X127749900Y-83372400D01*
X127875629Y-83397409D01*
X127875629Y-83397409D01*
G37*
G36*
X155786705Y-83122091D02*
X155786707Y-83122092D01*
X155786708Y-83122092D01*
X155918795Y-83176804D01*
X155918796Y-83176805D01*
X156037674Y-83256236D01*
X156138764Y-83357326D01*
X156138766Y-83357329D01*
X156218196Y-83476205D01*
X156272908Y-83608292D01*
X156272909Y-83608295D01*
X156300800Y-83748513D01*
X156300800Y-83891487D01*
X156287351Y-83959102D01*
X156272908Y-84031708D01*
X156218196Y-84163795D01*
X156218195Y-84163796D01*
X156138764Y-84282674D01*
X156037674Y-84383764D01*
X156037671Y-84383766D01*
X155918795Y-84463196D01*
X155786708Y-84517908D01*
X155786707Y-84517908D01*
X155786705Y-84517909D01*
X155646487Y-84545800D01*
X155503513Y-84545800D01*
X155363295Y-84517909D01*
X155363293Y-84517908D01*
X155363292Y-84517908D01*
X155231205Y-84463196D01*
X155112329Y-84383766D01*
X155112326Y-84383764D01*
X155011236Y-84282674D01*
X154931805Y-84163796D01*
X154931804Y-84163795D01*
X154877092Y-84031708D01*
X154862650Y-83959102D01*
X154849200Y-83891487D01*
X154849200Y-83748513D01*
X154877091Y-83608295D01*
X154877092Y-83608292D01*
X154931804Y-83476205D01*
X155011234Y-83357329D01*
X155011236Y-83357326D01*
X155112326Y-83256236D01*
X155231204Y-83176805D01*
X155231205Y-83176804D01*
X155363292Y-83122092D01*
X155363293Y-83122092D01*
X155363295Y-83122091D01*
X155503513Y-83094200D01*
X155646487Y-83094200D01*
X155786705Y-83122091D01*
X155786705Y-83122091D01*
G37*
G36*
X148166705Y-83122091D02*
X148166707Y-83122092D01*
X148166708Y-83122092D01*
X148298795Y-83176804D01*
X148298796Y-83176805D01*
X148417674Y-83256236D01*
X148518764Y-83357326D01*
X148518766Y-83357329D01*
X148598196Y-83476205D01*
X148652908Y-83608292D01*
X148652909Y-83608295D01*
X148680800Y-83748513D01*
X148680800Y-83891487D01*
X148667351Y-83959102D01*
X148652908Y-84031708D01*
X148598196Y-84163795D01*
X148598195Y-84163796D01*
X148518764Y-84282674D01*
X148417674Y-84383764D01*
X148417671Y-84383766D01*
X148298795Y-84463196D01*
X148166708Y-84517908D01*
X148166707Y-84517908D01*
X148166705Y-84517909D01*
X148026487Y-84545800D01*
X147883513Y-84545800D01*
X147743295Y-84517909D01*
X147743293Y-84517908D01*
X147743292Y-84517908D01*
X147611205Y-84463196D01*
X147492329Y-84383766D01*
X147492326Y-84383764D01*
X147391236Y-84282674D01*
X147311805Y-84163796D01*
X147311804Y-84163795D01*
X147257092Y-84031708D01*
X147242650Y-83959102D01*
X147229200Y-83891487D01*
X147229200Y-83748513D01*
X147257091Y-83608295D01*
X147257092Y-83608292D01*
X147311804Y-83476205D01*
X147391234Y-83357329D01*
X147391236Y-83357326D01*
X147492326Y-83256236D01*
X147611204Y-83176805D01*
X147611205Y-83176804D01*
X147743292Y-83122092D01*
X147743293Y-83122092D01*
X147743295Y-83122091D01*
X147883513Y-83094200D01*
X148026487Y-83094200D01*
X148166705Y-83122091D01*
X148166705Y-83122091D01*
G37*
G36*
X148166705Y-80582091D02*
X148166707Y-80582092D01*
X148166708Y-80582092D01*
X148298795Y-80636804D01*
X148298796Y-80636805D01*
X148417674Y-80716236D01*
X148518764Y-80817326D01*
X148518766Y-80817329D01*
X148598196Y-80936205D01*
X148652908Y-81068292D01*
X148680800Y-81208515D01*
X148680800Y-81351485D01*
X148652908Y-81491708D01*
X148598196Y-81623795D01*
X148598195Y-81623796D01*
X148518764Y-81742674D01*
X148417674Y-81843764D01*
X148417671Y-81843766D01*
X148298795Y-81923196D01*
X148166708Y-81977908D01*
X148166707Y-81977908D01*
X148166705Y-81977909D01*
X148026487Y-82005800D01*
X147883513Y-82005800D01*
X147743295Y-81977909D01*
X147743293Y-81977908D01*
X147743292Y-81977908D01*
X147611205Y-81923196D01*
X147492329Y-81843766D01*
X147492326Y-81843764D01*
X147391236Y-81742674D01*
X147311805Y-81623796D01*
X147311804Y-81623795D01*
X147257092Y-81491708D01*
X147229200Y-81351485D01*
X147229200Y-81208515D01*
X147257092Y-81068292D01*
X147311804Y-80936205D01*
X147391234Y-80817329D01*
X147391236Y-80817326D01*
X147492326Y-80716236D01*
X147611204Y-80636805D01*
X147611205Y-80636804D01*
X147743292Y-80582092D01*
X147743293Y-80582092D01*
X147743295Y-80582091D01*
X147883513Y-80554200D01*
X148026487Y-80554200D01*
X148166705Y-80582091D01*
X148166705Y-80582091D01*
G37*
G36*
X155786705Y-80582091D02*
X155786707Y-80582092D01*
X155786708Y-80582092D01*
X155918795Y-80636804D01*
X155918796Y-80636805D01*
X156037674Y-80716236D01*
X156138764Y-80817326D01*
X156138766Y-80817329D01*
X156218196Y-80936205D01*
X156272908Y-81068292D01*
X156300800Y-81208515D01*
X156300800Y-81351485D01*
X156272908Y-81491708D01*
X156218196Y-81623795D01*
X156218195Y-81623796D01*
X156138764Y-81742674D01*
X156037674Y-81843764D01*
X156037671Y-81843766D01*
X155918795Y-81923196D01*
X155786708Y-81977908D01*
X155786707Y-81977908D01*
X155786705Y-81977909D01*
X155646487Y-82005800D01*
X155503513Y-82005800D01*
X155363295Y-81977909D01*
X155363293Y-81977908D01*
X155363292Y-81977908D01*
X155231205Y-81923196D01*
X155112329Y-81843766D01*
X155112326Y-81843764D01*
X155011236Y-81742674D01*
X154931805Y-81623796D01*
X154931804Y-81623795D01*
X154877092Y-81491708D01*
X154849200Y-81351485D01*
X154849200Y-81208515D01*
X154877092Y-81068292D01*
X154931804Y-80936205D01*
X155011234Y-80817329D01*
X155011236Y-80817326D01*
X155112326Y-80716236D01*
X155231204Y-80636805D01*
X155231205Y-80636804D01*
X155363292Y-80582092D01*
X155363293Y-80582092D01*
X155363295Y-80582091D01*
X155503513Y-80554200D01*
X155646487Y-80554200D01*
X155786705Y-80582091D01*
X155786705Y-80582091D01*
G37*
G36*
X188174000Y-80306800D02*
X183072400Y-80306800D01*
X183072400Y-79205200D01*
X188174000Y-79205200D01*
X188174000Y-80306800D01*
X188174000Y-80306800D01*
G37*
G36*
X148166705Y-78042091D02*
X148166707Y-78042092D01*
X148166708Y-78042092D01*
X148298795Y-78096804D01*
X148298796Y-78096805D01*
X148417674Y-78176236D01*
X148518764Y-78277326D01*
X148518766Y-78277329D01*
X148598196Y-78396205D01*
X148652908Y-78528292D01*
X148680800Y-78668515D01*
X148680800Y-78811485D01*
X148652908Y-78951708D01*
X148598196Y-79083795D01*
X148598195Y-79083796D01*
X148518764Y-79202674D01*
X148417674Y-79303764D01*
X148417671Y-79303766D01*
X148298795Y-79383196D01*
X148166708Y-79437908D01*
X148166707Y-79437908D01*
X148166705Y-79437909D01*
X148026487Y-79465800D01*
X147883513Y-79465800D01*
X147743295Y-79437909D01*
X147743293Y-79437908D01*
X147743292Y-79437908D01*
X147611205Y-79383196D01*
X147492329Y-79303766D01*
X147492326Y-79303764D01*
X147391236Y-79202674D01*
X147311805Y-79083796D01*
X147311804Y-79083795D01*
X147257092Y-78951708D01*
X147229200Y-78811485D01*
X147229200Y-78668515D01*
X147257092Y-78528292D01*
X147311804Y-78396205D01*
X147391234Y-78277329D01*
X147391236Y-78277326D01*
X147492326Y-78176236D01*
X147611204Y-78096805D01*
X147611205Y-78096804D01*
X147743292Y-78042092D01*
X147743293Y-78042092D01*
X147743295Y-78042091D01*
X147883513Y-78014200D01*
X148026487Y-78014200D01*
X148166705Y-78042091D01*
X148166705Y-78042091D01*
G37*
G36*
X155786705Y-78042091D02*
X155786707Y-78042092D01*
X155786708Y-78042092D01*
X155918795Y-78096804D01*
X155918796Y-78096805D01*
X156037674Y-78176236D01*
X156138764Y-78277326D01*
X156138766Y-78277329D01*
X156218196Y-78396205D01*
X156272908Y-78528292D01*
X156300800Y-78668515D01*
X156300800Y-78811485D01*
X156272908Y-78951708D01*
X156218196Y-79083795D01*
X156218195Y-79083796D01*
X156138764Y-79202674D01*
X156037674Y-79303764D01*
X156037671Y-79303766D01*
X155918795Y-79383196D01*
X155786708Y-79437908D01*
X155786707Y-79437908D01*
X155786705Y-79437909D01*
X155646487Y-79465800D01*
X155503513Y-79465800D01*
X155363295Y-79437909D01*
X155363293Y-79437908D01*
X155363292Y-79437908D01*
X155231205Y-79383196D01*
X155112329Y-79303766D01*
X155112326Y-79303764D01*
X155011236Y-79202674D01*
X154931805Y-79083796D01*
X154931804Y-79083795D01*
X154877092Y-78951708D01*
X154849200Y-78811485D01*
X154849200Y-78668515D01*
X154877092Y-78528292D01*
X154931804Y-78396205D01*
X155011234Y-78277329D01*
X155011236Y-78277326D01*
X155112326Y-78176236D01*
X155231204Y-78096805D01*
X155231205Y-78096804D01*
X155363292Y-78042092D01*
X155363293Y-78042092D01*
X155363295Y-78042091D01*
X155503513Y-78014200D01*
X155646487Y-78014200D01*
X155786705Y-78042091D01*
X155786705Y-78042091D01*
G37*
G36*
X188174000Y-77766800D02*
X183072400Y-77766800D01*
X183072400Y-76665200D01*
X188174000Y-76665200D01*
X188174000Y-77766800D01*
X188174000Y-77766800D01*
G37*
G36*
X148166705Y-75502091D02*
X148166707Y-75502092D01*
X148166708Y-75502092D01*
X148298795Y-75556804D01*
X148298796Y-75556805D01*
X148417674Y-75636236D01*
X148518764Y-75737326D01*
X148518766Y-75737329D01*
X148598196Y-75856205D01*
X148652908Y-75988292D01*
X148680800Y-76128515D01*
X148680800Y-76271485D01*
X148652908Y-76411708D01*
X148598196Y-76543795D01*
X148598195Y-76543796D01*
X148518764Y-76662674D01*
X148417674Y-76763764D01*
X148417671Y-76763766D01*
X148298795Y-76843196D01*
X148166708Y-76897908D01*
X148166707Y-76897908D01*
X148166705Y-76897909D01*
X148026487Y-76925800D01*
X147883513Y-76925800D01*
X147743295Y-76897909D01*
X147743293Y-76897908D01*
X147743292Y-76897908D01*
X147611205Y-76843196D01*
X147492329Y-76763766D01*
X147492326Y-76763764D01*
X147391236Y-76662674D01*
X147311805Y-76543796D01*
X147311804Y-76543795D01*
X147257092Y-76411708D01*
X147229200Y-76271485D01*
X147229200Y-76128515D01*
X147257092Y-75988292D01*
X147311804Y-75856205D01*
X147391234Y-75737329D01*
X147391236Y-75737326D01*
X147492326Y-75636236D01*
X147611204Y-75556805D01*
X147611205Y-75556804D01*
X147743292Y-75502092D01*
X147743293Y-75502092D01*
X147743295Y-75502091D01*
X147883513Y-75474200D01*
X148026487Y-75474200D01*
X148166705Y-75502091D01*
X148166705Y-75502091D01*
G37*
G36*
X155786705Y-75502091D02*
X155786707Y-75502092D01*
X155786708Y-75502092D01*
X155918795Y-75556804D01*
X155918796Y-75556805D01*
X156037674Y-75636236D01*
X156138764Y-75737326D01*
X156138766Y-75737329D01*
X156218196Y-75856205D01*
X156272908Y-75988292D01*
X156300800Y-76128515D01*
X156300800Y-76271485D01*
X156272908Y-76411708D01*
X156218196Y-76543795D01*
X156218195Y-76543796D01*
X156138764Y-76662674D01*
X156037674Y-76763764D01*
X156037671Y-76763766D01*
X155918795Y-76843196D01*
X155786708Y-76897908D01*
X155786707Y-76897908D01*
X155786705Y-76897909D01*
X155646487Y-76925800D01*
X155503513Y-76925800D01*
X155363295Y-76897909D01*
X155363293Y-76897908D01*
X155363292Y-76897908D01*
X155231205Y-76843196D01*
X155112329Y-76763766D01*
X155112326Y-76763764D01*
X155011236Y-76662674D01*
X154931805Y-76543796D01*
X154931804Y-76543795D01*
X154877092Y-76411708D01*
X154849200Y-76271485D01*
X154849200Y-76128515D01*
X154877092Y-75988292D01*
X154931804Y-75856205D01*
X155011234Y-75737329D01*
X155011236Y-75737326D01*
X155112326Y-75636236D01*
X155231204Y-75556805D01*
X155231205Y-75556804D01*
X155363292Y-75502092D01*
X155363293Y-75502092D01*
X155363295Y-75502091D01*
X155503513Y-75474200D01*
X155646487Y-75474200D01*
X155786705Y-75502091D01*
X155786705Y-75502091D01*
G37*
G36*
X162663000Y-76289600D02*
X159561400Y-76289600D01*
X159561400Y-74688000D01*
X162663000Y-74688000D01*
X162663000Y-76289600D01*
X162663000Y-76289600D01*
G37*
G36*
X188174000Y-75226800D02*
X183072400Y-75226800D01*
X183072400Y-74125200D01*
X188174000Y-74125200D01*
X188174000Y-75226800D01*
X188174000Y-75226800D01*
G37*
G36*
X125335629Y-73237409D02*
X125335632Y-73237410D01*
X125335631Y-73237410D01*
X125454069Y-73286468D01*
X125498573Y-73316205D01*
X125560664Y-73357693D01*
X125651307Y-73448336D01*
X125651309Y-73448339D01*
X125722532Y-73554931D01*
X125760476Y-73646538D01*
X125771591Y-73673371D01*
X125796600Y-73799100D01*
X125796600Y-73927300D01*
X125771591Y-74053029D01*
X125771590Y-74053031D01*
X125722532Y-74171469D01*
X125722531Y-74171470D01*
X125651307Y-74278064D01*
X125560664Y-74368707D01*
X125560661Y-74368709D01*
X125454069Y-74439932D01*
X125362462Y-74477876D01*
X125335629Y-74488991D01*
X125209900Y-74514000D01*
X125081700Y-74514000D01*
X124955971Y-74488991D01*
X124929138Y-74477876D01*
X124837531Y-74439932D01*
X124730939Y-74368709D01*
X124730936Y-74368707D01*
X124640293Y-74278064D01*
X124569069Y-74171470D01*
X124569068Y-74171469D01*
X124520010Y-74053031D01*
X124520009Y-74053029D01*
X124495000Y-73927300D01*
X124495000Y-73799100D01*
X124520009Y-73673371D01*
X124531124Y-73646538D01*
X124569068Y-73554931D01*
X124640291Y-73448339D01*
X124640293Y-73448336D01*
X124730936Y-73357693D01*
X124793027Y-73316205D01*
X124837531Y-73286468D01*
X124955969Y-73237410D01*
X124955968Y-73237410D01*
X124955971Y-73237409D01*
X125081700Y-73212400D01*
X125209900Y-73212400D01*
X125335629Y-73237409D01*
X125335629Y-73237409D01*
G37*
G36*
X130415629Y-73237409D02*
X130415632Y-73237410D01*
X130415631Y-73237410D01*
X130534069Y-73286468D01*
X130578573Y-73316205D01*
X130640664Y-73357693D01*
X130731307Y-73448336D01*
X130731309Y-73448339D01*
X130802532Y-73554931D01*
X130840476Y-73646538D01*
X130851591Y-73673371D01*
X130876600Y-73799100D01*
X130876600Y-73927300D01*
X130851591Y-74053029D01*
X130851590Y-74053031D01*
X130802532Y-74171469D01*
X130802531Y-74171470D01*
X130731307Y-74278064D01*
X130640664Y-74368707D01*
X130640661Y-74368709D01*
X130534069Y-74439932D01*
X130442462Y-74477876D01*
X130415629Y-74488991D01*
X130289900Y-74514000D01*
X130161700Y-74514000D01*
X130035971Y-74488991D01*
X130009138Y-74477876D01*
X129917531Y-74439932D01*
X129810939Y-74368709D01*
X129810936Y-74368707D01*
X129720293Y-74278064D01*
X129649069Y-74171470D01*
X129649068Y-74171469D01*
X129600010Y-74053031D01*
X129600009Y-74053029D01*
X129575000Y-73927300D01*
X129575000Y-73799100D01*
X129600009Y-73673371D01*
X129611124Y-73646538D01*
X129649068Y-73554931D01*
X129720291Y-73448339D01*
X129720293Y-73448336D01*
X129810936Y-73357693D01*
X129873027Y-73316205D01*
X129917531Y-73286468D01*
X130035969Y-73237410D01*
X130035968Y-73237410D01*
X130035971Y-73237409D01*
X130161700Y-73212400D01*
X130289900Y-73212400D01*
X130415629Y-73237409D01*
X130415629Y-73237409D01*
G37*
G36*
X112635629Y-73237409D02*
X112635632Y-73237410D01*
X112635631Y-73237410D01*
X112754069Y-73286468D01*
X112798573Y-73316205D01*
X112860664Y-73357693D01*
X112951307Y-73448336D01*
X112951309Y-73448339D01*
X113022532Y-73554931D01*
X113060476Y-73646538D01*
X113071591Y-73673371D01*
X113096600Y-73799100D01*
X113096600Y-73927300D01*
X113071591Y-74053029D01*
X113071590Y-74053031D01*
X113022532Y-74171469D01*
X113022531Y-74171470D01*
X112951307Y-74278064D01*
X112860664Y-74368707D01*
X112860661Y-74368709D01*
X112754069Y-74439932D01*
X112662462Y-74477876D01*
X112635629Y-74488991D01*
X112509900Y-74514000D01*
X112381700Y-74514000D01*
X112255971Y-74488991D01*
X112229138Y-74477876D01*
X112137531Y-74439932D01*
X112030939Y-74368709D01*
X112030936Y-74368707D01*
X111940293Y-74278064D01*
X111869069Y-74171470D01*
X111869068Y-74171469D01*
X111820010Y-74053031D01*
X111820009Y-74053029D01*
X111795000Y-73927300D01*
X111795000Y-73799100D01*
X111820009Y-73673371D01*
X111831124Y-73646538D01*
X111869068Y-73554931D01*
X111940291Y-73448339D01*
X111940293Y-73448336D01*
X112030936Y-73357693D01*
X112093027Y-73316205D01*
X112137531Y-73286468D01*
X112255969Y-73237410D01*
X112255968Y-73237410D01*
X112255971Y-73237409D01*
X112381700Y-73212400D01*
X112509900Y-73212400D01*
X112635629Y-73237409D01*
X112635629Y-73237409D01*
G37*
G36*
X115175629Y-73237409D02*
X115175632Y-73237410D01*
X115175631Y-73237410D01*
X115294069Y-73286468D01*
X115338573Y-73316205D01*
X115400664Y-73357693D01*
X115491307Y-73448336D01*
X115491309Y-73448339D01*
X115562532Y-73554931D01*
X115600476Y-73646538D01*
X115611591Y-73673371D01*
X115636600Y-73799100D01*
X115636600Y-73927300D01*
X115611591Y-74053029D01*
X115611590Y-74053031D01*
X115562532Y-74171469D01*
X115562531Y-74171470D01*
X115491307Y-74278064D01*
X115400664Y-74368707D01*
X115400661Y-74368709D01*
X115294069Y-74439932D01*
X115202462Y-74477876D01*
X115175629Y-74488991D01*
X115049900Y-74514000D01*
X114921700Y-74514000D01*
X114795971Y-74488991D01*
X114769138Y-74477876D01*
X114677531Y-74439932D01*
X114570939Y-74368709D01*
X114570936Y-74368707D01*
X114480293Y-74278064D01*
X114409069Y-74171470D01*
X114409068Y-74171469D01*
X114360010Y-74053031D01*
X114360009Y-74053029D01*
X114335000Y-73927300D01*
X114335000Y-73799100D01*
X114360009Y-73673371D01*
X114371124Y-73646538D01*
X114409068Y-73554931D01*
X114480291Y-73448339D01*
X114480293Y-73448336D01*
X114570936Y-73357693D01*
X114633027Y-73316205D01*
X114677531Y-73286468D01*
X114795969Y-73237410D01*
X114795968Y-73237410D01*
X114795971Y-73237409D01*
X114921700Y-73212400D01*
X115049900Y-73212400D01*
X115175629Y-73237409D01*
X115175629Y-73237409D01*
G37*
G36*
X117715629Y-73237409D02*
X117715632Y-73237410D01*
X117715631Y-73237410D01*
X117834069Y-73286468D01*
X117878573Y-73316205D01*
X117940664Y-73357693D01*
X118031307Y-73448336D01*
X118031309Y-73448339D01*
X118102532Y-73554931D01*
X118140476Y-73646538D01*
X118151591Y-73673371D01*
X118176600Y-73799100D01*
X118176600Y-73927300D01*
X118151591Y-74053029D01*
X118151590Y-74053031D01*
X118102532Y-74171469D01*
X118102531Y-74171470D01*
X118031307Y-74278064D01*
X117940664Y-74368707D01*
X117940661Y-74368709D01*
X117834069Y-74439932D01*
X117742462Y-74477876D01*
X117715629Y-74488991D01*
X117589900Y-74514000D01*
X117461700Y-74514000D01*
X117335971Y-74488991D01*
X117309138Y-74477876D01*
X117217531Y-74439932D01*
X117110939Y-74368709D01*
X117110936Y-74368707D01*
X117020293Y-74278064D01*
X116949069Y-74171470D01*
X116949068Y-74171469D01*
X116900010Y-74053031D01*
X116900009Y-74053029D01*
X116875000Y-73927300D01*
X116875000Y-73799100D01*
X116900009Y-73673371D01*
X116911124Y-73646538D01*
X116949068Y-73554931D01*
X117020291Y-73448339D01*
X117020293Y-73448336D01*
X117110936Y-73357693D01*
X117173027Y-73316205D01*
X117217531Y-73286468D01*
X117335969Y-73237410D01*
X117335968Y-73237410D01*
X117335971Y-73237409D01*
X117461700Y-73212400D01*
X117589900Y-73212400D01*
X117715629Y-73237409D01*
X117715629Y-73237409D01*
G37*
G36*
X120255629Y-73237409D02*
X120255632Y-73237410D01*
X120255631Y-73237410D01*
X120374069Y-73286468D01*
X120418573Y-73316205D01*
X120480664Y-73357693D01*
X120571307Y-73448336D01*
X120571309Y-73448339D01*
X120642532Y-73554931D01*
X120680476Y-73646538D01*
X120691591Y-73673371D01*
X120716600Y-73799100D01*
X120716600Y-73927300D01*
X120691591Y-74053029D01*
X120691590Y-74053031D01*
X120642532Y-74171469D01*
X120642531Y-74171470D01*
X120571307Y-74278064D01*
X120480664Y-74368707D01*
X120480661Y-74368709D01*
X120374069Y-74439932D01*
X120282462Y-74477876D01*
X120255629Y-74488991D01*
X120129900Y-74514000D01*
X120001700Y-74514000D01*
X119875971Y-74488991D01*
X119849138Y-74477876D01*
X119757531Y-74439932D01*
X119650939Y-74368709D01*
X119650936Y-74368707D01*
X119560293Y-74278064D01*
X119489069Y-74171470D01*
X119489068Y-74171469D01*
X119440010Y-74053031D01*
X119440009Y-74053029D01*
X119415000Y-73927300D01*
X119415000Y-73799100D01*
X119440009Y-73673371D01*
X119451124Y-73646538D01*
X119489068Y-73554931D01*
X119560291Y-73448339D01*
X119560293Y-73448336D01*
X119650936Y-73357693D01*
X119713027Y-73316205D01*
X119757531Y-73286468D01*
X119875969Y-73237410D01*
X119875968Y-73237410D01*
X119875971Y-73237409D01*
X120001700Y-73212400D01*
X120129900Y-73212400D01*
X120255629Y-73237409D01*
X120255629Y-73237409D01*
G37*
G36*
X122795629Y-73237409D02*
X122795632Y-73237410D01*
X122795631Y-73237410D01*
X122914069Y-73286468D01*
X122958573Y-73316205D01*
X123020664Y-73357693D01*
X123111307Y-73448336D01*
X123111309Y-73448339D01*
X123182532Y-73554931D01*
X123220476Y-73646538D01*
X123231591Y-73673371D01*
X123256600Y-73799100D01*
X123256600Y-73927300D01*
X123231591Y-74053029D01*
X123231590Y-74053031D01*
X123182532Y-74171469D01*
X123182531Y-74171470D01*
X123111307Y-74278064D01*
X123020664Y-74368707D01*
X123020661Y-74368709D01*
X122914069Y-74439932D01*
X122822462Y-74477876D01*
X122795629Y-74488991D01*
X122669900Y-74514000D01*
X122541700Y-74514000D01*
X122415971Y-74488991D01*
X122389138Y-74477876D01*
X122297531Y-74439932D01*
X122190939Y-74368709D01*
X122190936Y-74368707D01*
X122100293Y-74278064D01*
X122029069Y-74171470D01*
X122029068Y-74171469D01*
X121980010Y-74053031D01*
X121980009Y-74053029D01*
X121955000Y-73927300D01*
X121955000Y-73799100D01*
X121980009Y-73673371D01*
X121991124Y-73646538D01*
X122029068Y-73554931D01*
X122100291Y-73448339D01*
X122100293Y-73448336D01*
X122190936Y-73357693D01*
X122253027Y-73316205D01*
X122297531Y-73286468D01*
X122415969Y-73237410D01*
X122415968Y-73237410D01*
X122415971Y-73237409D01*
X122541700Y-73212400D01*
X122669900Y-73212400D01*
X122795629Y-73237409D01*
X122795629Y-73237409D01*
G37*
G36*
X127875629Y-73237409D02*
X127875632Y-73237410D01*
X127875631Y-73237410D01*
X127994069Y-73286468D01*
X128038573Y-73316205D01*
X128100664Y-73357693D01*
X128191307Y-73448336D01*
X128191309Y-73448339D01*
X128262532Y-73554931D01*
X128300476Y-73646538D01*
X128311591Y-73673371D01*
X128336600Y-73799100D01*
X128336600Y-73927300D01*
X128311591Y-74053029D01*
X128311590Y-74053031D01*
X128262532Y-74171469D01*
X128262531Y-74171470D01*
X128191307Y-74278064D01*
X128100664Y-74368707D01*
X128100661Y-74368709D01*
X127994069Y-74439932D01*
X127902462Y-74477876D01*
X127875629Y-74488991D01*
X127749900Y-74514000D01*
X127621700Y-74514000D01*
X127495971Y-74488991D01*
X127469138Y-74477876D01*
X127377531Y-74439932D01*
X127270939Y-74368709D01*
X127270936Y-74368707D01*
X127180293Y-74278064D01*
X127109069Y-74171470D01*
X127109068Y-74171469D01*
X127060010Y-74053031D01*
X127060009Y-74053029D01*
X127035000Y-73927300D01*
X127035000Y-73799100D01*
X127060009Y-73673371D01*
X127071124Y-73646538D01*
X127109068Y-73554931D01*
X127180291Y-73448339D01*
X127180293Y-73448336D01*
X127270936Y-73357693D01*
X127333027Y-73316205D01*
X127377531Y-73286468D01*
X127495969Y-73237410D01*
X127495968Y-73237410D01*
X127495971Y-73237409D01*
X127621700Y-73212400D01*
X127749900Y-73212400D01*
X127875629Y-73237409D01*
X127875629Y-73237409D01*
G37*
G36*
X148680800Y-74385800D02*
X147229200Y-74385800D01*
X147229200Y-72934200D01*
X148680800Y-72934200D01*
X148680800Y-74385800D01*
X148680800Y-74385800D01*
G37*
G36*
X155786705Y-72962091D02*
X155786707Y-72962092D01*
X155786708Y-72962092D01*
X155918795Y-73016804D01*
X155918796Y-73016805D01*
X156037674Y-73096236D01*
X156138764Y-73197326D01*
X156138766Y-73197329D01*
X156218196Y-73316205D01*
X156272908Y-73448292D01*
X156272909Y-73448295D01*
X156300800Y-73588513D01*
X156300800Y-73731487D01*
X156287351Y-73799102D01*
X156272908Y-73871708D01*
X156218196Y-74003795D01*
X156218195Y-74003796D01*
X156138764Y-74122674D01*
X156037674Y-74223764D01*
X156037671Y-74223766D01*
X155918795Y-74303196D01*
X155786708Y-74357908D01*
X155786707Y-74357908D01*
X155786705Y-74357909D01*
X155646487Y-74385800D01*
X155503513Y-74385800D01*
X155363295Y-74357909D01*
X155363293Y-74357908D01*
X155363292Y-74357908D01*
X155231205Y-74303196D01*
X155112329Y-74223766D01*
X155112326Y-74223764D01*
X155011236Y-74122674D01*
X154931805Y-74003796D01*
X154931804Y-74003795D01*
X154877092Y-73871708D01*
X154862650Y-73799102D01*
X154849200Y-73731487D01*
X154849200Y-73588513D01*
X154877091Y-73448295D01*
X154877092Y-73448292D01*
X154931804Y-73316205D01*
X155011234Y-73197329D01*
X155011236Y-73197326D01*
X155112326Y-73096236D01*
X155231204Y-73016805D01*
X155231205Y-73016804D01*
X155363292Y-72962092D01*
X155363293Y-72962092D01*
X155363295Y-72962091D01*
X155503513Y-72934200D01*
X155646487Y-72934200D01*
X155786705Y-72962091D01*
X155786705Y-72962091D01*
G37*
G36*
X162663000Y-73749600D02*
X159561400Y-73749600D01*
X159561400Y-72148000D01*
X162663000Y-72148000D01*
X162663000Y-73749600D01*
X162663000Y-73749600D01*
G37*
M02*
