G04 #@! TF.GenerationSoftware,KiCad,Pcbnew,(5.0.2)-1*
G04 #@! TF.CreationDate,2019-11-03T18:05:40-05:00*
G04 #@! TF.ProjectId,bin2hex,62696e32-6865-4782-9e6b-696361645f70,v01*
G04 #@! TF.SameCoordinates,Original*
G04 #@! TF.FileFunction,Legend,Top*
G04 #@! TF.FilePolarity,Positive*
%FSLAX46Y46*%
G04 Gerber Fmt 4.6, Leading zero omitted, Abs format (unit mm)*
G04 Created by KiCad (PCBNEW (5.0.2)-1) date 11/3/2019 6:05:40 PM*
%MOMM*%
%LPD*%
G01*
G04 APERTURE LIST*
%ADD10C,0.300000*%
%ADD11C,0.317500*%
%ADD12C,0.508000*%
%ADD13C,0.250000*%
%ADD14C,0.200000*%
%ADD15C,0.100000*%
%ADD16C,0.120000*%
%ADD17C,0.152400*%
%ADD18C,0.127000*%
%ADD19C,0.150000*%
%ADD20C,0.254000*%
%ADD21C,0.050000*%
G04 APERTURE END LIST*
D10*
X115726428Y-87372000D02*
X116440714Y-87372000D01*
X115583571Y-87800571D02*
X116083571Y-86300571D01*
X116583571Y-87800571D01*
X117083571Y-86800571D02*
X117083571Y-87800571D01*
X117083571Y-86943428D02*
X117155000Y-86872000D01*
X117297857Y-86800571D01*
X117512142Y-86800571D01*
X117655000Y-86872000D01*
X117726428Y-87014857D01*
X117726428Y-87800571D01*
X119512142Y-86300571D02*
X119512142Y-86586285D01*
X120083571Y-86300571D02*
X120083571Y-86586285D01*
X120726428Y-86300571D02*
X120726428Y-87514857D01*
X120797857Y-87657714D01*
X120869285Y-87729142D01*
X121012142Y-87800571D01*
X121297857Y-87800571D01*
X121440714Y-87729142D01*
X121512142Y-87657714D01*
X121583571Y-87514857D01*
X121583571Y-86300571D01*
X122297857Y-86800571D02*
X122297857Y-87800571D01*
X122297857Y-86943428D02*
X122369285Y-86872000D01*
X122512142Y-86800571D01*
X122726428Y-86800571D01*
X122869285Y-86872000D01*
X122940714Y-87014857D01*
X122940714Y-87800571D01*
X123655000Y-87800571D02*
X123655000Y-86300571D01*
X123797857Y-87229142D02*
X124226428Y-87800571D01*
X124226428Y-86800571D02*
X123655000Y-87372000D01*
X125440714Y-87729142D02*
X125297857Y-87800571D01*
X125012142Y-87800571D01*
X124869285Y-87729142D01*
X124797857Y-87586285D01*
X124797857Y-87014857D01*
X124869285Y-86872000D01*
X125012142Y-86800571D01*
X125297857Y-86800571D01*
X125440714Y-86872000D01*
X125512142Y-87014857D01*
X125512142Y-87157714D01*
X124797857Y-87300571D01*
X126155000Y-87800571D02*
X126155000Y-86800571D01*
X126155000Y-87086285D02*
X126226428Y-86943428D01*
X126297857Y-86872000D01*
X126440714Y-86800571D01*
X126583571Y-86800571D01*
X128226428Y-87800571D02*
X128226428Y-86300571D01*
X128726428Y-87372000D01*
X129226428Y-86300571D01*
X129226428Y-87800571D01*
X130583571Y-87800571D02*
X130583571Y-87014857D01*
X130512142Y-86872000D01*
X130369285Y-86800571D01*
X130083571Y-86800571D01*
X129940714Y-86872000D01*
X130583571Y-87729142D02*
X130440714Y-87800571D01*
X130083571Y-87800571D01*
X129940714Y-87729142D01*
X129869285Y-87586285D01*
X129869285Y-87443428D01*
X129940714Y-87300571D01*
X130083571Y-87229142D01*
X130440714Y-87229142D01*
X130583571Y-87157714D01*
X131083571Y-86800571D02*
X131655000Y-86800571D01*
X131297857Y-86300571D02*
X131297857Y-87586285D01*
X131369285Y-87729142D01*
X131512142Y-87800571D01*
X131655000Y-87800571D01*
X131940714Y-86800571D02*
X132512142Y-86800571D01*
X132155000Y-86300571D02*
X132155000Y-87586285D01*
X132226428Y-87729142D01*
X132369285Y-87800571D01*
X132512142Y-87800571D01*
X132940714Y-86300571D02*
X132940714Y-86586285D01*
X133512142Y-86300571D02*
X133512142Y-86586285D01*
X135297857Y-87800571D02*
X135297857Y-86300571D01*
X135655000Y-86300571D01*
X135869285Y-86372000D01*
X136012142Y-86514857D01*
X136083571Y-86657714D01*
X136155000Y-86943428D01*
X136155000Y-87157714D01*
X136083571Y-87443428D01*
X136012142Y-87586285D01*
X135869285Y-87729142D01*
X135655000Y-87800571D01*
X135297857Y-87800571D01*
X137369285Y-87729142D02*
X137226428Y-87800571D01*
X136940714Y-87800571D01*
X136797857Y-87729142D01*
X136726428Y-87586285D01*
X136726428Y-87014857D01*
X136797857Y-86872000D01*
X136940714Y-86800571D01*
X137226428Y-86800571D01*
X137369285Y-86872000D01*
X137440714Y-87014857D01*
X137440714Y-87157714D01*
X136726428Y-87300571D01*
X138012142Y-87729142D02*
X138155000Y-87800571D01*
X138440714Y-87800571D01*
X138583571Y-87729142D01*
X138655000Y-87586285D01*
X138655000Y-87514857D01*
X138583571Y-87372000D01*
X138440714Y-87300571D01*
X138226428Y-87300571D01*
X138083571Y-87229142D01*
X138012142Y-87086285D01*
X138012142Y-87014857D01*
X138083571Y-86872000D01*
X138226428Y-86800571D01*
X138440714Y-86800571D01*
X138583571Y-86872000D01*
X139297857Y-87800571D02*
X139297857Y-86800571D01*
X139297857Y-86300571D02*
X139226428Y-86372000D01*
X139297857Y-86443428D01*
X139369285Y-86372000D01*
X139297857Y-86300571D01*
X139297857Y-86443428D01*
X140655000Y-86800571D02*
X140655000Y-88014857D01*
X140583571Y-88157714D01*
X140512142Y-88229142D01*
X140369285Y-88300571D01*
X140155000Y-88300571D01*
X140012142Y-88229142D01*
X140655000Y-87729142D02*
X140512142Y-87800571D01*
X140226428Y-87800571D01*
X140083571Y-87729142D01*
X140012142Y-87657714D01*
X139940714Y-87514857D01*
X139940714Y-87086285D01*
X140012142Y-86943428D01*
X140083571Y-86872000D01*
X140226428Y-86800571D01*
X140512142Y-86800571D01*
X140655000Y-86872000D01*
X141369285Y-86800571D02*
X141369285Y-87800571D01*
X141369285Y-86943428D02*
X141440714Y-86872000D01*
X141583571Y-86800571D01*
X141797857Y-86800571D01*
X141940714Y-86872000D01*
X142012142Y-87014857D01*
X142012142Y-87800571D01*
D11*
X141871095Y-112630857D02*
X142354904Y-112630857D01*
X142052523Y-113477523D02*
X142052523Y-112388952D01*
X142113000Y-112268000D01*
X142233952Y-112207523D01*
X142354904Y-112207523D01*
X142959666Y-113477523D02*
X142838714Y-113417047D01*
X142778238Y-113356571D01*
X142717761Y-113235619D01*
X142717761Y-112872761D01*
X142778238Y-112751809D01*
X142838714Y-112691333D01*
X142959666Y-112630857D01*
X143141095Y-112630857D01*
X143262047Y-112691333D01*
X143322523Y-112751809D01*
X143383000Y-112872761D01*
X143383000Y-113235619D01*
X143322523Y-113356571D01*
X143262047Y-113417047D01*
X143141095Y-113477523D01*
X142959666Y-113477523D01*
X143927285Y-113477523D02*
X143927285Y-112630857D01*
X143927285Y-112872761D02*
X143987761Y-112751809D01*
X144048238Y-112691333D01*
X144169190Y-112630857D01*
X144290142Y-112630857D01*
X146043952Y-112207523D02*
X146043952Y-113114666D01*
X145983476Y-113296095D01*
X145862523Y-113417047D01*
X145681095Y-113477523D01*
X145560142Y-113477523D01*
X146648714Y-113477523D02*
X146648714Y-112207523D01*
X147132523Y-112207523D01*
X147253476Y-112268000D01*
X147313952Y-112328476D01*
X147374428Y-112449428D01*
X147374428Y-112630857D01*
X147313952Y-112751809D01*
X147253476Y-112812285D01*
X147132523Y-112872761D01*
X146648714Y-112872761D01*
X147858238Y-113417047D02*
X148039666Y-113477523D01*
X148342047Y-113477523D01*
X148463000Y-113417047D01*
X148523476Y-113356571D01*
X148583952Y-113235619D01*
X148583952Y-113114666D01*
X148523476Y-112993714D01*
X148463000Y-112933238D01*
X148342047Y-112872761D01*
X148100142Y-112812285D01*
X147979190Y-112751809D01*
X147918714Y-112691333D01*
X147858238Y-112570380D01*
X147858238Y-112449428D01*
X147918714Y-112328476D01*
X147979190Y-112268000D01*
X148100142Y-112207523D01*
X148402523Y-112207523D01*
X148583952Y-112268000D01*
D12*
X129527904Y-109927571D02*
X129890761Y-110048523D01*
X130011714Y-110169476D01*
X130132666Y-110411380D01*
X130132666Y-110774238D01*
X130011714Y-111016142D01*
X129890761Y-111137095D01*
X129648857Y-111258047D01*
X128681238Y-111258047D01*
X128681238Y-108718047D01*
X129527904Y-108718047D01*
X129769809Y-108839000D01*
X129890761Y-108959952D01*
X130011714Y-109201857D01*
X130011714Y-109443761D01*
X129890761Y-109685666D01*
X129769809Y-109806619D01*
X129527904Y-109927571D01*
X128681238Y-109927571D01*
X131221238Y-111258047D02*
X131221238Y-109564714D01*
X131221238Y-108718047D02*
X131100285Y-108839000D01*
X131221238Y-108959952D01*
X131342190Y-108839000D01*
X131221238Y-108718047D01*
X131221238Y-108959952D01*
X132430761Y-109564714D02*
X132430761Y-111258047D01*
X132430761Y-109806619D02*
X132551714Y-109685666D01*
X132793619Y-109564714D01*
X133156476Y-109564714D01*
X133398380Y-109685666D01*
X133519333Y-109927571D01*
X133519333Y-111258047D01*
X136301238Y-109564714D02*
X137268857Y-109564714D01*
X136664095Y-108718047D02*
X136664095Y-110895190D01*
X136785047Y-111137095D01*
X137026952Y-111258047D01*
X137268857Y-111258047D01*
X138478380Y-111258047D02*
X138236476Y-111137095D01*
X138115523Y-111016142D01*
X137994571Y-110774238D01*
X137994571Y-110048523D01*
X138115523Y-109806619D01*
X138236476Y-109685666D01*
X138478380Y-109564714D01*
X138841238Y-109564714D01*
X139083142Y-109685666D01*
X139204095Y-109806619D01*
X139325047Y-110048523D01*
X139325047Y-110774238D01*
X139204095Y-111016142D01*
X139083142Y-111137095D01*
X138841238Y-111258047D01*
X138478380Y-111258047D01*
X142348857Y-111258047D02*
X142348857Y-108718047D01*
X142348857Y-109927571D02*
X143800285Y-109927571D01*
X143800285Y-111258047D02*
X143800285Y-108718047D01*
X145977428Y-111137095D02*
X145735523Y-111258047D01*
X145251714Y-111258047D01*
X145009809Y-111137095D01*
X144888857Y-110895190D01*
X144888857Y-109927571D01*
X145009809Y-109685666D01*
X145251714Y-109564714D01*
X145735523Y-109564714D01*
X145977428Y-109685666D01*
X146098380Y-109927571D01*
X146098380Y-110169476D01*
X144888857Y-110411380D01*
X146945047Y-111258047D02*
X148275523Y-109564714D01*
X146945047Y-109564714D02*
X148275523Y-111258047D01*
X152508857Y-108839000D02*
X152266952Y-108718047D01*
X151904095Y-108718047D01*
X151541238Y-108839000D01*
X151299333Y-109080904D01*
X151178380Y-109322809D01*
X151057428Y-109806619D01*
X151057428Y-110169476D01*
X151178380Y-110653285D01*
X151299333Y-110895190D01*
X151541238Y-111137095D01*
X151904095Y-111258047D01*
X152146000Y-111258047D01*
X152508857Y-111137095D01*
X152629809Y-111016142D01*
X152629809Y-110169476D01*
X152146000Y-110169476D01*
X154806952Y-111258047D02*
X154806952Y-109927571D01*
X154686000Y-109685666D01*
X154444095Y-109564714D01*
X153960285Y-109564714D01*
X153718380Y-109685666D01*
X154806952Y-111137095D02*
X154565047Y-111258047D01*
X153960285Y-111258047D01*
X153718380Y-111137095D01*
X153597428Y-110895190D01*
X153597428Y-110653285D01*
X153718380Y-110411380D01*
X153960285Y-110290428D01*
X154565047Y-110290428D01*
X154806952Y-110169476D01*
X156016476Y-111258047D02*
X156016476Y-109564714D01*
X156016476Y-109806619D02*
X156137428Y-109685666D01*
X156379333Y-109564714D01*
X156742190Y-109564714D01*
X156984095Y-109685666D01*
X157105047Y-109927571D01*
X157105047Y-111258047D01*
X157105047Y-109927571D02*
X157226000Y-109685666D01*
X157467904Y-109564714D01*
X157830761Y-109564714D01*
X158072666Y-109685666D01*
X158193619Y-109927571D01*
X158193619Y-111258047D01*
X160370761Y-111137095D02*
X160128857Y-111258047D01*
X159645047Y-111258047D01*
X159403142Y-111137095D01*
X159282190Y-110895190D01*
X159282190Y-109927571D01*
X159403142Y-109685666D01*
X159645047Y-109564714D01*
X160128857Y-109564714D01*
X160370761Y-109685666D01*
X160491714Y-109927571D01*
X160491714Y-110169476D01*
X159282190Y-110411380D01*
D13*
X112014047Y-114371428D02*
X112775952Y-114371428D01*
X112014047Y-118181428D02*
X112775952Y-118181428D01*
X112395000Y-118562380D02*
X112395000Y-117800476D01*
D10*
X174855428Y-109200142D02*
X175998285Y-109200142D01*
X175426857Y-109771571D02*
X175426857Y-108628714D01*
X177426857Y-108271571D02*
X176712571Y-108271571D01*
X176641142Y-108985857D01*
X176712571Y-108914428D01*
X176855428Y-108843000D01*
X177212571Y-108843000D01*
X177355428Y-108914428D01*
X177426857Y-108985857D01*
X177498285Y-109128714D01*
X177498285Y-109485857D01*
X177426857Y-109628714D01*
X177355428Y-109700142D01*
X177212571Y-109771571D01*
X176855428Y-109771571D01*
X176712571Y-109700142D01*
X176641142Y-109628714D01*
X177926857Y-108271571D02*
X178426857Y-109771571D01*
X178926857Y-108271571D01*
X186396428Y-99508571D02*
X186682142Y-99508571D01*
X186825000Y-99580000D01*
X186967857Y-99722857D01*
X187039285Y-100008571D01*
X187039285Y-100508571D01*
X186967857Y-100794285D01*
X186825000Y-100937142D01*
X186682142Y-101008571D01*
X186396428Y-101008571D01*
X186253571Y-100937142D01*
X186110714Y-100794285D01*
X186039285Y-100508571D01*
X186039285Y-100008571D01*
X186110714Y-99722857D01*
X186253571Y-99580000D01*
X186396428Y-99508571D01*
X187682142Y-101008571D02*
X187682142Y-99508571D01*
X188539285Y-101008571D01*
X188539285Y-99508571D01*
D14*
X182247443Y-85526400D02*
G75*
G03X182247443Y-85526400I-6809643J0D01*
G01*
D15*
G04 #@! TO.C,S9*
X185148800Y-113583000D02*
X185148800Y-113083000D01*
X185148800Y-113583000D02*
X185648800Y-113583000D01*
X185148800Y-101683000D02*
X185148800Y-102183000D01*
X185148800Y-101683000D02*
X185648800Y-101683000D01*
X189348800Y-101683000D02*
X189348800Y-102183000D01*
X189348800Y-101683000D02*
X188848800Y-101683000D01*
X189348800Y-113583000D02*
X188848800Y-113583000D01*
X189348800Y-113583000D02*
X189348800Y-113083000D01*
D14*
G04 #@! TO.C,U2*
X141550800Y-85468200D02*
X141550800Y-72418200D01*
X101120800Y-72418200D02*
X101120800Y-85468200D01*
X101120800Y-85468200D02*
X112445800Y-85468200D01*
D15*
G04 #@! TO.C,S8*
X176475000Y-126748400D02*
X176825000Y-126748400D01*
X176475000Y-127123400D02*
X176475000Y-126748400D01*
X176475000Y-139648400D02*
X176475000Y-139248400D01*
X176475000Y-139648400D02*
X176850000Y-139648400D01*
X183525000Y-139648400D02*
X183100000Y-139648400D01*
X183525000Y-139648400D02*
X183525000Y-139198400D01*
X183525000Y-126773400D02*
X183525000Y-127223400D01*
X183525000Y-126748400D02*
X183100000Y-126748400D01*
G04 #@! TO.C,S2*
X116475000Y-126748400D02*
X116825000Y-126748400D01*
X116475000Y-127123400D02*
X116475000Y-126748400D01*
X116475000Y-139648400D02*
X116475000Y-139248400D01*
X116475000Y-139648400D02*
X116850000Y-139648400D01*
X123525000Y-139648400D02*
X123100000Y-139648400D01*
X123525000Y-139648400D02*
X123525000Y-139198400D01*
X123525000Y-126773400D02*
X123525000Y-127223400D01*
X123525000Y-126748400D02*
X123100000Y-126748400D01*
D14*
G04 #@! TO.C,D1*
X108850053Y-115387515D02*
G75*
G03X108850000Y-117612430I1149947J-1112485D01*
G01*
X111149947Y-117612485D02*
G75*
G03X111150000Y-115387570I-1149947J1112485D01*
G01*
X110063000Y-114015000D02*
G75*
G03X110063000Y-114015000I-26000J0D01*
G01*
G04 #@! TO.C,D2*
X120063000Y-114015000D02*
G75*
G03X120063000Y-114015000I-26000J0D01*
G01*
X121149947Y-117612485D02*
G75*
G03X121150000Y-115387570I-1149947J1112485D01*
G01*
X118850053Y-115387515D02*
G75*
G03X118850000Y-117612430I1149947J-1112485D01*
G01*
G04 #@! TO.C,D3*
X128850053Y-115387515D02*
G75*
G03X128850000Y-117612430I1149947J-1112485D01*
G01*
X131149947Y-117612485D02*
G75*
G03X131150000Y-115387570I-1149947J1112485D01*
G01*
X130063000Y-114015000D02*
G75*
G03X130063000Y-114015000I-26000J0D01*
G01*
G04 #@! TO.C,D4*
X140063000Y-114015000D02*
G75*
G03X140063000Y-114015000I-26000J0D01*
G01*
X141149947Y-117612485D02*
G75*
G03X141150000Y-115387570I-1149947J1112485D01*
G01*
X138850053Y-115387515D02*
G75*
G03X138850000Y-117612430I1149947J-1112485D01*
G01*
G04 #@! TO.C,D5*
X148850053Y-115387515D02*
G75*
G03X148850000Y-117612430I1149947J-1112485D01*
G01*
X151149947Y-117612485D02*
G75*
G03X151150000Y-115387570I-1149947J1112485D01*
G01*
X150063000Y-114015000D02*
G75*
G03X150063000Y-114015000I-26000J0D01*
G01*
G04 #@! TO.C,D6*
X160063000Y-114015000D02*
G75*
G03X160063000Y-114015000I-26000J0D01*
G01*
X161149947Y-117612485D02*
G75*
G03X161150000Y-115387570I-1149947J1112485D01*
G01*
X158850053Y-115387515D02*
G75*
G03X158850000Y-117612430I1149947J-1112485D01*
G01*
G04 #@! TO.C,D7*
X168850053Y-115387515D02*
G75*
G03X168850000Y-117612430I1149947J-1112485D01*
G01*
X171149947Y-117612485D02*
G75*
G03X171150000Y-115387570I-1149947J1112485D01*
G01*
X170063000Y-114015000D02*
G75*
G03X170063000Y-114015000I-26000J0D01*
G01*
G04 #@! TO.C,D8*
X180063000Y-114015000D02*
G75*
G03X180063000Y-114015000I-26000J0D01*
G01*
X181149947Y-117612485D02*
G75*
G03X181150000Y-115387570I-1149947J1112485D01*
G01*
X178850053Y-115387515D02*
G75*
G03X178850000Y-117612430I1149947J-1112485D01*
G01*
D16*
G04 #@! TO.C,R1*
X103410000Y-121566000D02*
X103410000Y-121896000D01*
X109950000Y-121566000D02*
X103410000Y-121566000D01*
X109950000Y-121896000D02*
X109950000Y-121566000D01*
X103410000Y-124306000D02*
X103410000Y-123976000D01*
X109950000Y-124306000D02*
X103410000Y-124306000D01*
X109950000Y-123976000D02*
X109950000Y-124306000D01*
G04 #@! TO.C,R2*
X120414800Y-124026800D02*
X120414800Y-124356800D01*
X120414800Y-124356800D02*
X113874800Y-124356800D01*
X113874800Y-124356800D02*
X113874800Y-124026800D01*
X120414800Y-121946800D02*
X120414800Y-121616800D01*
X120414800Y-121616800D02*
X113874800Y-121616800D01*
X113874800Y-121616800D02*
X113874800Y-121946800D01*
G04 #@! TO.C,R3*
X131895600Y-124356800D02*
X131895600Y-124026800D01*
X125355600Y-124356800D02*
X131895600Y-124356800D01*
X125355600Y-124026800D02*
X125355600Y-124356800D01*
X131895600Y-121616800D02*
X131895600Y-121946800D01*
X125355600Y-121616800D02*
X131895600Y-121616800D01*
X125355600Y-121946800D02*
X125355600Y-121616800D01*
G04 #@! TO.C,R4*
X136790000Y-121960000D02*
X136790000Y-121630000D01*
X136790000Y-121630000D02*
X143330000Y-121630000D01*
X143330000Y-121630000D02*
X143330000Y-121960000D01*
X136790000Y-124040000D02*
X136790000Y-124370000D01*
X136790000Y-124370000D02*
X143330000Y-124370000D01*
X143330000Y-124370000D02*
X143330000Y-124040000D01*
G04 #@! TO.C,R5*
X154222200Y-124370000D02*
X154222200Y-124040000D01*
X147682200Y-124370000D02*
X154222200Y-124370000D01*
X147682200Y-124040000D02*
X147682200Y-124370000D01*
X154222200Y-121630000D02*
X154222200Y-121960000D01*
X147682200Y-121630000D02*
X154222200Y-121630000D01*
X147682200Y-121960000D02*
X147682200Y-121630000D01*
G04 #@! TO.C,R6*
X158655000Y-121921400D02*
X158655000Y-121591400D01*
X158655000Y-121591400D02*
X165195000Y-121591400D01*
X165195000Y-121591400D02*
X165195000Y-121921400D01*
X158655000Y-124001400D02*
X158655000Y-124331400D01*
X158655000Y-124331400D02*
X165195000Y-124331400D01*
X165195000Y-124331400D02*
X165195000Y-124001400D01*
G04 #@! TO.C,R7*
X169196000Y-121896000D02*
X169196000Y-121566000D01*
X169196000Y-121566000D02*
X175736000Y-121566000D01*
X175736000Y-121566000D02*
X175736000Y-121896000D01*
X169196000Y-123976000D02*
X169196000Y-124306000D01*
X169196000Y-124306000D02*
X175736000Y-124306000D01*
X175736000Y-124306000D02*
X175736000Y-123976000D01*
G04 #@! TO.C,R8*
X187496200Y-124382200D02*
X187496200Y-124052200D01*
X180956200Y-124382200D02*
X187496200Y-124382200D01*
X180956200Y-124052200D02*
X180956200Y-124382200D01*
X187496200Y-121642200D02*
X187496200Y-121972200D01*
X180956200Y-121642200D02*
X187496200Y-121642200D01*
X180956200Y-121972200D02*
X180956200Y-121642200D01*
D15*
G04 #@! TO.C,S1*
X113525000Y-126748400D02*
X113100000Y-126748400D01*
X113525000Y-126773400D02*
X113525000Y-127223400D01*
X113525000Y-139648400D02*
X113525000Y-139198400D01*
X113525000Y-139648400D02*
X113100000Y-139648400D01*
X106475000Y-139648400D02*
X106850000Y-139648400D01*
X106475000Y-139648400D02*
X106475000Y-139248400D01*
X106475000Y-127123400D02*
X106475000Y-126748400D01*
X106475000Y-126748400D02*
X106825000Y-126748400D01*
G04 #@! TO.C,S3*
X126475000Y-126748400D02*
X126825000Y-126748400D01*
X126475000Y-127123400D02*
X126475000Y-126748400D01*
X126475000Y-139648400D02*
X126475000Y-139248400D01*
X126475000Y-139648400D02*
X126850000Y-139648400D01*
X133525000Y-139648400D02*
X133100000Y-139648400D01*
X133525000Y-139648400D02*
X133525000Y-139198400D01*
X133525000Y-126773400D02*
X133525000Y-127223400D01*
X133525000Y-126748400D02*
X133100000Y-126748400D01*
G04 #@! TO.C,S4*
X143525000Y-126748400D02*
X143100000Y-126748400D01*
X143525000Y-126773400D02*
X143525000Y-127223400D01*
X143525000Y-139648400D02*
X143525000Y-139198400D01*
X143525000Y-139648400D02*
X143100000Y-139648400D01*
X136475000Y-139648400D02*
X136850000Y-139648400D01*
X136475000Y-139648400D02*
X136475000Y-139248400D01*
X136475000Y-127123400D02*
X136475000Y-126748400D01*
X136475000Y-126748400D02*
X136825000Y-126748400D01*
G04 #@! TO.C,S5*
X153525000Y-126748400D02*
X153100000Y-126748400D01*
X153525000Y-126773400D02*
X153525000Y-127223400D01*
X153525000Y-139648400D02*
X153525000Y-139198400D01*
X153525000Y-139648400D02*
X153100000Y-139648400D01*
X146475000Y-139648400D02*
X146850000Y-139648400D01*
X146475000Y-139648400D02*
X146475000Y-139248400D01*
X146475000Y-127123400D02*
X146475000Y-126748400D01*
X146475000Y-126748400D02*
X146825000Y-126748400D01*
G04 #@! TO.C,S6*
X156475000Y-126748400D02*
X156825000Y-126748400D01*
X156475000Y-127123400D02*
X156475000Y-126748400D01*
X156475000Y-139648400D02*
X156475000Y-139248400D01*
X156475000Y-139648400D02*
X156850000Y-139648400D01*
X163525000Y-139648400D02*
X163100000Y-139648400D01*
X163525000Y-139648400D02*
X163525000Y-139198400D01*
X163525000Y-126773400D02*
X163525000Y-127223400D01*
X163525000Y-126748400D02*
X163100000Y-126748400D01*
G04 #@! TO.C,S7*
X173525000Y-126748400D02*
X173100000Y-126748400D01*
X173525000Y-126773400D02*
X173525000Y-127223400D01*
X173525000Y-139648400D02*
X173525000Y-139198400D01*
X173525000Y-139648400D02*
X173100000Y-139648400D01*
X166475000Y-139648400D02*
X166850000Y-139648400D01*
X166475000Y-139648400D02*
X166475000Y-139248400D01*
X166475000Y-127123400D02*
X166475000Y-126748400D01*
X166475000Y-126748400D02*
X166825000Y-126748400D01*
D17*
G04 #@! TO.C,U1*
X103784400Y-102133400D02*
X102768400Y-102133400D01*
X106324400Y-102133400D02*
X106070400Y-102133400D01*
X108864400Y-102133400D02*
X108610400Y-102133400D01*
X111404400Y-102133400D02*
X111150400Y-102133400D01*
X113944400Y-102133400D02*
X113690400Y-102133400D01*
X124866400Y-108483400D02*
X124866400Y-102133400D01*
X124866400Y-102133400D02*
X123850400Y-102133400D01*
X102768400Y-102133400D02*
X102768400Y-105003600D01*
X102768400Y-105003600D02*
X102768400Y-105613200D01*
X102768400Y-105613200D02*
X102768400Y-108483400D01*
X102768400Y-108483400D02*
X103606600Y-108483400D01*
X108610400Y-108483400D02*
X108864400Y-108483400D01*
X111150400Y-108483400D02*
X111404400Y-108483400D01*
X113690400Y-108483400D02*
X113944400Y-108483400D01*
X116230400Y-108483400D02*
X116484400Y-108483400D01*
X118770400Y-108483400D02*
X119024400Y-108483400D01*
X121310400Y-108483400D02*
X121564400Y-108483400D01*
X123850400Y-108483400D02*
X124866400Y-108483400D01*
X121564400Y-102133400D02*
X121310400Y-102133400D01*
X119024400Y-102133400D02*
X118770400Y-102133400D01*
X116484400Y-102133400D02*
X116230400Y-102133400D01*
G04 #@! TO.C,U3*
X111150400Y-96647000D02*
X111404400Y-96647000D01*
X108610400Y-96647000D02*
X108864400Y-96647000D01*
X106070400Y-96647000D02*
X106324400Y-96647000D01*
X103784400Y-90297000D02*
X102768400Y-90297000D01*
X106324400Y-90297000D02*
X106070400Y-90297000D01*
X108864400Y-90297000D02*
X108610400Y-90297000D01*
X111404400Y-90297000D02*
X111150400Y-90297000D01*
X113944400Y-90297000D02*
X113690400Y-90297000D01*
X116484400Y-90297000D02*
X116230400Y-90297000D01*
X119024400Y-90297000D02*
X118770400Y-90297000D01*
X124866400Y-90297000D02*
X124028200Y-90297000D01*
X124866400Y-93167200D02*
X124866400Y-90297000D01*
X124866400Y-93776800D02*
X124866400Y-93167200D01*
X124866400Y-96647000D02*
X124866400Y-93776800D01*
X102768400Y-96647000D02*
X103784400Y-96647000D01*
X102768400Y-90297000D02*
X102768400Y-96647000D01*
X113690400Y-96647000D02*
X113944400Y-96647000D01*
X116230400Y-96647000D02*
X116484400Y-96647000D01*
X118770400Y-96647000D02*
X119024400Y-96647000D01*
X121310400Y-96647000D02*
X121564400Y-96647000D01*
X123850400Y-96647000D02*
X124866400Y-96647000D01*
D18*
G04 #@! TO.C,Y1*
X159018600Y-104568000D02*
X159018600Y-94568000D01*
X159018600Y-94568000D02*
X164018600Y-94568000D01*
X164018600Y-94568000D02*
X164018600Y-104568000D01*
X164018600Y-104568000D02*
X159018600Y-104568000D01*
D14*
X161518600Y-105249000D02*
G75*
G03X161518600Y-105249000I-100000J0D01*
G01*
G04 #@! TO.C,J1*
X146715000Y-107920000D02*
X156815000Y-107920000D01*
X156815000Y-72420000D02*
X146715000Y-72420000D01*
X146715000Y-72420000D02*
X146715000Y-73660000D01*
G04 #@! TO.C,S9*
D19*
X186944095Y-114958761D02*
X187086952Y-115006380D01*
X187325047Y-115006380D01*
X187420285Y-114958761D01*
X187467904Y-114911142D01*
X187515523Y-114815904D01*
X187515523Y-114720666D01*
X187467904Y-114625428D01*
X187420285Y-114577809D01*
X187325047Y-114530190D01*
X187134571Y-114482571D01*
X187039333Y-114434952D01*
X186991714Y-114387333D01*
X186944095Y-114292095D01*
X186944095Y-114196857D01*
X186991714Y-114101619D01*
X187039333Y-114054000D01*
X187134571Y-114006380D01*
X187372666Y-114006380D01*
X187515523Y-114054000D01*
X187991714Y-115006380D02*
X188182190Y-115006380D01*
X188277428Y-114958761D01*
X188325047Y-114911142D01*
X188420285Y-114768285D01*
X188467904Y-114577809D01*
X188467904Y-114196857D01*
X188420285Y-114101619D01*
X188372666Y-114054000D01*
X188277428Y-114006380D01*
X188086952Y-114006380D01*
X187991714Y-114054000D01*
X187944095Y-114101619D01*
X187896476Y-114196857D01*
X187896476Y-114434952D01*
X187944095Y-114530190D01*
X187991714Y-114577809D01*
X188086952Y-114625428D01*
X188277428Y-114625428D01*
X188372666Y-114577809D01*
X188420285Y-114530190D01*
X188467904Y-114434952D01*
G04 #@! TO.C,U2*
D20*
X101394380Y-86172523D02*
X101394380Y-87200619D01*
X101454857Y-87321571D01*
X101515333Y-87382047D01*
X101636285Y-87442523D01*
X101878190Y-87442523D01*
X101999142Y-87382047D01*
X102059619Y-87321571D01*
X102120095Y-87200619D01*
X102120095Y-86172523D01*
X102664380Y-86293476D02*
X102724857Y-86233000D01*
X102845809Y-86172523D01*
X103148190Y-86172523D01*
X103269142Y-86233000D01*
X103329619Y-86293476D01*
X103390095Y-86414428D01*
X103390095Y-86535380D01*
X103329619Y-86716809D01*
X102603904Y-87442523D01*
X103390095Y-87442523D01*
G04 #@! TO.C,S8*
D19*
X175854761Y-133820304D02*
X175902380Y-133677447D01*
X175902380Y-133439352D01*
X175854761Y-133344114D01*
X175807142Y-133296495D01*
X175711904Y-133248876D01*
X175616666Y-133248876D01*
X175521428Y-133296495D01*
X175473809Y-133344114D01*
X175426190Y-133439352D01*
X175378571Y-133629828D01*
X175330952Y-133725066D01*
X175283333Y-133772685D01*
X175188095Y-133820304D01*
X175092857Y-133820304D01*
X174997619Y-133772685D01*
X174950000Y-133725066D01*
X174902380Y-133629828D01*
X174902380Y-133391733D01*
X174950000Y-133248876D01*
X175330952Y-132677447D02*
X175283333Y-132772685D01*
X175235714Y-132820304D01*
X175140476Y-132867923D01*
X175092857Y-132867923D01*
X174997619Y-132820304D01*
X174950000Y-132772685D01*
X174902380Y-132677447D01*
X174902380Y-132486971D01*
X174950000Y-132391733D01*
X174997619Y-132344114D01*
X175092857Y-132296495D01*
X175140476Y-132296495D01*
X175235714Y-132344114D01*
X175283333Y-132391733D01*
X175330952Y-132486971D01*
X175330952Y-132677447D01*
X175378571Y-132772685D01*
X175426190Y-132820304D01*
X175521428Y-132867923D01*
X175711904Y-132867923D01*
X175807142Y-132820304D01*
X175854761Y-132772685D01*
X175902380Y-132677447D01*
X175902380Y-132486971D01*
X175854761Y-132391733D01*
X175807142Y-132344114D01*
X175711904Y-132296495D01*
X175521428Y-132296495D01*
X175426190Y-132344114D01*
X175378571Y-132391733D01*
X175330952Y-132486971D01*
G04 #@! TO.C,S2*
X115854761Y-133820304D02*
X115902380Y-133677447D01*
X115902380Y-133439352D01*
X115854761Y-133344114D01*
X115807142Y-133296495D01*
X115711904Y-133248876D01*
X115616666Y-133248876D01*
X115521428Y-133296495D01*
X115473809Y-133344114D01*
X115426190Y-133439352D01*
X115378571Y-133629828D01*
X115330952Y-133725066D01*
X115283333Y-133772685D01*
X115188095Y-133820304D01*
X115092857Y-133820304D01*
X114997619Y-133772685D01*
X114950000Y-133725066D01*
X114902380Y-133629828D01*
X114902380Y-133391733D01*
X114950000Y-133248876D01*
X114997619Y-132867923D02*
X114950000Y-132820304D01*
X114902380Y-132725066D01*
X114902380Y-132486971D01*
X114950000Y-132391733D01*
X114997619Y-132344114D01*
X115092857Y-132296495D01*
X115188095Y-132296495D01*
X115330952Y-132344114D01*
X115902380Y-132915542D01*
X115902380Y-132296495D01*
G04 #@! TO.C,D1*
D20*
X107889523Y-117269380D02*
X106619523Y-117269380D01*
X106619523Y-116967000D01*
X106680000Y-116785571D01*
X106800952Y-116664619D01*
X106921904Y-116604142D01*
X107163809Y-116543666D01*
X107345238Y-116543666D01*
X107587142Y-116604142D01*
X107708095Y-116664619D01*
X107829047Y-116785571D01*
X107889523Y-116967000D01*
X107889523Y-117269380D01*
X107889523Y-115334142D02*
X107889523Y-116059857D01*
X107889523Y-115697000D02*
X106619523Y-115697000D01*
X106800952Y-115817952D01*
X106921904Y-115938904D01*
X106982380Y-116059857D01*
G04 #@! TO.C,D2*
X117922523Y-117523380D02*
X116652523Y-117523380D01*
X116652523Y-117221000D01*
X116713000Y-117039571D01*
X116833952Y-116918619D01*
X116954904Y-116858142D01*
X117196809Y-116797666D01*
X117378238Y-116797666D01*
X117620142Y-116858142D01*
X117741095Y-116918619D01*
X117862047Y-117039571D01*
X117922523Y-117221000D01*
X117922523Y-117523380D01*
X116773476Y-116313857D02*
X116713000Y-116253380D01*
X116652523Y-116132428D01*
X116652523Y-115830047D01*
X116713000Y-115709095D01*
X116773476Y-115648619D01*
X116894428Y-115588142D01*
X117015380Y-115588142D01*
X117196809Y-115648619D01*
X117922523Y-116374333D01*
X117922523Y-115588142D01*
G04 #@! TO.C,D3*
X127955523Y-117523380D02*
X126685523Y-117523380D01*
X126685523Y-117221000D01*
X126746000Y-117039571D01*
X126866952Y-116918619D01*
X126987904Y-116858142D01*
X127229809Y-116797666D01*
X127411238Y-116797666D01*
X127653142Y-116858142D01*
X127774095Y-116918619D01*
X127895047Y-117039571D01*
X127955523Y-117221000D01*
X127955523Y-117523380D01*
X126685523Y-116374333D02*
X126685523Y-115588142D01*
X127169333Y-116011476D01*
X127169333Y-115830047D01*
X127229809Y-115709095D01*
X127290285Y-115648619D01*
X127411238Y-115588142D01*
X127713619Y-115588142D01*
X127834571Y-115648619D01*
X127895047Y-115709095D01*
X127955523Y-115830047D01*
X127955523Y-116192904D01*
X127895047Y-116313857D01*
X127834571Y-116374333D01*
G04 #@! TO.C,D4*
X138115523Y-117523380D02*
X136845523Y-117523380D01*
X136845523Y-117221000D01*
X136906000Y-117039571D01*
X137026952Y-116918619D01*
X137147904Y-116858142D01*
X137389809Y-116797666D01*
X137571238Y-116797666D01*
X137813142Y-116858142D01*
X137934095Y-116918619D01*
X138055047Y-117039571D01*
X138115523Y-117221000D01*
X138115523Y-117523380D01*
X137268857Y-115709095D02*
X138115523Y-115709095D01*
X136785047Y-116011476D02*
X137692190Y-116313857D01*
X137692190Y-115527666D01*
G04 #@! TO.C,D5*
X148148523Y-117437380D02*
X146878523Y-117437380D01*
X146878523Y-117135000D01*
X146939000Y-116953571D01*
X147059952Y-116832619D01*
X147180904Y-116772142D01*
X147422809Y-116711666D01*
X147604238Y-116711666D01*
X147846142Y-116772142D01*
X147967095Y-116832619D01*
X148088047Y-116953571D01*
X148148523Y-117135000D01*
X148148523Y-117437380D01*
X146878523Y-115562619D02*
X146878523Y-116167380D01*
X147483285Y-116227857D01*
X147422809Y-116167380D01*
X147362333Y-116046428D01*
X147362333Y-115744047D01*
X147422809Y-115623095D01*
X147483285Y-115562619D01*
X147604238Y-115502142D01*
X147906619Y-115502142D01*
X148027571Y-115562619D01*
X148088047Y-115623095D01*
X148148523Y-115744047D01*
X148148523Y-116046428D01*
X148088047Y-116167380D01*
X148027571Y-116227857D01*
G04 #@! TO.C,D6*
X158054523Y-117523380D02*
X156784523Y-117523380D01*
X156784523Y-117221000D01*
X156845000Y-117039571D01*
X156965952Y-116918619D01*
X157086904Y-116858142D01*
X157328809Y-116797666D01*
X157510238Y-116797666D01*
X157752142Y-116858142D01*
X157873095Y-116918619D01*
X157994047Y-117039571D01*
X158054523Y-117221000D01*
X158054523Y-117523380D01*
X156784523Y-115709095D02*
X156784523Y-115951000D01*
X156845000Y-116071952D01*
X156905476Y-116132428D01*
X157086904Y-116253380D01*
X157328809Y-116313857D01*
X157812619Y-116313857D01*
X157933571Y-116253380D01*
X157994047Y-116192904D01*
X158054523Y-116071952D01*
X158054523Y-115830047D01*
X157994047Y-115709095D01*
X157933571Y-115648619D01*
X157812619Y-115588142D01*
X157510238Y-115588142D01*
X157389285Y-115648619D01*
X157328809Y-115709095D01*
X157268333Y-115830047D01*
X157268333Y-116071952D01*
X157328809Y-116192904D01*
X157389285Y-116253380D01*
X157510238Y-116313857D01*
G04 #@! TO.C,D7*
X167833523Y-117650380D02*
X166563523Y-117650380D01*
X166563523Y-117348000D01*
X166624000Y-117166571D01*
X166744952Y-117045619D01*
X166865904Y-116985142D01*
X167107809Y-116924666D01*
X167289238Y-116924666D01*
X167531142Y-116985142D01*
X167652095Y-117045619D01*
X167773047Y-117166571D01*
X167833523Y-117348000D01*
X167833523Y-117650380D01*
X166563523Y-116501333D02*
X166563523Y-115654666D01*
X167833523Y-116198952D01*
G04 #@! TO.C,D8*
X177866523Y-117523380D02*
X176596523Y-117523380D01*
X176596523Y-117221000D01*
X176657000Y-117039571D01*
X176777952Y-116918619D01*
X176898904Y-116858142D01*
X177140809Y-116797666D01*
X177322238Y-116797666D01*
X177564142Y-116858142D01*
X177685095Y-116918619D01*
X177806047Y-117039571D01*
X177866523Y-117221000D01*
X177866523Y-117523380D01*
X177140809Y-116071952D02*
X177080333Y-116192904D01*
X177019857Y-116253380D01*
X176898904Y-116313857D01*
X176838428Y-116313857D01*
X176717476Y-116253380D01*
X176657000Y-116192904D01*
X176596523Y-116071952D01*
X176596523Y-115830047D01*
X176657000Y-115709095D01*
X176717476Y-115648619D01*
X176838428Y-115588142D01*
X176898904Y-115588142D01*
X177019857Y-115648619D01*
X177080333Y-115709095D01*
X177140809Y-115830047D01*
X177140809Y-116071952D01*
X177201285Y-116192904D01*
X177261761Y-116253380D01*
X177382714Y-116313857D01*
X177624619Y-116313857D01*
X177745571Y-116253380D01*
X177806047Y-116192904D01*
X177866523Y-116071952D01*
X177866523Y-115830047D01*
X177806047Y-115709095D01*
X177745571Y-115648619D01*
X177624619Y-115588142D01*
X177382714Y-115588142D01*
X177261761Y-115648619D01*
X177201285Y-115709095D01*
X177140809Y-115830047D01*
G04 #@! TO.C,R1*
D19*
X106767333Y-121102380D02*
X106434000Y-120626190D01*
X106195904Y-121102380D02*
X106195904Y-120102380D01*
X106576857Y-120102380D01*
X106672095Y-120150000D01*
X106719714Y-120197619D01*
X106767333Y-120292857D01*
X106767333Y-120435714D01*
X106719714Y-120530952D01*
X106672095Y-120578571D01*
X106576857Y-120626190D01*
X106195904Y-120626190D01*
X107719714Y-121102380D02*
X107148285Y-121102380D01*
X107434000Y-121102380D02*
X107434000Y-120102380D01*
X107338761Y-120245238D01*
X107243523Y-120340476D01*
X107148285Y-120388095D01*
G04 #@! TO.C,R2*
X117181333Y-121229380D02*
X116848000Y-120753190D01*
X116609904Y-121229380D02*
X116609904Y-120229380D01*
X116990857Y-120229380D01*
X117086095Y-120277000D01*
X117133714Y-120324619D01*
X117181333Y-120419857D01*
X117181333Y-120562714D01*
X117133714Y-120657952D01*
X117086095Y-120705571D01*
X116990857Y-120753190D01*
X116609904Y-120753190D01*
X117562285Y-120324619D02*
X117609904Y-120277000D01*
X117705142Y-120229380D01*
X117943238Y-120229380D01*
X118038476Y-120277000D01*
X118086095Y-120324619D01*
X118133714Y-120419857D01*
X118133714Y-120515095D01*
X118086095Y-120657952D01*
X117514666Y-121229380D01*
X118133714Y-121229380D01*
G04 #@! TO.C,R3*
X128458933Y-121102380D02*
X128125600Y-120626190D01*
X127887504Y-121102380D02*
X127887504Y-120102380D01*
X128268457Y-120102380D01*
X128363695Y-120150000D01*
X128411314Y-120197619D01*
X128458933Y-120292857D01*
X128458933Y-120435714D01*
X128411314Y-120530952D01*
X128363695Y-120578571D01*
X128268457Y-120626190D01*
X127887504Y-120626190D01*
X128792266Y-120102380D02*
X129411314Y-120102380D01*
X129077980Y-120483333D01*
X129220838Y-120483333D01*
X129316076Y-120530952D01*
X129363695Y-120578571D01*
X129411314Y-120673809D01*
X129411314Y-120911904D01*
X129363695Y-121007142D01*
X129316076Y-121054761D01*
X129220838Y-121102380D01*
X128935123Y-121102380D01*
X128839885Y-121054761D01*
X128792266Y-121007142D01*
G04 #@! TO.C,R4*
X139893333Y-121082380D02*
X139560000Y-120606190D01*
X139321904Y-121082380D02*
X139321904Y-120082380D01*
X139702857Y-120082380D01*
X139798095Y-120130000D01*
X139845714Y-120177619D01*
X139893333Y-120272857D01*
X139893333Y-120415714D01*
X139845714Y-120510952D01*
X139798095Y-120558571D01*
X139702857Y-120606190D01*
X139321904Y-120606190D01*
X140750476Y-120415714D02*
X140750476Y-121082380D01*
X140512380Y-120034761D02*
X140274285Y-120749047D01*
X140893333Y-120749047D01*
G04 #@! TO.C,R5*
X150785533Y-121082380D02*
X150452200Y-120606190D01*
X150214104Y-121082380D02*
X150214104Y-120082380D01*
X150595057Y-120082380D01*
X150690295Y-120130000D01*
X150737914Y-120177619D01*
X150785533Y-120272857D01*
X150785533Y-120415714D01*
X150737914Y-120510952D01*
X150690295Y-120558571D01*
X150595057Y-120606190D01*
X150214104Y-120606190D01*
X151690295Y-120082380D02*
X151214104Y-120082380D01*
X151166485Y-120558571D01*
X151214104Y-120510952D01*
X151309342Y-120463333D01*
X151547438Y-120463333D01*
X151642676Y-120510952D01*
X151690295Y-120558571D01*
X151737914Y-120653809D01*
X151737914Y-120891904D01*
X151690295Y-120987142D01*
X151642676Y-121034761D01*
X151547438Y-121082380D01*
X151309342Y-121082380D01*
X151214104Y-121034761D01*
X151166485Y-120987142D01*
G04 #@! TO.C,R6*
X161758333Y-121043780D02*
X161425000Y-120567590D01*
X161186904Y-121043780D02*
X161186904Y-120043780D01*
X161567857Y-120043780D01*
X161663095Y-120091400D01*
X161710714Y-120139019D01*
X161758333Y-120234257D01*
X161758333Y-120377114D01*
X161710714Y-120472352D01*
X161663095Y-120519971D01*
X161567857Y-120567590D01*
X161186904Y-120567590D01*
X162615476Y-120043780D02*
X162425000Y-120043780D01*
X162329761Y-120091400D01*
X162282142Y-120139019D01*
X162186904Y-120281876D01*
X162139285Y-120472352D01*
X162139285Y-120853304D01*
X162186904Y-120948542D01*
X162234523Y-120996161D01*
X162329761Y-121043780D01*
X162520238Y-121043780D01*
X162615476Y-120996161D01*
X162663095Y-120948542D01*
X162710714Y-120853304D01*
X162710714Y-120615209D01*
X162663095Y-120519971D01*
X162615476Y-120472352D01*
X162520238Y-120424733D01*
X162329761Y-120424733D01*
X162234523Y-120472352D01*
X162186904Y-120519971D01*
X162139285Y-120615209D01*
G04 #@! TO.C,R7*
X172299333Y-121018380D02*
X171966000Y-120542190D01*
X171727904Y-121018380D02*
X171727904Y-120018380D01*
X172108857Y-120018380D01*
X172204095Y-120066000D01*
X172251714Y-120113619D01*
X172299333Y-120208857D01*
X172299333Y-120351714D01*
X172251714Y-120446952D01*
X172204095Y-120494571D01*
X172108857Y-120542190D01*
X171727904Y-120542190D01*
X172632666Y-120018380D02*
X173299333Y-120018380D01*
X172870761Y-121018380D01*
G04 #@! TO.C,R8*
X184059533Y-121094580D02*
X183726200Y-120618390D01*
X183488104Y-121094580D02*
X183488104Y-120094580D01*
X183869057Y-120094580D01*
X183964295Y-120142200D01*
X184011914Y-120189819D01*
X184059533Y-120285057D01*
X184059533Y-120427914D01*
X184011914Y-120523152D01*
X183964295Y-120570771D01*
X183869057Y-120618390D01*
X183488104Y-120618390D01*
X184630961Y-120523152D02*
X184535723Y-120475533D01*
X184488104Y-120427914D01*
X184440485Y-120332676D01*
X184440485Y-120285057D01*
X184488104Y-120189819D01*
X184535723Y-120142200D01*
X184630961Y-120094580D01*
X184821438Y-120094580D01*
X184916676Y-120142200D01*
X184964295Y-120189819D01*
X185011914Y-120285057D01*
X185011914Y-120332676D01*
X184964295Y-120427914D01*
X184916676Y-120475533D01*
X184821438Y-120523152D01*
X184630961Y-120523152D01*
X184535723Y-120570771D01*
X184488104Y-120618390D01*
X184440485Y-120713628D01*
X184440485Y-120904104D01*
X184488104Y-120999342D01*
X184535723Y-121046961D01*
X184630961Y-121094580D01*
X184821438Y-121094580D01*
X184916676Y-121046961D01*
X184964295Y-120999342D01*
X185011914Y-120904104D01*
X185011914Y-120713628D01*
X184964295Y-120618390D01*
X184916676Y-120570771D01*
X184821438Y-120523152D01*
G04 #@! TO.C,RV1*
X184926361Y-73375780D02*
X184593028Y-72899590D01*
X184354933Y-73375780D02*
X184354933Y-72375780D01*
X184735885Y-72375780D01*
X184831123Y-72423400D01*
X184878742Y-72471019D01*
X184926361Y-72566257D01*
X184926361Y-72709114D01*
X184878742Y-72804352D01*
X184831123Y-72851971D01*
X184735885Y-72899590D01*
X184354933Y-72899590D01*
X185212076Y-72375780D02*
X185545409Y-73375780D01*
X185878742Y-72375780D01*
X186735885Y-73375780D02*
X186164457Y-73375780D01*
X186450171Y-73375780D02*
X186450171Y-72375780D01*
X186354933Y-72518638D01*
X186259695Y-72613876D01*
X186164457Y-72661495D01*
G04 #@! TO.C,S1*
X105854761Y-133820304D02*
X105902380Y-133677447D01*
X105902380Y-133439352D01*
X105854761Y-133344114D01*
X105807142Y-133296495D01*
X105711904Y-133248876D01*
X105616666Y-133248876D01*
X105521428Y-133296495D01*
X105473809Y-133344114D01*
X105426190Y-133439352D01*
X105378571Y-133629828D01*
X105330952Y-133725066D01*
X105283333Y-133772685D01*
X105188095Y-133820304D01*
X105092857Y-133820304D01*
X104997619Y-133772685D01*
X104950000Y-133725066D01*
X104902380Y-133629828D01*
X104902380Y-133391733D01*
X104950000Y-133248876D01*
X105902380Y-132296495D02*
X105902380Y-132867923D01*
X105902380Y-132582209D02*
X104902380Y-132582209D01*
X105045238Y-132677447D01*
X105140476Y-132772685D01*
X105188095Y-132867923D01*
G04 #@! TO.C,S3*
X125854761Y-133820304D02*
X125902380Y-133677447D01*
X125902380Y-133439352D01*
X125854761Y-133344114D01*
X125807142Y-133296495D01*
X125711904Y-133248876D01*
X125616666Y-133248876D01*
X125521428Y-133296495D01*
X125473809Y-133344114D01*
X125426190Y-133439352D01*
X125378571Y-133629828D01*
X125330952Y-133725066D01*
X125283333Y-133772685D01*
X125188095Y-133820304D01*
X125092857Y-133820304D01*
X124997619Y-133772685D01*
X124950000Y-133725066D01*
X124902380Y-133629828D01*
X124902380Y-133391733D01*
X124950000Y-133248876D01*
X124902380Y-132915542D02*
X124902380Y-132296495D01*
X125283333Y-132629828D01*
X125283333Y-132486971D01*
X125330952Y-132391733D01*
X125378571Y-132344114D01*
X125473809Y-132296495D01*
X125711904Y-132296495D01*
X125807142Y-132344114D01*
X125854761Y-132391733D01*
X125902380Y-132486971D01*
X125902380Y-132772685D01*
X125854761Y-132867923D01*
X125807142Y-132915542D01*
G04 #@! TO.C,S4*
X135854761Y-133820304D02*
X135902380Y-133677447D01*
X135902380Y-133439352D01*
X135854761Y-133344114D01*
X135807142Y-133296495D01*
X135711904Y-133248876D01*
X135616666Y-133248876D01*
X135521428Y-133296495D01*
X135473809Y-133344114D01*
X135426190Y-133439352D01*
X135378571Y-133629828D01*
X135330952Y-133725066D01*
X135283333Y-133772685D01*
X135188095Y-133820304D01*
X135092857Y-133820304D01*
X134997619Y-133772685D01*
X134950000Y-133725066D01*
X134902380Y-133629828D01*
X134902380Y-133391733D01*
X134950000Y-133248876D01*
X135235714Y-132391733D02*
X135902380Y-132391733D01*
X134854761Y-132629828D02*
X135569047Y-132867923D01*
X135569047Y-132248876D01*
G04 #@! TO.C,S5*
X145854761Y-133820304D02*
X145902380Y-133677447D01*
X145902380Y-133439352D01*
X145854761Y-133344114D01*
X145807142Y-133296495D01*
X145711904Y-133248876D01*
X145616666Y-133248876D01*
X145521428Y-133296495D01*
X145473809Y-133344114D01*
X145426190Y-133439352D01*
X145378571Y-133629828D01*
X145330952Y-133725066D01*
X145283333Y-133772685D01*
X145188095Y-133820304D01*
X145092857Y-133820304D01*
X144997619Y-133772685D01*
X144950000Y-133725066D01*
X144902380Y-133629828D01*
X144902380Y-133391733D01*
X144950000Y-133248876D01*
X144902380Y-132344114D02*
X144902380Y-132820304D01*
X145378571Y-132867923D01*
X145330952Y-132820304D01*
X145283333Y-132725066D01*
X145283333Y-132486971D01*
X145330952Y-132391733D01*
X145378571Y-132344114D01*
X145473809Y-132296495D01*
X145711904Y-132296495D01*
X145807142Y-132344114D01*
X145854761Y-132391733D01*
X145902380Y-132486971D01*
X145902380Y-132725066D01*
X145854761Y-132820304D01*
X145807142Y-132867923D01*
G04 #@! TO.C,S6*
X155854761Y-133820304D02*
X155902380Y-133677447D01*
X155902380Y-133439352D01*
X155854761Y-133344114D01*
X155807142Y-133296495D01*
X155711904Y-133248876D01*
X155616666Y-133248876D01*
X155521428Y-133296495D01*
X155473809Y-133344114D01*
X155426190Y-133439352D01*
X155378571Y-133629828D01*
X155330952Y-133725066D01*
X155283333Y-133772685D01*
X155188095Y-133820304D01*
X155092857Y-133820304D01*
X154997619Y-133772685D01*
X154950000Y-133725066D01*
X154902380Y-133629828D01*
X154902380Y-133391733D01*
X154950000Y-133248876D01*
X154902380Y-132391733D02*
X154902380Y-132582209D01*
X154950000Y-132677447D01*
X154997619Y-132725066D01*
X155140476Y-132820304D01*
X155330952Y-132867923D01*
X155711904Y-132867923D01*
X155807142Y-132820304D01*
X155854761Y-132772685D01*
X155902380Y-132677447D01*
X155902380Y-132486971D01*
X155854761Y-132391733D01*
X155807142Y-132344114D01*
X155711904Y-132296495D01*
X155473809Y-132296495D01*
X155378571Y-132344114D01*
X155330952Y-132391733D01*
X155283333Y-132486971D01*
X155283333Y-132677447D01*
X155330952Y-132772685D01*
X155378571Y-132820304D01*
X155473809Y-132867923D01*
G04 #@! TO.C,S7*
X165854761Y-133820304D02*
X165902380Y-133677447D01*
X165902380Y-133439352D01*
X165854761Y-133344114D01*
X165807142Y-133296495D01*
X165711904Y-133248876D01*
X165616666Y-133248876D01*
X165521428Y-133296495D01*
X165473809Y-133344114D01*
X165426190Y-133439352D01*
X165378571Y-133629828D01*
X165330952Y-133725066D01*
X165283333Y-133772685D01*
X165188095Y-133820304D01*
X165092857Y-133820304D01*
X164997619Y-133772685D01*
X164950000Y-133725066D01*
X164902380Y-133629828D01*
X164902380Y-133391733D01*
X164950000Y-133248876D01*
X164902380Y-132915542D02*
X164902380Y-132248876D01*
X165902380Y-132677447D01*
G04 #@! TO.C,U1*
D20*
X100904523Y-105996619D02*
X101932619Y-105996619D01*
X102053571Y-105936142D01*
X102114047Y-105875666D01*
X102174523Y-105754714D01*
X102174523Y-105512809D01*
X102114047Y-105391857D01*
X102053571Y-105331380D01*
X101932619Y-105270904D01*
X100904523Y-105270904D01*
X102174523Y-104000904D02*
X102174523Y-104726619D01*
X102174523Y-104363761D02*
X100904523Y-104363761D01*
X101085952Y-104484714D01*
X101206904Y-104605666D01*
X101267380Y-104726619D01*
G04 #@! TO.C,U3*
X101031523Y-94312619D02*
X102059619Y-94312619D01*
X102180571Y-94252142D01*
X102241047Y-94191666D01*
X102301523Y-94070714D01*
X102301523Y-93828809D01*
X102241047Y-93707857D01*
X102180571Y-93647380D01*
X102059619Y-93586904D01*
X101031523Y-93586904D01*
X101031523Y-93103095D02*
X101031523Y-92316904D01*
X101515333Y-92740238D01*
X101515333Y-92558809D01*
X101575809Y-92437857D01*
X101636285Y-92377380D01*
X101757238Y-92316904D01*
X102059619Y-92316904D01*
X102180571Y-92377380D01*
X102241047Y-92437857D01*
X102301523Y-92558809D01*
X102301523Y-92921666D01*
X102241047Y-93042619D01*
X102180571Y-93103095D01*
G04 #@! TO.C,Y1*
D21*
X161575095Y-93067154D02*
X161575095Y-93544059D01*
X161241261Y-92542559D02*
X161575095Y-93067154D01*
X161908928Y-92542559D01*
X162767357Y-93544059D02*
X162195071Y-93544059D01*
X162481214Y-93544059D02*
X162481214Y-92542559D01*
X162385833Y-92685630D01*
X162290452Y-92781011D01*
X162195071Y-92828702D01*
G04 #@! TO.C,J1*
D20*
X144483666Y-72456523D02*
X144483666Y-73363666D01*
X144423190Y-73545095D01*
X144302238Y-73666047D01*
X144120809Y-73726523D01*
X143999857Y-73726523D01*
X145753666Y-73726523D02*
X145027952Y-73726523D01*
X145390809Y-73726523D02*
X145390809Y-72456523D01*
X145269857Y-72637952D01*
X145148904Y-72758904D01*
X145027952Y-72819380D01*
G04 #@! TO.C,LS1*
D19*
X164076142Y-72588380D02*
X163599952Y-72588380D01*
X163599952Y-71588380D01*
X164361857Y-72540761D02*
X164504714Y-72588380D01*
X164742809Y-72588380D01*
X164838047Y-72540761D01*
X164885666Y-72493142D01*
X164933285Y-72397904D01*
X164933285Y-72302666D01*
X164885666Y-72207428D01*
X164838047Y-72159809D01*
X164742809Y-72112190D01*
X164552333Y-72064571D01*
X164457095Y-72016952D01*
X164409476Y-71969333D01*
X164361857Y-71874095D01*
X164361857Y-71778857D01*
X164409476Y-71683619D01*
X164457095Y-71636000D01*
X164552333Y-71588380D01*
X164790428Y-71588380D01*
X164933285Y-71636000D01*
X165885666Y-72588380D02*
X165314238Y-72588380D01*
X165599952Y-72588380D02*
X165599952Y-71588380D01*
X165504714Y-71731238D01*
X165409476Y-71826476D01*
X165314238Y-71874095D01*
G04 #@! TD*
M02*
