M48
;DRILL file {KiCad (5.0.2)-1} date 11/3/2019 6:05:33 PM
;FORMAT={-:-/ absolute / inch / decimal}
FMAT,2
INCH,TZ
T1C0.0150
T2C0.0315
T3C0.0354
T4C0.0394
T5C0.0440
T6C0.0457
T7C0.0728
%
G90
G05
T1
X6.22Y-2.995
T2
X7.103Y-4.843
X7.403Y-4.843
X4.914Y-4.842
X5.214Y-4.842
X4.462Y-4.842
X4.762Y-4.842
X4.05Y-4.84
X4.35Y-4.84
X4.427Y-2.908
X4.427Y-3.308
X4.527Y-2.908
X4.527Y-3.308
X4.627Y-2.908
X4.627Y-3.308
X4.727Y-2.908
X4.727Y-3.308
X4.827Y-2.908
X4.827Y-3.308
X4.927Y-2.908
X4.927Y-3.308
X5.027Y-2.908
X5.027Y-3.308
X5.127Y-2.908
X5.127Y-3.308
X5.793Y-4.8425
X6.093Y-4.8425
X6.359Y-3.8216
X6.359Y-3.92
X6.359Y-4.0184
X5.3642Y-4.8425
X5.6642Y-4.8425
X6.64Y-4.84
X6.94Y-4.84
X6.225Y-4.841
X6.525Y-4.841
T3
X5.825Y-2.9
X5.825Y-3.
X5.825Y-3.1
X5.825Y-3.2
X5.825Y-3.3
X5.825Y-3.4
X5.825Y-3.5
X5.825Y-3.6
X5.825Y-3.7
X5.825Y-3.8
X5.825Y-3.9
X5.825Y-4.
X5.825Y-4.1
X5.825Y-4.2
X6.125Y-2.9
X6.125Y-3.
X6.125Y-3.1
X6.125Y-3.2
X6.125Y-3.3
X6.125Y-3.4
X6.125Y-3.5
X6.125Y-3.6
X6.125Y-3.7
X6.125Y-3.8
X6.125Y-3.9
X6.125Y-4.
X6.125Y-4.1
X6.125Y-4.2
X7.372Y-4.145
X7.372Y-4.2434
X7.372Y-4.3419
T4
X7.148Y-3.594
X7.148Y-3.694
X7.148Y-3.794
X7.148Y-3.894
X7.148Y-3.994
X7.148Y-4.094
X7.148Y-4.194
X7.148Y-4.294
T5
X4.131Y-3.53
X4.131Y-3.83
X4.231Y-3.53
X4.231Y-3.83
X4.331Y-3.53
X4.331Y-3.83
X4.431Y-3.53
X4.431Y-3.83
X4.531Y-3.53
X4.531Y-3.83
X4.631Y-3.53
X4.631Y-3.83
X4.731Y-3.53
X4.731Y-3.83
X4.831Y-3.53
X4.831Y-3.83
X4.131Y-3.996
X4.131Y-4.296
X4.231Y-3.996
X4.231Y-4.296
X4.331Y-3.996
X4.331Y-4.296
X4.431Y-3.996
X4.431Y-4.296
X4.531Y-3.996
X4.531Y-4.296
X4.631Y-3.996
X4.631Y-4.296
X4.731Y-3.996
X4.731Y-4.296
X4.831Y-3.996
X4.831Y-4.296
T6
X5.9055Y-4.5366
X5.9055Y-4.6366
X5.1181Y-4.5366
X5.1181Y-4.6366
X4.3307Y-4.5366
X4.3307Y-4.6366
X4.7244Y-4.5366
X4.7244Y-4.6366
X6.2992Y-4.5366
X6.2992Y-4.6366
X7.0866Y-4.5366
X7.0866Y-4.6366
X5.5118Y-4.5366
X5.5118Y-4.6366
X6.6929Y-4.5366
X6.6929Y-4.6366
T7
X5.5118Y-5.059
X5.5118Y-5.244
X5.5118Y-5.4291
X4.7244Y-5.059
X4.7244Y-5.244
X4.7244Y-5.4291
X6.6929Y-5.059
X6.6929Y-5.244
X6.6929Y-5.4291
X7.0866Y-5.059
X7.0866Y-5.244
X7.0866Y-5.4291
X6.2992Y-5.059
X6.2992Y-5.244
X6.2992Y-5.4291
X5.1181Y-5.059
X5.1181Y-5.244
X5.1181Y-5.4291
X5.9055Y-5.059
X5.9055Y-5.244
X5.9055Y-5.4291
X4.3307Y-5.059
X4.3307Y-5.244
X4.3307Y-5.4291
T0
M30
